SplineFontDB: 1.0
FontName: URWBookmanL-DemiBold
FullName: URW Bookman L Demi Bold
FamilyName: URW Bookman L
Weight: Bold
Copyright: Copyright (URW)++,Copyright 1999 by (URW)++ Design & Development; Cyrillic glyphs added by Valek Filippov (C) 2001-2002
Version: 1.06
ItalicAngle: 0
UnderlinePosition: -125
UnderlineWidth: 60
Ascent: 800
Descent: 200
NeedsXUIDChange: 1
UniqueID: 4010067
FSType: 0
OS2WinAscent: 0
OS2WinAOffset: 1
OS2WinDescent: 0
OS2WinDOffset: 1
HheadAscent: 0
HheadAOffset: 1
HheadDescent: 0
HheadDOffset: 1
ScriptLang: 2
 1 latn 1 dflt 
 1 DFLT 1 dflt 
Encoding: adobestandard
UnicodeInterp: none
DisplaySize: -36
AntiAlias: 1
FitToEm: 1
WinInfo: 368 23 13
BeginPrivate: 7
BlueValues 23 [-20 0 502 522 681 701]
BlueScale 8 0.039625
StdHW 5 [103]
StdVW 5 [163]
StemSnapH 207 [83 86 92 98 103 109 115] 
systemdict /internaldict known
{1183615869 systemdict /internaldict get exec
/StemSnapLength 2 copy known { get 7 lt } { pop pop true } ifelse }
{ true } ifelse { pop [98 103] } if
StemSnapV 208 [143 163 171 177 183 193] 
systemdict /internaldict known
{1183615869 systemdict /internaldict get exec
/StemSnapLength 2 copy known { get 6 lt } { pop pop true } ifelse }
{ true } ifelse { pop [163 177] } if
ForceBold 5 false
EndPrivate
BeginChars: 767 660
StartChar: exclam
Encoding: 33 33 2
Width: 360
Flags: W
HStem: -13 185<177 195> 674 20G<154.5 213>
Fore
182 172 m 0
 233 172 274 131 274 80 c 0
 274 29 232 -13 181 -13 c 0
 130 -13 89 29 89 82 c 0
 89 131 131 172 182 172 c 0
223 216 m 1
 141 216 l 1
 132 309 123 368 106 445 c 0
 86 537 82 561 82 594 c 0
 82 650 126 694 183 694 c 0
 243 694 282 651 282 584 c 0
 282 556 278 535 258 451 c 0
 236 353 230 312 223 216 c 1
EndSplineSet
EndChar
StartChar: quotedbl
Encoding: 34 34 3
Width: 420
Flags: W
HStem: 674 20G<60 98.5 282 320.5>
VStem: 11 136<622 627> 233 136<622 627>
Fore
55 383 m 1
 15 596 l 2
 12 612 11 618 11 625 c 0
 11 664 41 694 79 694 c 0
 118 694 147 664 147 624 c 0
 147 618 146 612 143 596 c 2
 103 383 l 1
 55 383 l 1
277 383 m 1
 237 596 l 2
 234 612 233 618 233 625 c 0
 233 664 263 694 301 694 c 0
 340 694 369 664 369 624 c 0
 369 618 368 612 365 596 c 2
 325 383 l 1
 277 383 l 1
EndSplineSet
EndChar
StartChar: numbersign
Encoding: 35 35 4
Width: 660
Flags: W
HStem: 0 21G<154 240 327 413> 219 85<84 186 285 359 458 548> 390 85<112 211 310 384 483 576> 661 20G<254 340 427 513>
DStem: 186 219 273 219 154 0 240 0 211 390 298 390 198 304 285 304 254 681 340 681 224 475 310 475 359 219 446 219 327 0 413 0 384 390 471 390 371 304 458 304 427 681 513 681 397 475 483 475
Fore
458 304 m 1
 548 304 l 1
 548 219 l 1
 446 219 l 1
 413 0 l 1
 327 0 l 1
 359 219 l 1
 273 219 l 1
 240 0 l 1
 154 0 l 1
 186 219 l 1
 84 219 l 1
 84 304 l 1
 198 304 l 1
 211 390 l 1
 112 390 l 1
 112 475 l 1
 224 475 l 1
 254 681 l 1
 340 681 l 1
 310 475 l 1
 397 475 l 1
 427 681 l 1
 513 681 l 1
 483 475 l 1
 576 475 l 1
 576 390 l 1
 471 390 l 1
 458 304 l 1
371 304 m 1
 384 390 l 1
 298 390 l 1
 285 304 l 1
 371 304 l 1
EndSplineSet
EndChar
StartChar: dollar
Encoding: 36 36 5
Width: 660
Flags: W
HStem: -120 218<305 369> 602 203<305 337>
VStem: 48 154<161 184> 66 145<471 524> 306 63<-120 26 669 805> 475 145<193 231>
Fore
369 805 m 1xdc
 369 670 l 1
 495 660 586 601 586 530 c 0
 586 493 561 467 525 467 c 0
 501 467 478 479 463 500 c 0
 452 514 451 517 447 549 c 0
 442 578 388 602 326 602 c 0
 256 602 211 571 211 524 c 0xdc
 211 502 223 478 241 466 c 0
 261 453 294 442 349 429 c 2
 420 413 l 2
 563 381 620 329 620 231 c 0
 620 119 525 42 369 26 c 1
 369 -120 l 1
 306 -120 l 1
 306 26 l 1
 145 38 48 97 48 184 c 0
 48 230 80 262 126 262 c 0
 169 262 206 232 206 196 c 0
 206 193 206 193 203 175 c 0
 202 170 202 165 202 161 c 0xec
 202 124 252 98 327 98 c 0
 416 98 475 136 475 193 c 0
 475 236 456 253 387 269 c 2
 298 290 l 2
 198 313 180 318 145 337 c 0
 95 363 66 412 66 471 c 0
 66 583 158 659 306 669 c 1
 306 805 l 1
 369 805 l 1xdc
EndSplineSet
EndChar
StartChar: percent
Encoding: 37 37 6
Width: 940
Flags: W
HStem: -8 62<721.77 737> 265 62<193.77 214> 354 62<722.011 737> 627 62<194.011 214>
VStem: 12 123<455 489> 273 123<455 489> 540 123<183 217> 801 123<183 217>
DStem: 637 681 718 681 212 0 290 0
Fore
207 689 m 0
 321 689 396 605 396 478 c 0
 396 348 321 265 204 265 c 0
 86 265 12 346 12 474 c 0
 12 604 89 689 207 689 c 0
204 627 m 0
 160 627 135 572 135 479 c 0
 135 381 159 327 204 327 c 0
 248 327 273 381 273 477 c 0
 273 572 248 627 204 627 c 0
718 681 m 1
 290 0 l 1
 212 0 l 1
 637 681 l 1
 718 681 l 1
735 416 m 0
 849 416 924 332 924 205 c 0
 924 75 849 -8 732 -8 c 0
 614 -8 540 73 540 201 c 0
 540 331 617 416 735 416 c 0
732 354 m 0
 688 354 663 299 663 206 c 0
 663 108 687 54 732 54 c 0
 776 54 801 108 801 204 c 0
 801 299 776 354 732 354 c 0
EndSplineSet
EndChar
StartChar: ampersand
Encoding: 38 38 7
Width: 800
Flags: W
HStem: -3 87<665 725> 602 92<313 328>
VStem: 21 174<195 219> 113 162<528 553> 374 120<546 556>
Fore
772 86 m 1xd8
 772 4 l 1
 736 -2 712 -3 665 -3 c 0
 576 -3 529 12 479 56 c 1
 423 11 352 -13 276 -13 c 0
 127 -13 21 74 21 195 c 0xe8
 21 252 48 313 90 352 c 0
 112 372 133 384 170 398 c 1
 133 435 113 480 113 528 c 0
 113 626 195 694 313 694 c 0
 419 694 494 633 494 549 c 0
 494 492 457 436 392 398 c 1
 443 346 497 282 518 246 c 1
 542 302 550 331 550 361 c 0
 550 387 538 397 495 404 c 1
 495 482 l 1
 758 482 l 1
 758 404 l 1
 680 397 658 381 647 319 c 1
 630 254 603 193 577 162 c 1
 615 107 658 84 725 84 c 0
 736 84 748 84 772 86 c 1xd8
320 462 m 1
 326 466 l 2
 354 486 374 521 374 550 c 0
 374 580 353 602 326 602 c 0
 298 602 275 580 275 553 c 0xd8
 275 525 286 502 320 462 c 1
415 124 m 1
 404 136 l 2
 399 142 384 163 363 193 c 0
 322 249 274 302 237 331 c 1
 209 307 195 270 195 219 c 0xe8
 195 140 238 89 306 89 c 0
 342 89 376 100 415 124 c 1
EndSplineSet
EndChar
StartChar: quoteright
Encoding: 39 8217 8
Width: 320
Flags: W
HStem: 674 20G<138 184.5>
Fore
141 438 m 1
 98 483 l 1
 122 504 136 521 147 542 c 1
 104 550 82 576 82 615 c 0
 82 660 116 694 160 694 c 0
 209 694 242 655 242 599 c 0
 242 540 204 479 141 438 c 1
EndSplineSet
KernsSLIF: 225 -172 1 0
EndChar
StartChar: parenleft
Encoding: 40 40 9
Width: 320
Flags: W
VStem: 48 138<164 422>
Fore
289 737 m 1
 289 656 l 1
 249 645 226 623 209 577 c 0
 197 546 186 455 186 395 c 2
 186 187 l 2
 186 115 199 26 214 -7 c 0
 233 -47 252 -64 289 -73 c 1
 289 -155 l 1
 239 -154 216 -149 185 -131 c 1
 92 -81 48 21 48 184 c 2
 48 398 l 2
 48 518 74 610 122 664 c 0
 169 715 213 735 289 737 c 1
EndSplineSet
EndChar
StartChar: parenright
Encoding: 41 41 10
Width: 320
Flags: W
VStem: 123 139<164 422>
Fore
20 656 m 1
 20 737 l 1
 71 736 93 731 125 713 c 0
 217 663 262 561 262 398 c 2
 262 184 l 2
 262 64 236 -28 188 -82 c 0
 140 -134 97 -153 20 -155 c 1
 20 -73 l 1
 60 -63 83 -41 100 5 c 0
 112 35 123 127 123 187 c 2
 123 395 l 2
 123 468 110 557 95 589 c 0
 76 629 57 646 20 656 c 1
EndSplineSet
EndChar
StartChar: asterisk
Encoding: 42 42 11
Width: 460
Flags: W
HStem: 674 20G<220.5 248.5>
VStem: 186 93<348 366 650 656>
Fore
224 546 m 1
 196 618 l 2
 191 632 188 644 188 652 c 0
 188 678 206 694 235 694 c 0
 262 694 281 678 281 654 c 0
 281 644 279 637 273 618 c 1
 248 546 l 1
 264 534 l 1
 312 593 l 2
 329 615 343 624 359 624 c 0
 382 624 405 598 405 571 c 0
 405 548 388 534 350 527 c 2
 276 513 l 1
 274 493 l 1
 349 481 l 2
 386 475 404 461 404 438 c 0
 404 411 382 385 358 385 c 0
 343 385 330 393 311 415 c 2
 262 472 l 1
 243 464 l 1
 270 393 l 2
 276 378 279 367 279 358 c 0
 279 333 261 317 233 317 c 0
 205 317 186 333 186 356 c 0
 186 366 188 376 194 393 c 2
 219 464 l 1
 203 476 l 1
 155 417 l 2
 138 396 124 387 107 387 c 0
 84 387 62 414 62 440 c 0
 62 463 78 476 117 483 c 2
 191 498 l 1
 193 517 l 1
 118 529 l 2
 81 535 63 550 63 572 c 0
 63 600 85 626 110 626 c 0
 124 626 138 617 156 596 c 2
 205 539 l 1
 224 546 l 1
EndSplineSet
EndChar
StartChar: plus
Encoding: 43 43 12
Width: 600
Flags: W
HStem: 294 117<51 245 361 555>
VStem: 245 116<108 294 411 597>
Fore
555 294 m 1
 361 294 l 1
 361 108 l 1
 245 108 l 1
 245 294 l 1
 51 294 l 1
 51 411 l 1
 245 411 l 1
 245 597 l 1
 361 597 l 1
 361 411 l 1
 555 411 l 1
 555 294 l 1
EndSplineSet
EndChar
StartChar: comma
Encoding: 44 44 13
Width: 340
Flags: W
Fore
144 -120 m 1
 96 -69 l 1
 124 -44 138 -26 150 -3 c 1
 102 7 78 34 78 78 c 0
 78 128 116 167 165 167 c 0
 220 167 257 124 257 61 c 0
 257 -6 222 -63 144 -120 c 1
EndSplineSet
EndChar
StartChar: hyphen
Encoding: 45 45 14
Width: 360
Flags: W
HStem: 210 108<66 295>
Fore
340 318 m 1
 295 210 l 1
 20 210 l 1
 67 318 l 1
 340 318 l 1
EndSplineSet
EndChar
StartChar: period
Encoding: 46 46 15
Width: 340
Flags: W
HStem: -13 21G<141 191>
Fore
167 168 m 0
 217 168 257 128 257 78 c 0
 257 28 216 -13 166 -13 c 0
 116 -13 76 28 76 79 c 0
 76 128 117 168 167 168 c 0
EndSplineSet
EndChar
StartChar: slash
Encoding: 47 47 16
Width: 600
Flags: W
DStem: 424 720 555 720 50 -138 181 -138
Fore
555 720 m 1
 181 -138 l 1
 50 -138 l 1
 424 720 l 1
 555 720 l 1
EndSplineSet
EndChar
StartChar: zero
Encoding: 48 48 17
Width: 660
Flags: W
HStem: -13 92<320.739 341> 602 92<321.135 341>
VStem: 30 187<306 356> 452 187<322 372>
Fore
339 694 m 0
 520 694 639 555 639 343 c 0
 639 125 520 -13 334 -13 c 0
 147 -13 30 121 30 336 c 0
 30 439 63 538 117 600 c 0
 168 660 250 694 339 694 c 0
334 602 m 0
 260 602 217 508 217 344 c 0
 217 173 258 79 334 79 c 0
 410 79 452 173 452 340 c 0
 452 507 410 602 334 602 c 0
EndSplineSet
EndChar
StartChar: one
Encoding: 49 49 18
Width: 660
Flags: W
HStem: 0 84<536 568> 661 20G<392 440>
VStem: 265 175<159 513>
Fore
440 681 m 1
 440 159 l 2
 440 102 453 91 523 86 c 0
 533 85 543 84 545 84 c 2
 568 82 l 1
 568 0 l 1
 137 0 l 1
 137 82 l 1
 163 84 l 2
 255 91 265 99 265 159 c 2
 265 496 l 2
 265 561 263 562 151 568 c 2
 137 569 l 1
 137 647 l 1
 144 646 149 646 153 646 c 0
 156 646 156 646 225 650 c 0
 268 653 283 656 375 677 c 0
 379 678 386 680 392 681 c 2
 440 681 l 1
EndSplineSet
EndChar
StartChar: two
Encoding: 50 50 19
Width: 660
Flags: W
HStem: 0 140<242 567> 607 87<285 315>
VStem: 41 171<478 496> 394 199<488 509>
Fore
628 217 m 1
 567 0 l 1
 57 0 l 1
 41 112 l 1
 193 212 214 228 272 282 c 0
 351 356 394 436 394 507 c 0
 394 568 352 607 287 607 c 0
 235 607 186 580 186 551 c 0
 186 544 189 536 196 525 c 0
 208 507 212 495 212 478 c 0
 212 436 174 401 129 401 c 0
 78 401 41 440 41 496 c 0
 41 611 156 694 315 694 c 0
 483 694 593 612 593 489 c 0
 593 422 562 368 486 299 c 0
 426 246 366 207 242 140 c 1
 367 140 l 2
 492 140 502 146 547 239 c 1
 628 217 l 1
EndSplineSet
EndChar
StartChar: three
Encoding: 51 51 20
Width: 660
Flags: W
HStem: -13 92<307 326> 324 88<255 278> 602 92<305 331>
VStem: 37 172<153 169> 59 172<498 514> 407 192<508 520> 435 196<194 211>
Fore
239 323 m 1xf2
 239 413 l 1
 256 412 l 1
 267 412 l 2
 304 412 342 419 360 429 c 0
 388 446 407 481 407 518 c 0
 407 569 368 602 307 602 c 0
 264 602 214 577 214 555 c 0
 214 550 216 546 221 536 c 0
 227 526 231 512 231 500 c 0
 231 458 193 426 144 426 c 0
 93 426 59 462 59 514 c 0
 59 618 175 694 331 694 c 0
 488 694 599 618 599 510 c 0xec
 599 450 555 396 486 371 c 1
 579 348 631 290 631 209 c 0
 631 153 599 90 551 55 c 0
 494 12 403 -13 307 -13 c 0
 153 -13 37 58 37 153 c 0
 37 205 74 245 123 245 c 0
 171 245 209 212 209 169 c 0
 209 157 209 156 201 135 c 0
 200 132 199 129 199 127 c 0
 199 102 251 79 307 79 c 0
 386 79 435 125 435 200 c 0
 435 242 417 281 390 300 c 0
 367 316 327 324 276 324 c 0
 266 324 256 324 239 323 c 1xf2
EndSplineSet
EndChar
StartChar: four
Encoding: 52 52 21
Width: 660
Flags: W
HStem: 0 21G<255 591> 170 97<158 342 504 606> 661 20G<346 504>
VStem: 342 162<133 170 267 681>
Fore
504 681 m 1
 504 267 l 1
 649 267 l 1
 606 170 l 1
 504 170 l 1
 504 133 l 2
 504 103 523 87 566 84 c 2
 591 82 l 1
 591 0 l 1
 255 0 l 1
 255 82 l 1
 280 84 l 2
 322 87 342 103 342 133 c 2
 342 170 l 1
 54 170 l 1
 19 242 l 1
 155 408 271 564 346 681 c 1
 504 681 l 1
342 267 m 1
 342 526 l 1
 312 473 286 436 158 267 c 1
 342 267 l 1
EndSplineSet
EndChar
StartChar: five
Encoding: 53 53 22
Width: 660
Flags: W
HStem: -13 87<283 309> 378 97<296 361> 541 140<78 539>
VStem: 78 98<306 541> 420 203<225 243>
Fore
568 724 m 1
 539 541 l 1
 176 541 l 1
 176 422 l 1
 226 457 289 475 361 475 c 0
 515 475 623 379 623 241 c 0
 623 88 498 -13 309 -13 c 0
 154 -13 44 52 44 145 c 0
 44 199 80 236 132 236 c 0
 184 236 223 199 223 151 c 0
 223 144 223 144 219 122 c 0
 218 118 218 114 218 110 c 0
 218 89 247 74 286 74 c 0
 365 74 420 137 420 227 c 0
 420 313 367 378 296 378 c 0
 243 378 186 339 157 284 c 1
 139 290 137 290 78 306 c 1
 78 681 l 1
 321 681 l 2
 440 682 442 682 460 688 c 1
 472 694 478 702 487 724 c 1
 568 724 l 1
EndSplineSet
EndChar
StartChar: six
Encoding: 54 54 23
Width: 660
Flags: W
HStem: -13 92<321 342> 352 97<338 389> 607 87<353 387>
VStem: 34 182<212 322> 452 182<210 228>
Fore
203 392 m 1
 254 430 316 449 389 449 c 0
 532 449 634 355 634 224 c 0
 634 81 517 -13 340 -13 c 0
 142 -13 34 105 34 322 c 0
 34 452 74 559 147 623 c 0
 199 669 274 694 361 694 c 0
 494 694 602 634 602 559 c 0
 602 516 566 482 521 482 c 0
 477 482 443 510 439 551 c 0
 437 573 436 580 430 587 c 0
 420 600 399 607 370 607 c 0
 291 607 232 551 212 456 c 0
 207 436 207 436 203 392 c 1
338 352 m 0
 263 352 216 298 216 212 c 0
 216 128 259 79 333 79 c 0
 408 79 452 130 452 217 c 0
 452 300 408 352 338 352 c 0
EndSplineSet
EndChar
StartChar: seven
Encoding: 55 55 24
Width: 660
Flags: W
HStem: 0 21G<163 367> 558 123<69 495>
Fore
619 681 m 1
 632 578 l 1
 586 541 542 484 487 390 c 0
 403 247 366 132 366 14 c 0
 366 12 366 6 367 0 c 1
 163 0 l 1
 173 155 305 378 495 558 c 1
 247 558 l 2
 158 558 145 549 108 462 c 1
 36 472 l 1
 69 681 l 1
 619 681 l 1
EndSplineSet
KernsSLIF: 44 -106 1 0 46 -105 1 0
EndChar
StartChar: eight
Encoding: 56 56 25
Width: 660
Flags: W
HStem: -13 92<307 341> 602 92<317 357>
VStem: 36 133<178 196> 460 133<514 525> 471 162<166 214>
Fore
498 383 m 1xf0
 592 346 633 294 633 214 c 0xe8
 633 78 507 -13 319 -13 c 0
 147 -13 36 64 36 183 c 0
 36 255 77 307 158 339 c 1
 93 372 63 419 63 486 c 0
 63 531 81 576 115 612 c 0
 166 666 240 694 336 694 c 0
 489 694 593 625 593 523 c 0
 593 464 564 421 498 383 c 1xf0
327 447 m 2
 390 420 l 1
 442 455 460 479 460 516 c 0xf0
 460 568 410 602 335 602 c 0
 270 602 225 573 225 532 c 0
 225 518 233 502 246 490 c 0
 261 477 276 469 327 447 c 2
364 258 m 2
 257 296 l 1
 194 269 169 238 169 185 c 0
 169 118 226 79 323 79 c 0
 415 79 471 112 471 166 c 0xe8
 471 203 438 232 364 258 c 2
EndSplineSet
EndChar
StartChar: nine
Encoding: 57 57 26
Width: 660
Flags: W
HStem: -13 92<288 306> 229 102<278 322> 602 92<320 338>
VStem: 33 174<450 470> 450 186<351 466> 460 176<286 351>
Fore
460 286 m 1xf4
 413 249 350 229 278 229 c 0
 135 229 33 322 33 453 c 0
 33 593 158 694 331 694 c 0
 423 694 504 663 555 608 c 0
 608 552 636 463 636 351 c 0xf8
 636 224 604 133 537 71 c 0
 478 16 395 -13 299 -13 c 0
 166 -13 65 44 65 119 c 0
 65 162 100 196 144 196 c 0
 174 196 202 181 216 156 c 0
 223 144 224 139 232 110 c 0
 237 90 262 79 302 79 c 0
 398 79 460 160 460 286 c 1xf4
330 602 m 0
 254 602 207 551 207 468 c 0
 207 384 252 331 322 331 c 0
 401 331 450 383 450 466 c 0
 450 550 405 602 330 602 c 0
EndSplineSet
EndChar
StartChar: colon
Encoding: 58 58 27
Width: 340
Flags: W
HStem: -13 181<155 173> 335 181<155 173>
Fore
167 168 m 0
 217 168 257 128 257 78 c 0
 257 28 216 -13 166 -13 c 0
 116 -13 76 28 76 79 c 0
 76 128 117 168 167 168 c 0
167 516 m 0
 217 516 257 476 257 426 c 0
 257 376 216 335 166 335 c 0
 116 335 76 376 76 427 c 0
 76 476 117 516 167 516 c 0
EndSplineSet
EndChar
StartChar: semicolon
Encoding: 59 59 28
Width: 340
Flags: W
HStem: 335 181<152 172>
Fore
145 -120 m 1
 97 -69 l 1
 125 -44 139 -26 151 -3 c 1
 103 7 79 34 79 78 c 0
 79 129 117 167 166 167 c 0
 221 167 259 124 259 61 c 0
 259 -5 223 -63 145 -120 c 1
166 516 m 0
 216 516 256 476 256 426 c 0
 256 376 215 335 165 335 c 0
 115 335 75 376 75 427 c 0
 75 476 117 516 166 516 c 0
EndSplineSet
EndChar
StartChar: less
Encoding: 60 60 29
Width: 600
Flags: W
DStem: 49 294 207 350 558 56 558 185 558 643 558 514 49 405 207 350
Fore
207 350 m 1
 558 185 l 1
 558 56 l 1
 49 294 l 1
 49 405 l 1
 558 643 l 1
 558 514 l 1
 207 350 l 1
EndSplineSet
EndChar
StartChar: equal
Encoding: 61 61 30
Width: 600
Flags: W
HStem: 199 117<51 555> 389 117<51 555>
Fore
555 389 m 1
 51 389 l 1
 51 506 l 1
 555 506 l 1
 555 389 l 1
555 199 m 1
 51 199 l 1
 51 316 l 1
 555 316 l 1
 555 199 l 1
EndSplineSet
EndChar
StartChar: greater
Encoding: 62 62 31
Width: 600
Flags: W
DStem: 48 514 48 643 399 350 557 405 399 350 557 294 48 185 48 56
Fore
399 350 m 1
 48 514 l 1
 48 643 l 1
 557 405 l 1
 557 294 l 1
 48 56 l 1
 48 185 l 1
 399 350 l 1
EndSplineSet
EndChar
StartChar: question
Encoding: 63 63 32
Width: 660
Flags: W
HStem: -13 185<346 350> 607 87<316 336>
VStem: 61 170<492 509> 290 102<223 250> 426 182<490 516>
Fore
392 217 m 1
 292 217 l 1
 290 229 290 235 290 250 c 0
 290 323 303 347 377 405 c 0
 410 432 426 462 426 502 c 0
 426 566 384 607 318 607 c 0
 264 607 216 582 216 554 c 0
 216 547 216 547 224 528 c 0
 227 520 231 502 231 492 c 0
 231 448 196 416 148 416 c 0
 94 416 61 451 61 509 c 0
 61 614 179 694 334 694 c 0
 506 694 608 623 608 505 c 0
 608 422 562 359 474 321 c 0
 404 290 392 276 392 225 c 2
 392 217 l 1
346 172 m 0
 398 172 439 131 439 80 c 0
 439 29 397 -13 346 -13 c 0
 295 -13 254 29 254 82 c 0
 254 131 296 172 346 172 c 0
EndSplineSet
EndChar
StartChar: at
Encoding: 64 64 33
Width: 820
Flags: W
HStem: -13 68<426 453> 170 65<341 370> 461 58<409 427> 632 68<426 451>
VStem: 60 73<322 372> 212 113<293 313> 685 73<386 410>
Fore
503 513 m 1
 597 513 l 1
 558 301 l 1
 553 276 553 276 553 267 c 0
 553 253 564 241 577 241 c 0
 588 241 603 248 620 260 c 0
 663 291 685 337 685 396 c 0
 685 530 573 632 426 632 c 0
 258 632 133 511 133 347 c 0
 133 179 257 55 426 55 c 0
 538 55 621 97 681 184 c 1
 751 184 l 1
 680 56 567 -13 426 -13 c 0
 222 -13 60 147 60 346 c 0
 60 449 104 545 180 610 c 0
 245 665 340 700 426 700 c 0
 510 700 603 666 664 613 c 0
 724 561 758 486 758 408 c 0
 758 322 716 249 642 205 c 0
 606 184 563 170 531 170 c 0
 488 170 460 188 451 222 c 1
 423 189 383 170 341 170 c 0
 266 170 212 229 212 311 c 0
 212 423 303 519 409 519 c 0
 442 519 475 508 498 488 c 1
 503 513 l 1
482 440 m 1
 460 455 443 461 427 461 c 0
 373 461 325 382 325 295 c 0
 325 258 342 235 370 235 c 0
 395 235 417 252 437 288 c 0
 454 316 464 351 482 440 c 1
EndSplineSet
EndChar
StartChar: A
Encoding: 65 65 34
Width: 720
Flags: W
HStem: 0 21G<-34 275 398 763> 242 85<258 441> 661 20G<297 452>
DStem: 297 681 334 522 99 206 258 327
Fore
452 681 m 1
 648 193 l 1
 682 104 691 94 747 84 c 2
 763 82 l 1
 763 0 l 1
 398 0 l 1
 398 82 l 1
 423 84 l 2
 464 87 482 96 482 114 c 0
 482 122 478 139 471 157 c 1
 441 242 l 1
 226 242 l 1
 194 156 l 1
 189 145 185 126 185 120 c 0
 185 101 205 91 259 84 c 2
 275 82 l 1
 275 0 l 1
 -34 0 l 1
 -34 82 l 1
 -18 84 l 2
 38 93 61 118 99 206 c 1
 297 681 l 1
 452 681 l 1
258 327 m 1
 408 327 l 1
 334 522 l 1
 258 327 l 1
EndSplineSet
EndChar
StartChar: B
Encoding: 66 66 35
Width: 720
Flags: W
HStem: 0 89<355 420> 586 95<20 389>
VStem: 108 175<141 318 168 536> 493 170<493 510> 511 182<198 212>
Fore
20 681 m 1xe8
 400 681 l 2
 506 681 568 666 608 630 c 0
 643 599 663 555 663 510 c 0xf0
 663 449 627 395 567 366 c 1
 648 340 693 281 693 200 c 0
 693 130 658 67 600 33 c 0
 556 8 513 0 420 0 c 2
 20 0 l 1
 20 82 l 1
 40 84 l 2
 96 90 108 104 108 168 c 2
 108 513 l 2
 108 577 96 591 40 597 c 2
 20 599 l 1
 20 681 l 1xe8
283 410 m 1
 363 410 l 2
 445 410 493 441 493 495 c 0
 493 552 446 586 365 586 c 0
 323 586 294 580 288 569 c 0
 284 563 283 554 283 534 c 2
 283 410 l 1
283 318 m 1
 283 140 l 2
 283 122 285 114 291 107 c 0
 301 96 331 89 370 89 c 0
 458 89 511 134 511 210 c 0xe8
 511 286 468 318 366 318 c 2
 283 318 l 1
EndSplineSet
EndChar
StartChar: C
Encoding: 67 67 36
Width: 740
Flags: W
HStem: -13 92<394 421> 612 82<377 405>
VStem: 35 192<322 356>
Fore
642 241 m 1
 724 199 l 1
 676 71 545 -13 394 -13 c 0
 185 -13 35 135 35 341 c 0
 35 460 84 566 166 629 c 0
 223 672 295 694 377 694 c 0
 436 694 496 681 544 658 c 1
 552 681 l 1
 621 681 l 1
 705 445 l 1
 628 416 l 1
 583 494 569 515 545 541 c 0
 499 588 452 612 403 612 c 0
 295 612 227 508 227 342 c 0
 227 242 253 169 305 123 c 0
 337 95 379 79 419 79 c 0
 469 79 526 103 567 141 c 0
 592 163 613 192 642 241 c 1
EndSplineSet
EndChar
StartChar: D
Encoding: 68 68 37
Width: 780
Flags: W
HStem: 0 90<336 363> 591 90<20 373>
VStem: 108 175<143 540> 556 192<319 353>
Fore
108 168 m 2
 108 513 l 2
 108 577 96 591 40 597 c 2
 20 599 l 1
 20 681 l 1
 338 681 l 2
 507 681 562 666 636 602 c 0
 709 539 748 447 748 338 c 0
 748 248 721 168 669 108 c 0
 601 28 522 0 361 0 c 2
 20 0 l 1
 20 82 l 1
 40 84 l 2
 96 90 108 104 108 168 c 2
283 538 m 2
 283 162 l 2
 283 113 283 110 292 103 c 0
 302 95 324 90 350 90 c 0
 475 90 556 190 556 345 c 0
 556 498 480 591 355 591 c 0
 298 591 283 580 283 538 c 2
EndSplineSet
EndChar
StartChar: E
Encoding: 69 69 38
Width: 720
Flags: W
HStem: 0 90<355 614> 502 20G<414 492> 591 90<20 405>
VStem: 108 175<143 321 168 529>
Fore
492 522 m 1
 492 211 l 1
 414 211 l 1
 408 256 396 289 380 304 c 0
 367 316 346 321 311 321 c 2
 283 321 l 1
 283 203 l 2
 283 137 284 124 288 114 c 0
 295 98 321 90 366 90 c 0
 480 90 567 144 654 269 c 1
 724 236 l 1
 614 0 l 1
 20 0 l 1
 20 82 l 1
 40 84 l 2
 96 90 108 104 108 168 c 2
 108 513 l 2
 108 577 96 591 40 597 c 2
 20 599 l 1
 20 681 l 1
 597 681 l 1
 696 475 l 1
 628 441 l 1
 561 538 477 591 389 591 c 0
 337 591 302 584 292 571 c 0
 284 561 283 551 283 498 c 2
 283 413 l 1
 312 413 l 2
 358 413 375 416 387 425 c 0
 405 439 413 468 414 522 c 1
 492 522 l 1
EndSplineSet
EndChar
StartChar: F
Encoding: 70 70 39
Width: 680
Flags: W
HStem: 0 21G<20 378> 496 20G<414 488> 586 95<20 391>
VStem: 108 175<168 309 168 529>
Fore
686 476 m 1
 617 441 l 1
 539 547 471 586 367 586 c 0
 326 586 301 580 292 568 c 0
 285 558 283 547 283 501 c 2
 283 407 l 1
 312 407 l 2
 361 407 376 411 389 426 c 0
 402 440 409 466 414 516 c 1
 488 516 l 1
 488 192 l 1
 414 192 l 1
 409 250 398 282 380 296 c 0
 365 307 353 309 306 309 c 2
 283 309 l 1
 283 168 l 2
 283 130 286 115 295 105 c 0
 304 94 328 86 351 84 c 2
 378 82 l 1
 378 0 l 1
 20 0 l 1
 20 82 l 1
 40 84 l 2
 96 90 108 104 108 168 c 2
 108 513 l 2
 108 577 96 591 40 597 c 2
 20 599 l 1
 20 681 l 1
 591 681 l 1
 686 476 l 1
EndSplineSet
EndChar
StartChar: G
Encoding: 71 71 40
Width: 780
Flags: W
HStem: -13 97<356 400> 268 82<448 465.931> 597 97<373 394>
VStem: 35 192<322 356> 536 158<182 205>
Fore
448 268 m 1
 448 350 l 1
 773 350 l 1
 773 268 l 1
 757 266 l 2
 705 260 694 246 694 182 c 2
 694 -9 l 1
 585 -9 l 1
 562 49 l 1
 522 27 507 19 494 13 c 0
 455 -3 402 -13 356 -13 c 0
 274 -13 195 16 141 67 c 0
 75 128 35 232 35 340 c 0
 35 547 175 694 373 694 c 0
 431 694 506 676 547 652 c 1
 562 681 l 1
 626 681 l 1
 687 452 l 1
 615 427 l 1
 586 479 569 504 546 527 c 0
 503 571 447 597 392 597 c 0
 293 597 227 489 227 327 c 0
 227 184 298 84 400 84 c 0
 472 84 536 140 536 203 c 0
 536 246 507 267 448 268 c 1
EndSplineSet
EndChar
StartChar: H
Encoding: 72 72 41
Width: 820
Flags: W
HStem: 0 21G<20 371 449 800> 318 97<283 537> 661 20G<20 371 449 800>
VStem: 108 175<168 318 168 529> 537 175<168 318 415 529>
Fore
283 415 m 1
 537 415 l 1
 537 513 l 2
 537 577 525 591 469 597 c 2
 449 599 l 1
 449 681 l 1
 800 681 l 1
 800 599 l 1
 780 597 l 2
 724 591 712 577 712 513 c 2
 712 168 l 2
 712 104 724 90 780 84 c 2
 800 82 l 1
 800 0 l 1
 449 0 l 1
 449 82 l 1
 469 84 l 2
 525 90 537 104 537 168 c 2
 537 318 l 1
 283 318 l 1
 283 168 l 2
 283 104 295 90 351 84 c 2
 371 82 l 1
 371 0 l 1
 20 0 l 1
 20 82 l 1
 40 84 l 2
 96 90 108 104 108 168 c 2
 108 513 l 2
 108 577 96 591 40 597 c 2
 20 599 l 1
 20 681 l 1
 371 681 l 1
 371 599 l 1
 351 597 l 2
 295 591 283 577 283 513 c 2
 283 415 l 1
EndSplineSet
EndChar
StartChar: I
Encoding: 73 73 42
Width: 400
Flags: W
HStem: 0 21G<20 379> 661 20G<20 379>
VStem: 112 175<168 529>
Fore
112 168 m 2
 112 513 l 2
 112 551 109 566 100 576 c 0
 91 587 68 595 44 597 c 2
 20 599 l 1
 20 681 l 1
 379 681 l 1
 379 599 l 1
 355 597 l 2
 331 595 308 587 299 576 c 0
 290 566 287 551 287 513 c 2
 287 168 l 2
 287 130 290 115 299 105 c 0
 308 94 331 86 355 84 c 2
 379 82 l 1
 379 0 l 1
 20 0 l 1
 20 82 l 1
 44 84 l 2
 68 86 91 94 100 105 c 0
 109 115 112 130 112 168 c 2
EndSplineSet
EndChar
StartChar: J
Encoding: 74 74 43
Width: 640
Flags: W
HStem: -13 102<227 255> 661 20G<271 622>
VStem: -12 178<189 227> 359 175<210 532>
Fore
534 513 m 2
 534 241 l 2
 534 141 529 116 499 80 c 0
 453 22 360 -13 255 -13 c 0
 98 -13 -12 71 -12 189 c 0
 -12 256 30 303 89 303 c 0
 133 303 166 271 166 227 c 0
 166 202 159 185 139 162 c 0
 133 155 130 150 130 145 c 0
 130 116 183 89 237 89 c 0
 280 89 319 106 338 133 c 0
 353 154 359 181 359 231 c 2
 359 513 l 2
 359 577 347 591 291 597 c 2
 271 599 l 1
 271 681 l 1
 622 681 l 1
 622 599 l 1
 602 597 l 2
 546 591 534 577 534 513 c 2
EndSplineSet
EndChar
StartChar: K
Encoding: 75 75 44
Width: 800
Flags: W
HStem: 0 21G<20 364 417 796> 661 20G<20 364 417 755>
VStem: 108 175<168 262 168 540>
DStem: 365 333 490 443 468 163 636 214
Fore
490 443 m 1
 636 214 l 2
 705 106 721 93 796 82 c 1
 796 0 l 1
 417 0 l 1
 417 82 l 1
 435 84 l 2
 489 90 496 93 496 110 c 0
 496 117 493 125 484 138 c 0
 477 149 471 159 468 163 c 2
 365 333 l 1
 283 262 l 1
 283 168 l 2
 283 102 290 93 351 84 c 2
 364 82 l 1
 364 0 l 1
 20 0 l 1
 20 82 l 1
 40 84 l 2
 96 90 108 104 108 168 c 2
 108 513 l 2
 108 577 96 591 40 597 c 2
 20 599 l 1
 20 681 l 1
 364 681 l 1
 364 599 l 1
 351 597 l 2
 290 588 283 579 283 513 c 2
 283 378 l 1
 451 538 l 2
 484 569 484 569 484 579 c 0
 484 585 481 589 475 592 c 0
 470 594 441 599 434 599 c 2
 417 599 l 1
 417 681 l 1
 755 681 l 1
 755 599 l 1
 670 588 620 562 531 481 c 2
 490 443 l 1
EndSplineSet
EndChar
StartChar: L
Encoding: 76 76 45
Width: 640
Flags: W
HStem: 0 90<325.182 357> 661 20G<20 371>
VStem: 108 175<143 529>
Fore
668 238 m 1
 564 0 l 1
 20 0 l 1
 20 82 l 1
 40 84 l 2
 96 90 108 104 108 168 c 2
 108 513 l 2
 108 577 96 591 40 597 c 2
 20 599 l 1
 20 681 l 1
 371 681 l 1
 371 599 l 1
 351 597 l 2
 295 591 283 577 283 513 c 2
 283 181 l 2
 283 118 283 118 287 109 c 0
 293 97 314 90 344 90 c 0
 443 90 531 154 599 275 c 1
 668 238 l 1
EndSplineSet
EndChar
StartChar: M
Encoding: 77 77 46
Width: 940
Flags: W
HStem: 0 21G<20 294 378 486 573 924> 661 20G<20 331 611 924>
VStem: 108 98<168 522> 661 175<168 515>
DStem: 206 522 331 681 378 0 469 255 611 681 661 515 469 255 486 0
Fore
331 681 m 1
 469 255 l 1
 611 681 l 1
 924 681 l 1
 924 599 l 1
 904 597 l 2
 848 591 836 577 836 513 c 2
 836 168 l 2
 836 104 848 90 904 84 c 2
 924 82 l 1
 924 0 l 1
 573 0 l 1
 573 82 l 1
 593 84 l 2
 649 90 661 104 661 168 c 2
 661 515 l 1
 486 0 l 1
 378 0 l 1
 206 522 l 1
 206 168 l 2
 206 104 218 90 274 84 c 2
 294 82 l 1
 294 0 l 1
 20 0 l 1
 20 82 l 1
 40 84 l 2
 96 90 108 104 108 168 c 2
 108 513 l 2
 108 577 96 591 40 597 c 2
 20 599 l 1
 20 681 l 1
 331 681 l 1
EndSplineSet
EndChar
StartChar: N
Encoding: 78 78 47
Width: 740
Flags: W
HStem: 0 21G<20 289 512 636> 661 20G<20 315 455 724>
VStem: 108 93<168 526> 543 93<288 528>
DStem: 201 526 315 681 512 0 543 288
Fore
315 681 m 1
 543 288 l 1
 543 513 l 2
 543 577 531 591 475 597 c 2
 455 599 l 1
 455 681 l 1
 724 681 l 1
 724 599 l 1
 704 597 l 2
 648 591 636 577 636 513 c 2
 636 0 l 1
 512 0 l 1
 201 526 l 1
 201 168 l 2
 201 104 213 90 269 84 c 2
 289 82 l 1
 289 0 l 1
 20 0 l 1
 20 82 l 1
 40 84 l 2
 96 90 108 104 108 168 c 2
 108 513 l 2
 108 577 96 591 40 597 c 2
 20 599 l 1
 20 681 l 1
 315 681 l 1
EndSplineSet
EndChar
StartChar: O
Encoding: 79 79 48
Width: 800
Flags: W
HStem: -13 102<386 408> 592 102<390 420>
VStem: 35 192<322 356> 577 192<322 372>
Fore
405 694 m 0
 501 694 587 664 654 608 c 0
 731 543 769 457 769 346 c 0
 769 142 606 -13 392 -13 c 0
 304 -13 234 10 168 59 c 0
 79 126 35 217 35 334 c 0
 35 542 191 694 405 694 c 0
406 592 m 0
 300 592 227 489 227 338 c 0
 227 266 246 194 276 151 c 0
 303 113 351 89 400 89 c 0
 506 89 577 192 577 344 c 0
 577 500 513 592 406 592 c 0
EndSplineSet
EndChar
StartChar: P
Encoding: 80 80 49
Width: 660
Flags: W
HStem: 0 21G<20 371> 276 89<291 378> 589 92<20 357>
VStem: 108 175<168 276 168 529> 466 192<463 497>
Fore
283 276 m 1
 283 168 l 2
 283 104 295 90 351 84 c 2
 371 82 l 1
 371 0 l 1
 20 0 l 1
 20 82 l 1
 40 84 l 2
 96 90 108 104 108 168 c 2
 108 513 l 2
 108 577 96 591 40 597 c 2
 20 599 l 1
 20 681 l 1
 379 681 l 2
 484 681 537 670 580 638 c 1
 630 603 658 544 658 478 c 0
 658 346 561 276 378 276 c 2
 283 276 l 1
283 516 m 2
 283 367 l 1
 299 365 307 365 316 365 c 0
 412 365 466 407 466 480 c 0
 466 545 419 589 351 589 c 0
 321 589 297 582 290 571 c 0
 284 563 283 552 283 516 c 2
EndSplineSet
EndChar
StartChar: Q
Encoding: 81 81 50
Width: 800
Flags: W
HStem: -226 87<362 396> -13 102<391 420> 138 103<413 453> 592 102<406 420>
VStem: 35 192<317 357> 291 73<113 140> 577 192<333 367> 613 162<-15 5>
Fore
591 40 m 1xfd
 524 3 465 -13 391 -13 c 0
 187 -13 35 136 35 335 c 0
 35 543 191 694 406 694 c 0
 615 694 769 549 769 350 c 0xfe
 769 274 746 196 708 142 c 1
 756 93 775 54 775 5 c 0
 775 -127 611 -226 394 -226 c 0
 211 -226 60 -157 60 -73 c 0
 60 -35 93 -3 133 -3 c 0
 156 -3 178 -13 193 -31 c 0
 205 -46 207 -51 213 -78 c 0
 216 -95 224 -106 239 -114 c 0
 265 -130 312 -139 366 -139 c 0
 508 -139 613 -86 613 -15 c 0
 613 4 606 23 591 40 c 1xfd
292 131 m 1
 291 135 291 138 291 140 c 0
 291 194 366 241 453 241 c 0
 481 241 509 237 559 224 c 1
 571 261 577 308 577 355 c 0
 577 498 509 592 406 592 c 0
 361 592 319 575 293 545 c 0
 252 498 227 421 227 339 c 0
 227 253 250 179 292 131 c 1
490 115 m 1
 465 131 441 138 413 138 c 0
 384 138 364 128 364 113 c 0
 364 98 382 89 410 89 c 0
 437 89 467 99 490 115 c 1
EndSplineSet
EndChar
StartChar: R
Encoding: 82 82 51
Width: 780
Flags: W
HStem: 0 21G<20 371 551 783> 588 93<20 389>
VStem: 108 175<168 293 168 544> 502 204<479 501>
DStem: 335 293 539 314 551 0 665 151
Fore
539 314 m 1
 665 151 l 1
 704 99 724 87 783 82 c 1
 783 0 l 1
 551 0 l 1
 335 293 l 1
 283 293 l 1
 283 168 l 2
 283 104 295 90 351 84 c 2
 371 82 l 1
 371 0 l 1
 20 0 l 1
 20 82 l 1
 40 84 l 2
 96 90 108 104 108 168 c 2
 108 513 l 2
 108 577 96 591 40 597 c 2
 20 599 l 1
 20 681 l 1
 409 681 l 2
 504 681 565 671 614 648 c 0
 669 621 706 562 706 499 c 0
 706 407 643 338 539 314 c 1
283 388 m 1
 354 388 l 2
 401 388 429 394 454 408 c 0
 484 424 502 455 502 489 c 0
 502 517 489 546 469 562 c 0
 446 581 417 588 360 588 c 0
 330 588 309 585 296 578 c 0
 285 572 283 567 283 544 c 2
 283 388 l 1
EndSplineSet
EndChar
StartChar: S
Encoding: 83 83 52
Width: 660
Flags: W
HStem: -13 97<340 374> 597 97<284 310>
VStem: 40 155<476 527> 484 155<173 227>
Fore
458 649 m 1
 470 681 l 1
 530 681 l 1
 596 478 l 1
 524 451 l 1
 492 495 479 511 462 529 c 0
 424 570 362 597 305 597 c 0
 241 597 195 568 195 527 c 0
 195 495 222 476 283 462 c 0
 311 456 329 452 332 451 c 2
 423 427 l 2
 507 404 536 394 566 374 c 0
 612 344 639 289 639 227 c 0
 639 89 519 -13 356 -13 c 0
 288 -13 219 7 177 38 c 1
 163 -11 l 1
 104 -11 l 1
 21 244 l 1
 96 269 l 1
 122 222 141 197 168 167 c 1
 218 115 288 84 358 84 c 0
 432 84 484 121 484 173 c 0
 484 210 463 225 388 244 c 2
 289 269 l 2
 171 298 151 305 116 327 c 0
 68 358 40 413 40 476 c 0
 40 603 148 694 298 694 c 0
 356 694 418 676 458 649 c 1
EndSplineSet
EndChar
StartChar: T
Encoding: 84 84 53
Width: 700
Flags: W
HStem: 0 21G<162 533> 588 93<71 250 71 461>
VStem: 260 175<168 561>
Fore
622 681 m 1
 703 474 l 1
 630 445 l 1
 596 502 588 513 565 535 c 0
 528 571 490 590 455 590 c 0
 435 590 435 590 435 555 c 2
 435 168 l 2
 435 129 438 115 447 105 c 0
 456 94 481 85 503 84 c 2
 533 82 l 1
 533 0 l 1
 162 0 l 1
 162 82 l 1
 192 84 l 2
 214 85 239 94 248 105 c 0
 257 115 260 129 260 168 c 2
 260 552 l 2
 260 583 258 588 243 588 c 0
 176 588 106 530 71 445 c 1
 -4 474 l 1
 71 681 l 1
 622 681 l 1
EndSplineSet
EndChar
StartChar: U
Encoding: 85 85 54
Width: 740
Flags: W
HStem: -13 105<371 404> 661 20G<15 366 450 724>
VStem: 103 175<226 532> 538 98<226 532>
Fore
636 513 m 2
 636 251 l 2
 636 138 622 92 575 50 c 0
 531 11 453 -13 371 -13 c 0
 284 -13 201 15 155 59 c 0
 115 98 103 138 103 230 c 2
 103 513 l 2
 103 577 91 591 35 597 c 2
 15 599 l 1
 15 681 l 1
 366 681 l 1
 366 599 l 1
 346 597 l 2
 290 591 278 577 278 513 c 2
 278 249 l 2
 278 188 285 160 308 132 c 0
 330 105 362 92 404 92 c 0
 441 92 474 102 497 120 c 0
 527 144 538 178 538 246 c 2
 538 513 l 2
 538 577 526 591 470 597 c 2
 450 599 l 1
 450 681 l 1
 724 681 l 1
 724 599 l 1
 704 597 l 2
 648 591 636 577 636 513 c 2
EndSplineSet
EndChar
StartChar: V
Encoding: 86 86 55
Width: 720
Flags: W
HStem: 0 21G<291 427> 661 20G<-20 348 447 730>
DStem: 93 518 269 532 291 0 398 181
Fore
398 181 m 1
 520 529 l 1
 524 542 526 551 526 559 c 0
 526 574 518 586 505 590 c 0
 495 593 491 594 464 597 c 2
 447 599 l 1
 447 681 l 1
 730 681 l 1
 730 599 l 1
 718 597 l 2
 666 590 646 571 618 501 c 1
 427 0 l 1
 291 0 l 1
 93 518 l 1
 70 580 59 588 -6 597 c 2
 -20 599 l 1
 -20 681 l 1
 348 681 l 1
 348 599 l 1
 333 597 l 2
 272 589 261 584 261 564 c 0
 261 556 263 547 269 532 c 1
 398 181 l 1
EndSplineSet
EndChar
StartChar: W
Encoding: 87 87 56
Width: 940
Flags: W
HStem: 0 21G<228 357 549 680> 597 84<662 685>
DStem: 409 453 456 311 331 213 357 0 456 311 559 537 549 0 651 206
Fore
651 206 m 1
 748 534 l 1
 749 539 751 551 751 556 c 0
 751 578 734 590 696 594 c 0
 685 596 678 597 675 597 c 2
 662 599 l 1
 662 681 l 1
 963 681 l 1
 963 599 l 1
 947 597 l 2
 880 587 869 576 836 480 c 1
 680 0 l 1
 549 0 l 1
 456 311 l 1
 357 0 l 1
 228 0 l 1
 64 517 l 1
 46 577 26 597 -20 599 c 1
 -20 681 l 1
 281 681 l 1
 281 599 l 1
 252 598 239 589 239 571 c 0
 239 564 241 551 244 540 c 2
 331 213 l 1
 409 453 l 1
 376 544 l 2
 360 587 348 598 312 599 c 1
 312 681 l 1
 624 681 l 1
 624 599 l 1
 600 596 l 2
 566 592 555 585 555 566 c 0
 555 559 557 545 559 537 c 2
 651 206 l 1
EndSplineSet
EndChar
StartChar: X
Encoding: 88 88 57
Width: 780
Flags: W
HStem: 0 21G<1 311 379 770> 661 20G<20 392 433 746>
Fore
415 446 m 1
 488 549 l 2
 495 559 501 572 501 577 c 0
 501 590 481 599 449 599 c 2
 433 599 l 1
 433 681 l 1
 746 681 l 1
 746 599 l 1
 675 589 623 557 570 489 c 2
 472 365 l 1
 607 189 l 1
 671 111 697 91 745 84 c 1
 770 82 l 1
 770 0 l 1
 379 0 l 1
 379 82 l 1
 399 84 l 2
 433 88 446 93 446 104 c 0
 446 109 442 119 434 129 c 1
 334 270 l 1
 248 146 l 1
 235 126 232 120 232 113 c 0
 232 97 252 87 286 84 c 2
 311 82 l 1
 311 0 l 1
 1 0 l 1
 1 82 l 1
 44 85 92 114 124 156 c 1
 276 343 l 1
 158 500 l 1
 99 582 85 593 20 599 c 1
 20 681 l 1
 392 681 l 1
 392 599 l 1
 339 597 331 594 331 577 c 0
 331 570 335 560 341 551 c 2
 415 446 l 1
EndSplineSet
EndChar
StartChar: Y
Encoding: 89 89 58
Width: 700
Flags: W
HStem: 0 21G<159 526> 599 82<-20 360 412 440.156>
VStem: 255 175<168 276>
DStem: 458 519 559 488 380 390 430 288
Fore
430 288 m 1
 430 168 l 2
 430 129 433 115 442 105 c 0
 451 94 475 86 498 84 c 2
 526 82 l 1
 526 0 l 1
 159 0 l 1
 159 82 l 1
 187 84 l 2
 210 86 234 94 243 105 c 0
 252 115 255 130 255 168 c 2
 255 276 l 1
 115 495 l 1
 69 570 40 593 -20 599 c 1
 -20 681 l 1
 360 681 l 1
 360 599 l 1
 303 598 282 592 282 575 c 0
 282 569 282 569 298 539 c 2
 380 390 l 1
 458 519 l 2
 479 554 486 568 486 577 c 0
 486 593 470 598 412 599 c 1
 412 681 l 1
 718 681 l 1
 718 599 l 1
 649 595 611 569 559 488 c 2
 430 288 l 1
EndSplineSet
EndChar
StartChar: Z
Encoding: 90 90 59
Width: 640
Flags: W
HStem: 0 87<277 546> 594 87<105 343>
DStem: 387 590 605 617 6 65 227 94
Fore
588 681 m 1
 605 617 l 1
 227 94 l 1
 257 89 274 87 298 87 c 0
 374 87 444 109 489 149 c 0
 522 177 542 207 561 258 c 1
 635 234 l 1
 546 0 l 1
 22 0 l 1
 6 65 l 1
 387 590 l 1
 354 593 341 594 327 594 c 0
 215 594 129 539 75 434 c 1
 6 463 l 1
 105 681 l 1
 588 681 l 1
EndSplineSet
EndChar
StartChar: bracketleft
Encoding: 91 91 60
Width: 300
Flags: W
HStem: -138 78<250 285> 642 78<75 284>
VStem: 75 138<-138 599> 75 210<-138 -60 -138 720>
Fore
75 -138 m 1xe0
 75 720 l 1
 285 720 l 1
 285 642 l 1xd0
 256 642 l 2
 222 642 213 632 213 595 c 2
 213 -13 l 2xe0
 213 -50 222 -60 256 -60 c 2
 285 -60 l 1
 285 -138 l 1xd0
 75 -138 l 1xe0
EndSplineSet
EndChar
StartChar: backslash
Encoding: 92 92 61
Width: 600
Flags: W
HStem: 0 21G<421 555>
DStem: 50 725 184 725 421 0 555 0
Fore
50 725 m 1
 184 725 l 1
 555 0 l 1
 421 0 l 1
 50 725 l 1
EndSplineSet
EndChar
StartChar: bracketright
Encoding: 93 93 62
Width: 300
Flags: W
HStem: -138 78<21 231>
VStem: 21 210<-138 720> 94 137<-27 720>
Fore
231 -138 m 1xc0
 21 -138 l 1
 21 -60 l 1xc0
 50 -60 l 2
 85 -60 94 -50 94 -13 c 2
 94 595 l 2xa0
 94 632 85 642 50 642 c 2
 21 642 l 1
 21 720 l 1
 231 720 l 1
 231 -138 l 1xc0
EndSplineSet
EndChar
StartChar: asciicircum
Encoding: 94 94 63
Width: 600
Flags: W
DStem: 261 722 304 568 52 318 171 318 304 568 346 722 435 318 554 318
Fore
554 318 m 1
 435 318 l 1
 304 568 l 1
 171 318 l 1
 52 318 l 1
 261 722 l 1
 346 722 l 1
 554 318 l 1
EndSplineSet
EndChar
StartChar: underscore
Encoding: 95 95 64
Width: 500
Flags: W
HStem: -155 60<0 500>
Fore
0 -95 m 1
 500 -95 l 1
 500 -155 l 1
 0 -155 l 1
 0 -95 l 1
EndSplineSet
EndChar
StartChar: quoteleft
Encoding: 96 8216 65
Width: 320
Flags: W
Fore
183 694 m 1
 226 649 l 1
 202 628 188 611 177 590 c 1
 220 582 242 556 242 517 c 0
 242 472 208 438 164 438 c 0
 115 438 82 477 82 533 c 0
 82 592 120 653 183 694 c 1
EndSplineSet
KernsSLIF: 225 -168 1 0
EndChar
StartChar: a
Encoding: 97 97 66
Width: 580
Flags: W
HStem: -9 102<461 507> 419 92<251 270>
VStem: 28 170<128 149> 46 151<363 377> 324 162<134 367>
Fore
532 110 m 1xd8
 588 42 l 1
 543 6 506 -9 461 -9 c 0
 415 -9 370 11 346 42 c 1
 296 8 243 -9 187 -9 c 0
 92 -9 28 46 28 128 c 0xe8
 28 204 78 257 178 287 c 0
 221 300 269 309 324 314 c 1
 324 365 l 2
 324 401 304 419 261 419 c 0
 240 419 218 412 206 401 c 0
 200 396 197 389 197 375 c 0
 197 351 193 337 183 325 c 0
 169 308 144 298 120 298 c 0
 78 298 46 331 46 373 c 0
 46 453 139 511 268 511 c 0
 346 511 413 491 448 457 c 0
 475 431 486 399 486 346 c 2
 486 149 l 1
 487 111 487 111 490 104 c 0
 492 98 500 93 507 93 c 0
 512 93 517 96 525 104 c 0
 528 106 530 108 532 110 c 1xd8
324 134 m 1
 324 234 l 1
 237 218 198 191 198 149 c 0
 198 119 217 99 245 99 c 0
 273 99 298 110 324 134 c 1
EndSplineSet
EndChar
StartChar: b
Encoding: 98 98 67
Width: 600
Flags: W
HStem: -9 102<297 333> 414 97<302 338>
VStem: 54 162<0 376 0 724> 398 170<230 263>
Fore
216 724 m 1
 216 482 l 1
 265 503 300 511 338 511 c 0
 473 511 568 402 568 248 c 0
 568 98 470 -9 333 -9 c 0
 283 -9 256 -1 190 32 c 1
 172 0 l 1
 54 0 l 1
 54 517 l 2
 54 578 44 592 -5 598 c 2
 -20 600 l 1
 -20 681 l 1
 23 681 97 700 151 724 c 1
 216 724 l 1
216 376 m 1
 216 128 l 1
 237 105 264 93 297 93 c 0
 363 93 398 152 398 261 c 0
 398 360 364 414 302 414 c 0
 268 414 241 402 216 376 c 1
EndSplineSet
EndChar
StartChar: c
Encoding: 99 99 68
Width: 580
Flags: W
HStem: -9 97<298 328> 419 92<305 307>
VStem: 31 178<246 264> 361 166<350 364>
Fore
469 186 m 1
 550 144 l 1
 510 48 417 -9 298 -9 c 0
 140 -9 31 97 31 251 c 0
 31 408 139 511 305 511 c 0
 429 511 527 446 527 364 c 0
 527 317 491 282 444 282 c 0
 401 282 361 315 361 350 c 1
 362 379 l 1
 362 400 335 419 305 419 c 0
 244 419 209 361 209 260 c 0
 209 156 256 88 328 88 c 0
 386 88 433 121 469 186 c 1
EndSplineSet
EndChar
StartChar: d
Encoding: 100 100 69
Width: 640
Flags: W
HStem: -9 105<260 293> 403 108<268 303>
VStem: 31 170<230 264> 383 162<137 374 482 724>
Fore
545 724 m 1
 545 164 l 2
 545 106 551 96 589 88 c 2
 622 81 l 1
 622 0 l 1
 398 0 l 1
 398 38 l 1
 361 6 318 -9 260 -9 c 0
 205 -9 165 4 127 34 c 0
 66 81 31 159 31 245 c 0
 31 396 134 511 268 511 c 0
 308 511 349 501 383 482 c 1
 383 517 l 2
 383 578 374 591 324 598 c 2
 310 600 l 1
 310 681 l 1
 360 685 432 702 492 724 c 1
 545 724 l 1
383 138 m 1
 383 374 l 1
 360 393 333 403 303 403 c 0
 241 403 201 340 201 243 c 0
 201 157 239 96 293 96 c 0
 325 96 361 112 383 138 c 1
EndSplineSet
EndChar
StartChar: e
Encoding: 101 101 70
Width: 580
Flags: W
HStem: -9 108<303 333> 254 77<218 536> 419 92<286 305>
VStem: 31 181<230 254>
Fore
536 254 m 1
 212 254 l 1
 211 156 255 99 333 99 c 0
 384 99 425 126 464 184 c 1
 548 143 l 1
 523 102 511 86 492 66 c 0
 448 18 379 -9 303 -9 c 0
 145 -9 31 101 31 253 c 0
 31 404 140 511 294 511 c 0
 390 511 471 469 510 400 c 0
 529 366 536 325 536 254 c 1
218 331 m 1
 359 331 l 1
 357 394 338 419 293 419 c 0
 248 419 221 386 218 331 c 1
EndSplineSet
EndChar
StartChar: f
Encoding: 102 102 71
Width: 380
Flags: W
HStem: 0 21G<24 342> 417 85<22 97 259 353> 584 152<327 380> 634 102<296 327>
VStem: 97 162<165 417 502 575>
Fore
22 502 m 1xd8
 97 502 l 1
 97 548 l 2
 97 658 193 736 327 736 c 0
 411 736 461 706 461 654 c 0
 461 615 425 584 380 584 c 0xe8
 354 584 341 592 319 623 c 0
 314 630 305 634 296 634 c 0
 270 634 259 617 259 575 c 2
 259 502 l 1
 353 502 l 1
 353 417 l 1
 259 417 l 1
 259 165 l 2
 259 108 265 98 309 89 c 2
 342 82 l 1
 342 0 l 1
 24 0 l 1
 24 82 l 1
 53 89 l 2
 91 98 97 108 97 165 c 2
 97 417 l 1
 22 417 l 1
 22 502 l 1xd8
EndSplineSet
EndChar
StartChar: g
Encoding: 103 103 72
Width: 580
Flags: W
HStem: -248 82<248 298> 133 82<270 298> 423 92<270 298> 468 125<505 522>
VStem: 9 113<-115 -103> 54 162<311 329> 352 162<311 329>
Fore
253 87 m 2xd6
 411 73 l 2
 513 64 566 18 566 -60 c 0
 566 -118 531 -179 482 -206 c 0
 434 -232 354 -248 269 -248 c 0
 213 -248 150 -240 110 -227 c 0
 45 -206 9 -166 9 -113 c 0xda
 9 -72 31 -44 77 -23 c 1
 43 2 27 29 27 64 c 0
 27 124 64 171 123 185 c 1
 77 220 54 267 54 323 c 0
 54 433 148 515 276 515 c 0xe6
 303 515 323 512 363 503 c 1
 385 533 394 543 407 555 c 0
 432 577 472 593 505 593 c 0
 549 593 583 563 583 525 c 0
 583 494 556 468 522 468 c 0
 516 468 507 470 498 473 c 0
 477 480 476 480 467 480 c 0
 452 480 446 477 436 468 c 1
 491 426 514 382 514 322 c 0
 514 211 422 133 292 133 c 0
 267 133 231 137 208 142 c 0
 202 143 196 144 193 144 c 0
 181 144 172 134 172 122 c 0
 172 99 187 92 253 87 c 2xd6
284 423 m 0xe6
 237 423 216 390 216 315 c 0
 216 246 237 215 284 215 c 0
 330 215 352 246 352 313 c 0
 352 391 332 423 284 423 c 0xe6
332 -78 m 2
 155 -59 l 1
 134 -72 122 -89 122 -108 c 0xca
 122 -141 183 -166 266 -166 c 0
 364 -166 411 -150 411 -118 c 0
 411 -94 394 -85 332 -78 c 2
EndSplineSet
EndChar
StartChar: h
Encoding: 104 104 73
Width: 680
Flags: W
HStem: 0 21G<22 320 355 654> 403 108<370 418>
VStem: 101 162<164 364 164 724> 412 162<164 357>
Fore
263 364 m 1
 263 164 l 2
 263 106 265 103 307 86 c 2
 320 81 l 1
 320 0 l 1
 22 0 l 1
 22 81 l 1
 57 88 l 2
 94 95 101 108 101 164 c 2
 101 517 l 2
 101 556 98 570 88 580 c 0
 81 588 59 596 42 598 c 2
 22 600 l 1
 22 681 l 1
 67 680 135 697 198 724 c 1
 263 724 l 1
 263 466 l 1
 320 498 364 511 418 511 c 0
 463 511 503 496 532 469 c 0
 563 441 574 410 574 354 c 2
 574 164 l 2
 574 108 581 95 618 88 c 2
 654 81 l 1
 654 0 l 1
 355 0 l 1
 355 81 l 1
 368 86 l 2
 410 103 412 106 412 164 c 2
 412 341 l 2
 412 383 398 403 370 403 c 0
 338 403 287 385 263 364 c 1
EndSplineSet
EndChar
StartChar: i
Encoding: 105 105 74
Width: 360
Flags: W
HStem: 0 21G<22 335> 482 20G<198 260> 536 194<165 183>
Fore
260 502 m 1
 260 164 l 2
 260 107 266 97 304 88 c 2
 335 81 l 1
 335 0 l 1
 22 0 l 1
 22 81 l 1
 54 88 l 2
 92 96 98 107 98 164 c 2
 98 308 l 2
 98 369 86 386 43 390 c 2
 22 392 l 1
 22 473 l 1
 198 502 l 1
 260 502 l 1
173 730 m 0
 227 730 268 688 268 635 c 0
 268 581 223 536 169 536 c 0
 116 536 74 579 74 632 c 0
 74 685 120 730 173 730 c 0
EndSplineSet
EndChar
StartChar: j
Encoding: 106 106 75
Width: 340
Flags: W
HStem: -226 97<42 76> 482 20G<213 275> 536 195<177 195>
VStem: 113 162<-61 335>
Fore
275 502 m 1
 275 -13 l 2
 275 -76 268 -106 247 -137 c 0
 209 -194 135 -226 42 -226 c 0
 -43 -226 -94 -194 -94 -142 c 0
 -94 -104 -63 -76 -21 -76 c 0
 6 -76 17 -82 48 -115 c 0
 57 -124 66 -129 76 -129 c 0
 102 -129 113 -108 113 -61 c 2
 113 308 l 2
 113 369 102 385 58 390 c 2
 40 392 l 1
 40 473 l 1
 213 502 l 1
 275 502 l 1
186 731 m 0
 238 731 278 689 278 635 c 0
 278 582 234 536 182 536 c 0
 131 536 90 580 90 633 c 0
 90 686 135 731 186 731 c 0
EndSplineSet
EndChar
StartChar: k
Encoding: 107 107 76
Width: 660
Flags: W
HStem: 0 21G<22 317 338 643> 482 20G<305 594>
VStem: 95 162<164 195 164 724>
Fore
257 304 m 1
 322 374 l 2
 341 395 342 396 342 403 c 0
 342 413 334 419 316 420 c 2
 305 421 l 1
 305 502 l 1
 594 502 l 1
 594 421 l 1
 580 420 l 2
 543 415 528 409 498 387 c 2
 410 322 l 1
 546 132 l 1
 565 104 592 87 625 83 c 2
 643 81 l 1
 643 0 l 1
 338 0 l 1
 338 81 l 1
 349 83 l 2
 362 85 371 92 371 100 c 0
 371 105 368 113 361 124 c 2
 294 228 l 1
 257 195 l 1
 257 164 l 2
 257 134 258 126 265 113 c 0
 272 98 288 87 303 84 c 2
 317 81 l 1
 317 0 l 1
 22 0 l 1
 22 81 l 1
 51 88 l 2
 89 97 95 107 95 164 c 2
 95 517 l 2
 95 578 86 591 36 598 c 2
 22 600 l 1
 22 681 l 1
 66 681 138 700 192 724 c 1
 257 724 l 1
 257 304 l 1
EndSplineSet
EndChar
StartChar: l
Encoding: 108 108 77
Width: 340
Flags: W
HStem: 0 21G<9 322>
VStem: 85 162<164 545>
Fore
247 724 m 1
 247 164 l 2
 247 107 253 97 291 88 c 2
 322 81 l 1
 322 0 l 1
 9 0 l 1
 9 81 l 1
 41 88 l 2
 79 96 85 107 85 164 c 2
 85 517 l 2
 85 556 82 570 72 580 c 0
 64 588 45 596 26 598 c 2
 9 600 l 1
 9 681 l 1
 76 687 119 697 181 724 c 1
 247 724 l 1
EndSplineSet
EndChar
StartChar: m
Encoding: 109 109 78
Width: 1000
Flags: W
HStem: 0 21G<22 323 358 644 679 980> 409 102<376 422>
VStem: 99 162<164 321> 420 162<164 368> 741 162<164 358>
CounterMasks: 1 00
Fore
261 368 m 1
 261 164 l 2
 261 107 267 97 305 86 c 2
 323 81 l 1
 323 0 l 1
 22 0 l 1
 22 81 l 1
 55 88 l 2
 92 96 99 107 99 164 c 2
 99 308 l 2
 99 368 87 386 44 390 c 2
 22 392 l 1
 22 473 l 1
 182 502 l 1
 244 502 l 1
 244 465 l 1
 295 495 355 511 422 511 c 0
 475 511 521 493 557 459 c 1
 613 493 677 511 743 511 c 0
 800 511 842 494 873 459 c 0
 896 432 903 408 903 358 c 2
 903 164 l 2
 903 107 910 96 947 88 c 2
 980 81 l 1
 980 0 l 1
 679 0 l 1
 679 81 l 1
 697 86 l 2
 735 97 741 107 741 164 c 2
 741 346 l 2
 741 381 720 403 686 403 c 0
 660 403 614 388 582 368 c 1
 582 164 l 2
 582 107 588 97 626 86 c 2
 644 81 l 1
 644 0 l 1
 358 0 l 1
 358 81 l 1
 376 86 l 2
 414 97 420 107 420 164 c 2
 420 350 l 2
 420 391 407 409 376 409 c 0
 345 409 299 393 261 368 c 1
EndSplineSet
EndChar
StartChar: n
Encoding: 110 110 79
Width: 680
Flags: W
HStem: 0 21G<22 319 354 652> 403 108<371 422>
VStem: 95 162<164 321> 416 162<164 354>
Fore
240 502 m 1
 240 459 l 1
 305 495 359 511 422 511 c 0
 476 511 511 497 541 464 c 0
 569 434 578 406 578 352 c 2
 578 164 l 2
 578 107 584 97 622 88 c 2
 652 81 l 1
 652 0 l 1
 354 0 l 1
 354 81 l 1
 372 86 l 2
 410 97 416 107 416 164 c 2
 416 339 l 2
 416 381 401 403 371 403 c 0
 341 403 297 386 257 359 c 1
 257 164 l 2
 257 107 263 97 301 86 c 2
 319 81 l 1
 319 0 l 1
 22 0 l 1
 22 81 l 1
 51 88 l 2
 89 97 95 107 95 164 c 2
 95 308 l 2
 95 369 84 385 40 390 c 2
 22 392 l 1
 22 473 l 1
 178 502 l 1
 240 502 l 1
EndSplineSet
EndChar
StartChar: o
Encoding: 111 111 80
Width: 620
Flags: W
HStem: -9 97<301 320> 409 102<301 320>
VStem: 31 182<242 264> 403 182<230 264>
Fore
303 511 m 0
 475 511 585 409 585 248 c 0
 585 92 476 -9 308 -9 c 0
 138 -9 31 94 31 258 c 0
 31 409 141 511 303 511 c 0
309 409 m 0
 245 409 213 354 213 246 c 0
 213 142 246 88 309 88 c 0
 370 88 403 142 403 244 c 0
 403 354 372 409 309 409 c 0
EndSplineSet
EndChar
StartChar: p
Encoding: 112 112 81
Width: 640
Flags: W
HStem: -9 102<334 377> 414 97<344 374>
VStem: 95 162<-49 19 -49 373> 441 170<234 268>
Fore
240 502 m 1
 240 473 l 1
 303 503 331 511 374 511 c 0
 507 511 611 401 611 259 c 0
 611 105 512 -9 377 -9 c 0
 341 -9 316 -4 268 15 c 2
 257 19 l 1
 257 -49 l 2
 257 -106 263 -116 301 -125 c 2
 330 -132 l 1
 330 -213 l 1
 22 -213 l 1
 22 -132 l 1
 51 -125 l 2
 89 -116 95 -106 95 -49 c 2
 95 308 l 2
 95 369 84 385 40 390 c 2
 22 392 l 1
 22 473 l 1
 178 502 l 1
 240 502 l 1
257 373 m 1
 257 124 l 1
 277 106 308 93 334 93 c 0
 402 93 441 155 441 262 c 0
 441 355 404 414 344 414 c 0
 313 414 279 398 257 373 c 1
EndSplineSet
EndChar
StartChar: q
Encoding: 113 113 82
Width: 620
Flags: W
HStem: -9 97<273 303> 409 102<272 308>
VStem: 31 170<234 268> 391 162<-49 24 116 502>
Fore
419 468 m 1
 438 502 l 1
 553 502 l 1
 553 -49 l 2
 553 -107 559 -118 597 -125 c 2
 633 -132 l 1
 633 -213 l 1
 311 -213 l 1
 311 -132 l 1
 347 -125 l 2
 384 -118 391 -106 391 -49 c 2
 391 24 l 1
 368 4 323 -9 273 -9 c 0
 132 -9 31 99 31 251 c 0
 31 405 129 511 272 511 c 0
 326 511 375 496 419 468 c 1
391 117 m 1
 391 377 l 1
 365 399 338 409 308 409 c 0
 238 409 201 352 201 246 c 0
 201 205 208 170 221 140 c 0
 238 104 263 88 303 88 c 0
 328 88 363 99 391 117 c 1
EndSplineSet
EndChar
StartChar: r
Encoding: 114 114 83
Width: 460
Flags: W
HStem: 0 21G<22 330> 343 168<370 385>
VStem: 95 162<164 321>
Fore
240 502 m 1
 240 453 l 1
 306 500 331 511 372 511 c 0
 423 511 462 471 462 419 c 0
 462 375 428 343 383 343 c 0
 364 343 350 347 332 359 c 0
 309 374 309 374 297 374 c 0
 281 374 271 370 257 358 c 1
 257 164 l 2
 257 107 263 97 301 88 c 2
 330 81 l 1
 330 0 l 1
 22 0 l 1
 22 81 l 1
 51 88 l 2
 89 97 95 107 95 164 c 2
 95 308 l 2
 95 369 84 385 40 390 c 2
 22 392 l 1
 22 473 l 1
 178 502 l 1
 240 502 l 1
EndSplineSet
EndChar
StartChar: s
Encoding: 115 115 84
Width: 520
Flags: W
HStem: -9 102<243 273> 419 92<229 257>
VStem: 30 145<337 380> 342 150<135 171>
Fore
437 502 m 1
 456 354 l 1
 374 342 l 1
 336 394 295 419 244 419 c 0
 204 419 175 402 175 380 c 0
 175 358 197 345 253 335 c 2
 328 321 l 2
 403 307 424 298 451 271 c 1
 478 246 492 210 492 171 c 0
 492 70 395 -9 271 -9 c 0
 224 -9 191 -2 140 21 c 1
 128 -4 l 1
 62 -4 l 1
 22 165 l 1
 99 181 l 1
 124 153 132 143 144 133 c 0
 172 108 215 93 255 93 c 0
 304 93 342 112 342 135 c 0
 342 159 316 172 254 181 c 2
 190 189 l 2
 86 203 30 255 30 337 c 0
 30 438 116 511 234 511 c 0
 280 511 310 503 362 478 c 1
 374 502 l 1
 437 502 l 1
EndSplineSet
EndChar
StartChar: t
Encoding: 116 116 85
Width: 460
Flags: W
HStem: -9 116<234 296> 417 85<260 397>
VStem: 98 162<150 412>
Fore
397 417 m 1
 260 417 l 1
 260 175 l 2
 260 123 269 107 296 107 c 0
 321 107 341 119 385 162 c 1
 445 91 l 1
 387 21 324 -9 234 -9 c 0
 176 -9 136 11 114 50 c 0
 102 74 98 98 98 159 c 2
 98 412 l 1
 22 412 l 1
 22 491 l 1
 109 503 156 558 166 661 c 1
 260 661 l 1
 260 502 l 1
 397 502 l 1
 397 417 l 1
EndSplineSet
EndChar
StartChar: u
Encoding: 117 117 86
Width: 660
Flags: W
HStem: -13 113<258 307> 482 20G<195 257 516 578>
VStem: 95 162<146 324> 416 162<137 324>
Fore
578 502 m 1
 578 164 l 2
 578 107 584 97 622 88 c 2
 653 81 l 1
 653 0 l 1
 433 0 l 1
 433 39 l 1
 366 0 323 -13 258 -13 c 0
 210 -13 170 0 141 24 c 0
 106 55 95 89 95 169 c 2
 95 308 l 2
 95 369 84 385 40 390 c 2
 22 392 l 1
 22 473 l 1
 195 502 l 1
 257 502 l 1
 257 172 l 2
 257 114 267 100 307 100 c 0
 339 100 369 110 416 138 c 1
 416 308 l 2
 416 369 405 385 361 390 c 2
 343 392 l 1
 343 473 l 1
 516 502 l 1
 578 502 l 1
EndSplineSet
EndChar
StartChar: v
Encoding: 118 118 87
Width: 600
Flags: W
HStem: 0 21G<236 337> 482 20G<-6 298 337 593>
Fore
593 502 m 1
 593 421 l 1
 523 388 518 383 480 304 c 1
 337 0 l 1
 236 0 l 1
 81 333 l 2
 48 404 47 405 -6 421 c 1
 -6 502 l 1
 298 502 l 1
 298 421 l 1
 260 418 241 407 241 387 c 0
 241 383 243 377 248 365 c 0
 250 360 252 356 252 354 c 1
 317 187 l 1
 378 347 l 1
 389 378 390 381 390 388 c 0
 390 403 375 412 337 421 c 1
 337 502 l 1
 593 502 l 1
EndSplineSet
EndChar
StartChar: w
Encoding: 119 119 88
Width: 800
Flags: W
HStem: 0 21G<207 323 472 593> 482 20G<-6 263 286 548 571 810>
DStem: 72 333 213 364 207 0 286 177 343 358 398 215 286 177 323 0 398 215 497 364 472 0 557 189 623 364 722 338 557 189 593 0
Fore
557 189 m 1
 623 364 l 2
 625 370 626 376 626 381 c 0
 626 398 611 411 583 418 c 2
 571 421 l 1
 571 502 l 1
 810 502 l 1
 810 421 l 1
 799 419 l 2
 763 413 741 391 722 338 c 1
 593 0 l 1
 472 0 l 1
 398 215 l 1
 323 0 l 1
 207 0 l 1
 72 333 l 1
 52 390 44 401 5 417 c 2
 -6 421 l 1
 -6 502 l 1
 263 502 l 1
 263 421 l 1
 250 419 l 2
 225 414 209 400 209 382 c 0
 209 378 211 370 213 364 c 2
 286 177 l 1
 343 358 l 1
 339 369 l 2
 324 408 323 409 297 418 c 2
 286 421 l 1
 286 502 l 1
 548 502 l 1
 548 421 l 1
 533 419 l 2
 505 414 493 404 493 385 c 0
 493 379 494 372 497 364 c 2
 557 189 l 1
EndSplineSet
EndChar
StartChar: x
Encoding: 120 120 89
Width: 600
Flags: W
HStem: 0 21G<8 253 281 591> 482 20G<29 317 344 584>
Fore
584 502 m 1
 584 421 l 1
 528 409 506 397 444 341 c 0
 437 335 431 330 429 328 c 2
 369 275 l 1
 462 155 l 2
 499 108 521 96 591 81 c 1
 591 0 l 1
 281 0 l 1
 281 81 l 1
 311 87 321 92 321 101 c 0
 321 107 316 118 306 131 c 2
 266 185 l 1
 218 131 l 2
 205 117 202 111 202 103 c 0
 202 91 219 84 253 81 c 1
 253 0 l 1
 8 0 l 1
 8 81 l 1
 36 89 45 93 64 106 c 0
 70 111 95 137 137 182 c 2
 209 260 l 1
 147 344 l 1
 110 400 91 413 29 421 c 1
 29 502 l 1
 317 502 l 1
 317 421 l 1
 291 419 277 413 277 402 c 0
 277 398 280 392 287 383 c 2
 319 341 l 1
 362 382 l 2
 373 392 377 399 377 407 c 0
 377 415 368 419 344 421 c 1
 344 502 l 1
 584 502 l 1
EndSplineSet
EndChar
StartChar: y
Encoding: 121 121 90
Width: 620
Flags: W
HStem: -221 170<96 125> 420 82<6 317 346 375>
DStem: 93 346 255 375 244 5 329 187
Fore
329 187 m 1
 400 373 l 1
 403 379 404 386 404 392 c 0
 404 411 389 420 358 420 c 2
 346 420 l 1
 346 502 l 1
 613 502 l 1
 613 420 l 1
 601 418 l 2
 549 405 532 389 501 324 c 1
 329 -47 l 2
 298 -114 292 -126 270 -152 c 0
 235 -195 180 -221 125 -221 c 0
 61 -221 17 -185 17 -133 c 0
 17 -86 51 -51 96 -51 c 0
 121 -51 139 -59 162 -80 c 0
 167 -85 172 -88 176 -88 c 0
 188 -88 223 -41 244 5 c 1
 93 346 l 1
 69 402 60 411 22 418 c 2
 6 420 l 1
 6 502 l 1
 317 502 l 1
 317 420 l 1
 306 420 l 2
 267 420 251 413 251 395 c 0
 251 389 253 382 255 375 c 1
 329 187 l 1
EndSplineSet
EndChar
StartChar: z
Encoding: 122 122 91
Width: 560
Flags: W
HStem: 0 93<261 484> 411 91<100 309>
DStem: 309 410 528 428 22 81 241 95
Fore
547 186 m 1
 484 0 l 1
 47 0 l 1
 22 81 l 1
 309 410 l 1
 293 411 284 411 279 411 c 0
 234 411 190 395 163 368 c 0
 150 355 140 342 120 309 c 1
 40 337 l 1
 100 502 l 1
 496 502 l 1
 528 428 l 1
 241 95 l 1
 255 93 263 93 271 93 c 0
 368 93 423 126 470 213 c 1
 547 186 l 1
EndSplineSet
EndChar
StartChar: braceleft
Encoding: 123 123 92
Width: 320
Flags: W
VStem: 107 98<-14 197 387 593>
Fore
280 -60 m 1
 280 -138 l 1
 248 -140 237 -140 228 -140 c 0
 187 -140 148 -124 129 -98 c 0
 114 -79 107 -51 107 -13 c 2
 107 189 l 2
 107 226 86 245 34 252 c 1
 34 328 l 1
 86 335 107 354 107 391 c 2
 107 593 l 2
 107 631 114 659 129 678 c 0
 149 705 186 720 232 720 c 0
 243 720 254 720 280 718 c 1
 280 640 l 1
 227 634 205 617 205 581 c 2
 205 402 l 2
 205 339 186 311 133 290 c 1
 186 269 205 241 205 178 c 2
 205 -1 l 2
 205 -37 227 -54 280 -60 c 1
EndSplineSet
EndChar
StartChar: bar
Encoding: 124 124 93
Width: 600
Flags: W
HStem: 0 21G<243 362>
VStem: 243 119<0 722>
Fore
362 722 m 1
 362 0 l 1
 243 0 l 1
 243 722 l 1
 362 722 l 1
EndSplineSet
EndChar
StartChar: braceright
Encoding: 125 125 94
Width: 320
Flags: W
VStem: 110 98<-14 197 387 593>
Fore
280 328 m 1
 280 252 l 1
 229 244 208 226 208 189 c 2
 208 -13 l 2
 208 -101 167 -140 75 -140 c 0
 61 -140 51 -139 35 -138 c 1
 35 -60 l 1
 91 -52 110 -37 110 -1 c 2
 110 178 l 2
 110 241 129 269 182 290 c 1
 129 311 110 339 110 402 c 2
 110 581 l 2
 110 617 91 632 35 640 c 1
 35 718 l 1
 60 720 71 720 83 720 c 0
 129 720 166 705 186 678 c 0
 201 659 208 631 208 593 c 2
 208 391 l 2
 208 354 229 336 280 328 c 1
EndSplineSet
EndChar
StartChar: asciitilde
Encoding: 126 126 95
Width: 600
Flags: W
Fore
113 251 m 1
 51 321 l 1
 99 409 139 441 197 441 c 0
 219 441 239 436 271 423 c 2
 336 395 l 2
 362 384 391 377 408 377 c 0
 435 377 462 399 491 443 c 1
 555 372 l 1
 521 303 466 260 413 260 c 0
 389 260 372 265 322 286 c 2
 267 308 l 2
 242 319 220 324 202 324 c 0
 168 324 149 308 113 251 c 1
EndSplineSet
EndChar
StartChar: exclamdown
Encoding: 161 161 96
Width: 360
Flags: W
HStem: 327 185<179 197>
Fore
184 512 m 0
 235 512 276 470 276 417 c 0
 276 368 234 327 183 327 c 0
 133 327 91 368 91 419 c 0
 91 470 133 512 184 512 c 0
143 282 m 1
 225 282 l 1
 234 189 243 129 260 53 c 0
 280 -39 284 -62 284 -96 c 0
 284 -152 240 -196 183 -196 c 0
 123 -196 84 -153 84 -86 c 0
 84 -58 88 -37 108 47 c 0
 130 145 136 186 143 282 c 1
EndSplineSet
EndChar
StartChar: cent
Encoding: 162 162 97
Width: 660
Flags: W
HStem: 473 71<350 369> 473 201<310 358>
VStem: 133 133<335 369> 310 59<16 154 543 674>
Fore
369 674 m 1x70
 369 544 l 1
 454 543 518 498 518 439 c 0
 518 406 491 379 457 379 c 0
 441 379 423 386 411 397 c 0
 398 409 397 411 387 447 c 0
 382 464 370 473 350 473 c 0
 299 473 266 425 266 352 c 0
 266 282 307 236 369 236 c 0
 411 236 449 253 492 290 c 1
 535 255 l 1
 502 203 437 163 369 154 c 1
 369 16 l 1
 310 16 l 1
 310 154 l 1
 200 171 133 246 133 350 c 0
 133 453 198 525 310 544 c 1xb0
 310 674 l 1
 369 674 l 1x70
EndSplineSet
EndChar
StartChar: sterling
Encoding: 163 163 98
Width: 660
Flags: W
HStem: -13 82<136 156> -13 113<501 523> 122 78<137 156> 163 72<514 539> 345 63<63 173 304 482> 616 78<393 411>
VStem: 10 92<96 102> 138 145<482 500> 487 133<539 569> 562 97<115 132>
Fore
503 408 m 1xaf80
 482 345 l 1
 329 345 l 1
 359 294 376 239 376 193 c 0
 376 179 375 169 371 149 c 1
 445 111 479 100 516 100 c 0
 542 100 562 114 562 132 c 0
 562 150 542 163 514 163 c 0
 507 163 507 163 489 160 c 2
 482 160 l 1
 460 216 l 1
 485 229 510 235 539 235 c 0
 607 235 659 183 659 115 c 0
 659 43 597 -13 517 -13 c 0x5f40
 470 -13 454 -6 342 59 c 0
 338 62 333 64 329 66 c 1
 290 18 222 -13 152 -13 c 0
 68 -13 10 32 10 96 c 0
 10 159 62 200 142 200 c 0
 172 200 196 196 227 185 c 1
 216 243 196 301 173 345 c 1
 42 345 l 1
 64 408 l 1
 149 408 l 1
 141 438 138 459 138 484 c 0
 138 545 164 598 213 634 c 0
 264 672 334 694 405 694 c 0
 529 694 620 628 620 539 c 0
 620 486 587 447 542 447 c 0
 503 447 470 476 470 511 c 0
 470 518 472 524 477 536 c 0
 484 553 487 563 487 569 c 0
 487 595 449 616 401 616 c 0
 329 616 283 569 283 496 c 0
 283 470 289 446 304 408 c 1
 503 408 l 1xaf80
217 108 m 1
 193 118 174 122 154 122 c 0
 122 122 102 112 102 96 c 0
 102 80 120 69 146 69 c 0xaf
 176 69 202 83 217 108 c 1
EndSplineSet
EndChar
StartChar: fraction
Encoding: 164 8260 99
Width: 120
Flags: W
HStem: 0 21G<-194 -116> 661 20G<231 312>
DStem: 231 681 312 681 -194 0 -116 0
Fore
312 681 m 1
 -116 0 l 1
 -194 0 l 1
 231 681 l 1
 312 681 l 1
EndSplineSet
EndChar
StartChar: yen
Encoding: 165 165 100
Width: 660
Flags: W
HStem: 0 21G<151 505> 232 63<31 247 415 639> 381 63<31 183 510 639> 599 82<-28 339>
VStem: 247 162<168 232>
Fore
696 681 m 1
 696 599 l 1
 619 596 587 569 510 444 c 1
 639 444 l 1
 639 381 l 1
 468 381 l 1
 415 295 l 1
 639 295 l 1
 639 232 l 1
 409 232 l 1
 409 168 l 2
 409 130 412 115 421 105 c 0
 430 94 454 86 477 84 c 2
 505 82 l 1
 505 0 l 1
 151 0 l 1
 151 82 l 1
 179 84 l 2
 202 86 226 94 235 105 c 0
 244 115 247 130 247 168 c 2
 247 232 l 1
 31 232 l 1
 31 295 l 1
 237 295 l 1
 183 381 l 1
 31 381 l 1
 31 444 l 1
 142 444 l 1
 109 496 l 2
 59 573 34 592 -28 599 c 1
 -28 681 l 1
 339 681 l 1
 339 599 l 1
 280 598 261 592 261 576 c 0
 261 573 266 561 277 540 c 2
 360 389 l 1
 436 519 l 1
 461 560 464 567 464 577 c 0
 464 594 452 597 390 599 c 1
 390 681 l 1
 696 681 l 1
EndSplineSet
EndChar
StartChar: florin
Encoding: 166 402 101
Width: 660
Flags: W
HStem: -203 152<43 80> 409 63<167 268 443 587> 598 151<562 587>
DStem: 268 409 432 409 213 99 383 130
Fore
443 472 m 1
 598 472 l 1
 587 409 l 1
 432 409 l 1
 383 130 l 1
 367 41 342 -49 323 -84 c 0
 284 -157 189 -203 80 -203 c 0
 2 -203 -46 -175 -46 -128 c 0
 -46 -88 -4 -51 43 -51 c 0
 64 -51 85 -62 99 -81 c 0
 114 -103 119 -106 134 -106 c 0
 173 -106 183 -81 213 99 c 1
 268 409 l 1
 157 409 l 1
 168 472 l 1
 279 472 l 1
 292 545 l 1
 307 632 351 688 431 723 c 0
 469 740 515 749 562 749 c 0
 635 749 674 725 674 678 c 0
 674 637 631 598 585 598 c 0
 559 598 547 606 531 636 c 0
 528 643 519 647 510 647 c 0
 484 647 472 631 464 590 c 1
 443 472 l 1
EndSplineSet
EndChar
StartChar: section
Encoding: 167 167 102
Width: 600
Flags: W
HStem: -158 92<275 307> 607 87<290 311>
VStem: 58 140<260 300> 66 145<510 540> 418 142<17 52> 426 133<251 288>
Fore
284 483 m 2xd0
 397 451 l 2
 460 433 488 420 513 397 c 0
 543 371 559 333 559 288 c 0xd4
 559 239 543 205 505 171 c 1
 544 135 560 101 560 52 c 0
 560 0 535 -55 498 -88 c 1
 447 -131 365 -158 278 -158 c 0
 141 -158 36 -92 36 -6 c 0
 36 33 68 61 112 61 c 0
 136 61 159 52 175 37 c 0
 189 23 192 16 197 -14 c 0
 199 -30 205 -40 216 -47 c 0
 234 -59 263 -66 292 -66 c 0
 324 -66 364 -56 387 -41 c 0
 406 -30 418 -8 418 17 c 0
 418 55 399 71 332 86 c 2
 246 106 l 2
 191 118 153 132 122 151 c 0
 83 175 58 217 58 260 c 0xe8
 58 293 69 329 86 352 c 0
 96 366 105 375 129 391 c 1
 83 424 66 455 66 510 c 0
 66 616 168 694 309 694 c 0
 433 694 541 627 541 550 c 0
 541 518 507 489 469 489 c 0
 430 489 395 518 386 558 c 0
 380 584 374 591 353 599 c 0
 340 604 322 607 305 607 c 0
 249 607 211 580 211 540 c 0
 211 523 219 509 234 501 c 0
 245 496 246 495 284 483 c 2xd0
258 250 m 2
 412 209 l 1
 422 225 426 235 426 251 c 0
 426 281 410 297 365 310 c 2
 228 350 l 1
 206 334 198 320 198 300 c 0xe4
 198 274 211 263 258 250 c 2
EndSplineSet
EndChar
StartChar: currency
Encoding: 168 164 103
Width: 660
Flags: W
HStem: 93 125<316 335> 462 126<316 334>
VStem: 83 123<327 345> 455 123<327 345>
Fore
77 156 m 1
 125 204 l 1
 94 254 83 288 83 339 c 0
 83 394 95 432 125 477 c 1
 77 525 l 1
 144 593 l 1
 192 545 l 1
 238 574 282 588 332 588 c 0
 381 588 423 575 469 545 c 1
 517 593 l 1
 583 525 l 1
 535 478 l 1
 566 433 578 393 578 340 c 0
 578 287 566 247 536 204 c 1
 584 156 l 1
 518 88 l 1
 470 136 l 1
 423 106 382 93 331 93 c 0
 279 93 237 106 192 136 c 1
 144 88 l 1
 77 156 l 1
330 462 m 0
 262 462 206 407 206 340 c 0
 206 273 262 218 330 218 c 0
 398 218 455 273 455 339 c 0
 455 407 400 462 330 462 c 0
EndSplineSet
EndChar
StartChar: quotesingle
Encoding: 169 39 104
Width: 240
Flags: W
HStem: 674 20G<91 129.5>
Fore
86 383 m 1
 46 596 l 2
 43 612 42 618 42 625 c 0
 42 664 72 694 110 694 c 0
 149 694 178 664 178 624 c 0
 178 618 177 612 174 596 c 2
 134 383 l 1
 86 383 l 1
EndSplineSet
EndChar
StartChar: quotedblleft
Encoding: 170 8220 105
Width: 540
Flags: W
Fore
390 694 m 1
 433 649 l 1
 409 628 395 611 384 590 c 1
 427 582 449 556 449 517 c 0
 449 472 415 438 371 438 c 0
 322 438 289 476 289 533 c 0
 289 592 327 653 390 694 c 1
183 694 m 1
 226 649 l 1
 203 628 188 611 177 590 c 1
 220 582 242 556 242 517 c 0
 242 472 208 438 164 438 c 0
 115 438 82 476 82 533 c 0
 82 592 120 653 183 694 c 1
EndSplineSet
KernsSLIF: 225 -174 1 0
EndChar
StartChar: guillemotleft
Encoding: 171 171 106
Width: 400
Flags: W
Fore
360 402 m 1
 308 261 l 1
 360 105 l 1
 308 74 l 1
 206 261 l 1
 308 430 l 1
 360 402 l 1
193 402 m 1
 138 261 l 1
 193 102 l 1
 144 71 l 1
 34 253 l 1
 138 429 l 1
 193 402 l 1
EndSplineSet
EndChar
StartChar: guilsinglleft
Encoding: 172 8249 107
Width: 220
Flags: W
Fore
188 402 m 1
 136 261 l 1
 188 105 l 1
 136 74 l 1
 34 261 l 1
 136 430 l 1
 188 402 l 1
EndSplineSet
EndChar
StartChar: guilsinglright
Encoding: 173 8250 108
Width: 220
Flags: W
Fore
34 402 m 1
 86 430 l 1
 188 261 l 1
 86 74 l 1
 34 105 l 1
 86 261 l 1
 34 402 l 1
EndSplineSet
EndChar
StartChar: fi
Encoding: 174 64257 109
Width: 740
Flags: W
HStem: 0 21G<22 341 398 710> 417 85<30 104 266 431> 654 82<357 389>
VStem: 104 162<165 417 502 561> 473 162<165 369>
Fore
266 502 m 1
 635 502 l 1
 635 165 l 2
 635 108 641 97 679 89 c 2
 710 82 l 1
 710 0 l 1
 398 0 l 1
 398 82 l 1
 429 89 l 2
 467 97 473 108 473 165 c 2
 473 322 l 1
 472 393 472 393 462 404 c 0
 450 416 447 417 386 417 c 2
 266 417 l 1
 266 165 l 2
 266 108 272 97 310 89 c 2
 341 82 l 1
 341 0 l 1
 22 0 l 1
 22 82 l 1
 53 89 l 2
 98 99 104 108 104 165 c 2
 104 417 l 1
 30 417 l 1
 30 502 l 1
 104 502 l 1
 104 533 l 2
 104 598 110 624 133 651 c 0
 178 706 269 736 389 736 c 0
 532 736 632 687 632 617 c 0
 632 574 592 542 538 542 c 0
 490 542 464 560 444 604 c 0
 427 643 410 654 365 654 c 0
 321 654 296 643 280 618 c 0
 269 601 266 580 266 522 c 2
 266 502 l 1
EndSplineSet
Ligature: 0 0 'liga' f i
EndChar
StartChar: fl
Encoding: 175 64258 110
Width: 740
Flags: W
HStem: 0 21G<22 334 398 710> 417 85<30 97 259 348> 647 89<349 391>
VStem: 97 162<165 417 502 545> 473 162<165 545>
Fore
30 417 m 1
 30 502 l 1
 97 502 l 1
 97 520 l 2
 97 585 105 615 133 652 c 0
 174 707 263 736 387 736 c 0
 434 736 459 734 635 718 c 1
 635 165 l 2
 635 108 641 97 679 89 c 2
 710 82 l 1
 710 0 l 1
 398 0 l 1
 398 82 l 1
 429 89 l 2
 467 97 473 108 473 165 c 2
 473 502 l 2
 473 560 472 577 465 596 c 0
 453 629 420 647 372 647 c 0
 325 647 292 635 275 612 c 0
 262 592 259 578 259 522 c 2
 259 502 l 1
 348 502 l 1
 348 417 l 1
 259 417 l 1
 259 165 l 2
 259 108 265 97 303 89 c 2
 334 82 l 1
 334 0 l 1
 22 0 l 1
 22 82 l 1
 53 89 l 2
 91 97 97 108 97 165 c 2
 97 417 l 1
 30 417 l 1
EndSplineSet
Ligature: 0 0 'liga' f l
EndChar
StartChar: endash
Encoding: 177 8211 111
Width: 500
Flags: W
HStem: 212 108<23 479>
Fore
525 320 m 1
 479 212 l 1
 -25 212 l 1
 24 320 l 1
 525 320 l 1
EndSplineSet
EndChar
StartChar: dagger
Encoding: 178 8224 112
Width: 440
Flags: W
HStem: 356 108<78 85 343 353> 674 20G<195.5 236.5>
VStem: 193 46<-160 49>
Fore
239 -160 m 1
 193 -160 l 1
 193 8 l 2
 193 127 174 221 137 291 c 1
 164 323 181 349 193 379 c 1
 112 360 l 2
 104 358 91 356 83 356 c 0
 54 356 33 377 33 408 c 0
 33 438 55 464 80 464 c 0
 89 464 95 463 125 456 c 2
 193 439 l 1
 149 607 l 2
 148 611 146 632 146 639 c 0
 146 671 175 694 216 694 c 0
 257 694 286 671 286 639 c 0
 286 631 284 611 283 607 c 2
 239 439 l 1
 307 456 l 2
 309 456 314 457 322 460 c 0
 333 462 344 464 351 464 c 0
 377 464 398 439 398 408 c 0
 398 376 378 357 345 357 c 0
 337 357 329 358 320 360 c 2
 239 379 l 1
 246 359 275 314 295 291 c 1
 253 205 239 132 239 8 c 2
 239 -160 l 1
EndSplineSet
EndChar
StartChar: daggerdbl
Encoding: 179 8225 113
Width: 380
Flags: W
HStem: 78 108<53 60 325 335> 357 108<53 60 325 335> 674 20G<173.5 214.5>
VStem: 124 140<-106 -96 623.103 642>
Fore
302 361 m 2
 220 379 l 1
 221 359 239 315 263 271 c 1
 237 220 227 196 220 164 c 1
 302 182 l 2
 310 184 319 185 327 185 c 0
 360 185 380 165 380 134 c 0
 380 103 359 78 333 78 c 0
 325 78 315 80 304 83 c 0
 296 85 291 86 289 87 c 2
 217 103 l 1
 261 -74 l 2
 262 -79 264 -98 264 -106 c 0
 264 -138 235 -161 194 -161 c 0
 153 -161 124 -138 124 -106 c 0
 124 -99 126 -79 127 -74 c 2
 171 103 l 1
 99 87 l 2
 97 86 91 85 84 83 c 0
 73 80 62 78 55 78 c 0
 29 78 8 103 8 134 c 0
 8 165 28 186 58 186 c 0
 65 186 78 184 86 183 c 2
 167 164 l 1
 165 189 159 205 125 271 c 1
 147 309 164 352 167 379 c 1
 86 361 l 2
 78 359 65 357 58 357 c 0
 28 357 8 378 8 409 c 0
 8 440 29 465 55 465 c 0
 62 465 73 463 84 460 c 0
 91 459 96 457 99 456 c 2
 171 440 l 1
 127 607 l 2
 126 611 124 632 124 639 c 0
 124 671 153 694 194 694 c 0
 235 694 264 671 264 639 c 0
 264 631 262 612 261 607 c 1
 217 440 l 1
 289 456 l 2
 291 457 297 458 304 460 c 0
 315 463 325 465 333 465 c 0
 359 465 380 440 380 409 c 0
 380 377 360 358 327 358 c 0
 319 358 311 359 302 361 c 2
EndSplineSet
EndChar
StartChar: periodcentered
Encoding: 180 183 114
Width: 340
Flags: W
Fore
167 356 m 0
 217 356 257 316 257 266 c 0
 257 216 216 175 166 175 c 0
 116 175 76 216 76 267 c 0
 76 316 117 356 167 356 c 0
EndSplineSet
EndChar
StartChar: paragraph
Encoding: 182 182 115
Width: 800
Flags: W
HStem: -98 85<441 757> 596 85<279 526>
VStem: 293 148<45 596> 526 147<-13 511>
Fore
757 -98 m 1
 209 -98 l 1
 209 -13 l 1
 225 -11 l 2
 268 -6 283 3 289 27 c 0
 293 40 293 46 293 104 c 2
 293 274 l 1
 213 278 163 287 120 306 c 0
 54 335 14 401 14 481 c 0
 14 568 63 638 142 664 c 0
 176 676 220 681 279 681 c 2
 757 681 l 1
 757 596 l 1
 741 594 l 2
 698 589 683 581 676 555 c 0
 675 547 674 521 673 475 c 1
 673 104 l 2
 673 8 680 -5 739 -11 c 2
 757 -13 l 1
 757 -98 l 1
526 596 m 1
 441 596 l 1
 441 -13 l 1
 526 -13 l 1
 526 596 l 1
EndSplineSet
EndChar
StartChar: bullet
Encoding: 183 8226 116
Width: 460
Flags: W
Fore
232 557 m 0
 327 557 404 480 404 386 c 0
 404 289 327 213 230 213 c 0
 137 213 60 291 60 385 c 0
 60 480 137 557 232 557 c 0
EndSplineSet
EndChar
StartChar: quotesinglbase
Encoding: 184 8218 117
Width: 320
Flags: W
Fore
141 -108 m 1
 98 -63 l 1
 122 -42 136 -25 147 -4 c 1
 104 4 82 30 82 69 c 0
 82 114 116 148 160 148 c 0
 209 148 242 109 242 53 c 0
 242 -6 204 -67 141 -108 c 1
EndSplineSet
EndChar
StartChar: quotedblbase
Encoding: 185 8222 118
Width: 540
Flags: W
Fore
141 -108 m 1
 98 -63 l 1
 122 -42 136 -25 147 -4 c 1
 104 4 82 30 82 69 c 0
 82 114 116 148 160 148 c 0
 209 148 242 110 242 53 c 0
 242 -6 204 -67 141 -108 c 1
349 -108 m 1
 306 -63 l 1
 329 -42 344 -25 355 -4 c 1
 312 4 290 30 290 69 c 0
 290 114 324 148 368 148 c 0
 417 148 450 110 450 53 c 0
 450 -6 412 -67 349 -108 c 1
EndSplineSet
EndChar
StartChar: quotedblright
Encoding: 186 8221 119
Width: 540
Flags: W
HStem: 674 20G<138 184.5 345 391.5>
Fore
141 438 m 1
 98 483 l 1
 122 504 136 521 147 542 c 1
 104 550 82 576 82 615 c 0
 82 660 116 694 160 694 c 0
 209 694 242 656 242 599 c 0
 242 540 204 479 141 438 c 1
348 438 m 1
 305 483 l 1
 328 504 343 521 354 542 c 1
 311 550 289 576 289 615 c 0
 289 660 323 694 367 694 c 0
 416 694 449 656 449 599 c 0
 449 540 411 479 348 438 c 1
EndSplineSet
KernsSLIF: 225 -178 1 0
EndChar
StartChar: guillemotright
Encoding: 187 187 120
Width: 400
Flags: W
Fore
34 402 m 1
 86 430 l 1
 188 261 l 1
 86 74 l 1
 34 105 l 1
 86 261 l 1
 34 402 l 1
201 402 m 1
 256 429 l 1
 360 253 l 1
 250 71 l 1
 201 102 l 1
 256 261 l 1
 201 402 l 1
EndSplineSet
EndChar
StartChar: ellipsis
Encoding: 188 8230 121
Width: 1000
Flags: W
HStem: -13 21G<141.5 192 474 524 806.5 857>
VStem: 76 182<66 84> 409 181<66 83> 741 182<66 84>
CounterMasks: 1 00
Fore
168 169 m 0
 218 169 258 129 258 79 c 0
 258 28 217 -13 167 -13 c 0
 116 -13 76 28 76 80 c 0
 76 128 118 169 168 169 c 0
500 168 m 0
 550 168 590 128 590 78 c 0
 590 28 549 -13 499 -13 c 0
 449 -13 409 28 409 79 c 0
 409 128 450 168 500 168 c 0
833 169 m 0
 883 169 923 129 923 79 c 0
 923 28 882 -13 832 -13 c 0
 781 -13 741 28 741 80 c 0
 741 128 783 169 833 169 c 0
EndSplineSet
Ligature: 0 1 'liga' period period period
EndChar
StartChar: perthousand
Encoding: 189 8240 122
Width: 1360
Flags: W
HStem: -8 62<721.77 737 1154 1165> 265 62<193.77 214> 354 62<722.011 737 1147 1159> 627 62<194.011 214>
VStem: 12 123<455 489> 273 123<455 489> 540 123<183 217> 801 123<183 217> 962 123<183 217> 1223 123<183 217>
DStem: 637 681 718 681 212 0 290 0
Fore
207 689 m 0
 321 689 396 605 396 478 c 0
 396 348 321 265 204 265 c 0
 86 265 12 346 12 474 c 0
 12 604 89 689 207 689 c 0
204 627 m 0
 160 627 135 572 135 479 c 0
 135 381 159 327 204 327 c 0
 248 327 273 381 273 477 c 0
 273 572 248 627 204 627 c 0
718 681 m 1
 290 0 l 1
 212 0 l 1
 637 681 l 1
 718 681 l 1
735 416 m 0
 849 416 924 332 924 205 c 0
 924 75 849 -8 732 -8 c 0
 614 -8 540 73 540 201 c 0
 540 331 617 416 735 416 c 0
732 354 m 0
 688 354 663 299 663 206 c 0
 663 108 687 54 732 54 c 0
 776 54 801 108 801 204 c 0
 801 299 776 354 732 354 c 0
1157 416 m 0
 1271 416 1346 332 1346 205 c 0
 1346 75 1271 -8 1154 -8 c 0
 1036 -8 962 73 962 201 c 0
 962 331 1039 416 1157 416 c 0
1154 354 m 0
 1110 354 1085 299 1085 206 c 0
 1085 108 1109 54 1154 54 c 0
 1198 54 1223 108 1223 204 c 0
 1223 299 1198 354 1154 354 c 0
EndSplineSet
EndChar
StartChar: questiondown
Encoding: 191 191 123
Width: 660
Flags: W
HStem: -196 87<334 354> 328 185<323 337>
VStem: 62 182<-21 13> 230 185<411 429> 278 102<248 275> 439 170<-11 6>
Fore
278 281 m 1xec
 378 281 l 1
 380 269 380 263 380 248 c 0
 380 175 367 151 293 93 c 0
 260 66 244 36 244 -4 c 0
 244 -68 286 -109 352 -109 c 0
 406 -109 454 -84 454 -56 c 0
 454 -49 454 -49 446 -30 c 0
 443 -22 439 -4 439 6 c 0
 439 50 474 82 522 82 c 0
 576 82 609 47 609 -11 c 0
 609 -116 491 -196 336 -196 c 0
 164 -196 62 -125 62 -7 c 0
 62 76 108 139 196 177 c 0
 266 208 278 222 278 273 c 2
 278 281 l 1xec
323 513 m 0
 374 513 415 471 415 418 c 0
 415 369 373 328 323 328 c 0
 271 328 230 369 230 420 c 0xd4
 230 471 272 513 323 513 c 0
EndSplineSet
EndChar
StartChar: grave
Encoding: 193 96 124
Width: 400
Flags: W
Fore
307 554 m 1
 148 588 l 2
 96 600 68 627 68 665 c 0
 68 704 101 738 138 738 c 0
 162 738 192 723 222 697 c 2
 327 603 l 1
 307 554 l 1
EndSplineSet
EndChar
StartChar: acute
Encoding: 194 180 125
Width: 400
Flags: W
Fore
88 554 m 1
 68 603 l 1
 173 697 l 2
 204 724 232 738 257 738 c 0
 295 738 327 705 327 665 c 0
 327 627 299 599 247 588 c 2
 88 554 l 1
EndSplineSet
Ligature: 0 1 'liga' space acutecomb
EndChar
StartChar: circumflex
Encoding: 195 710 126
Width: 500
Flags: W
Fore
430 622 m 1
 392 555 l 1
 248 609 l 1
 106 555 l 1
 68 622 l 1
 250 731 l 1
 430 622 l 1
EndSplineSet
EndChar
StartChar: tilde
Encoding: 196 732 127
Width: 480
Flags: W
HStem: 679 20G<167 205>
Fore
371 694 m 1
 421 669 l 1
 400 595 363 564 298 564 c 0
 269 564 261 566 197 587 c 0
 184 591 170 594 159 594 c 0
 143 594 134 588 121 570 c 1
 69 601 l 1
 90 661 139 699 195 699 c 0
 215 699 237 695 264 686 c 0
 308 671 313 670 330 670 c 0
 351 670 360 675 371 694 c 1
EndSplineSet
Ligature: 0 1 'liga' space tildecomb
EndChar
StartChar: macron
Encoding: 197 175 128
Width: 460
Flags: W
HStem: 582 85<68 383>
Fore
383 667 m 1
 383 582 l 1
 68 582 l 1
 68 667 l 1
 383 667 l 1
EndSplineSet
Ligature: 0 1 'liga' space uni0304
EndChar
StartChar: breve
Encoding: 198 728 129
Width: 500
Flags: W
Fore
376 725 m 1
 429 699 l 1
 401 616 326 556 250 556 c 0
 175 556 115 603 68 699 c 1
 118 725 l 1
 153 686 200 664 250 664 c 0
 296 664 340 686 376 725 c 1
EndSplineSet
Ligature: 0 1 'liga' space uni0306
EndChar
StartChar: dotaccent
Encoding: 199 729 130
Width: 320
Flags: W
Fore
163 742 m 0
 214 742 259 696 259 643 c 0
 259 593 216 551 165 551 c 0
 111 551 68 594 68 647 c 0
 68 702 108 742 163 742 c 0
EndSplineSet
Ligature: 0 1 'liga' space uni0307
EndChar
StartChar: dieresis
Encoding: 200 168 131
Width: 500
Flags: W
HStem: 678 20G<117 155.5 351 389.5>
VStem: 68 139<622 631> 302 139<622 631>
Fore
137 698 m 0
 174 698 207 664 207 626 c 0
 207 590 176 559 138 559 c 0
 99 559 68 590 68 629 c 0
 68 669 97 698 137 698 c 0
371 698 m 0
 408 698 441 664 441 626 c 0
 441 590 410 559 372 559 c 0
 333 559 302 590 302 629 c 0
 302 669 331 698 371 698 c 0
EndSplineSet
Ligature: 0 1 'liga' space uni0308
EndChar
StartChar: ring
Encoding: 202 730 132
Width: 340
Flags: W
HStem: 551 65<163 174> 690 65<171 175>
VStem: 68 68<646 656> 207 68<646 657>
Fore
171 755 m 0
 229 755 275 709 275 651 c 0
 275 597 228 551 172 551 c 0
 115 551 68 597 68 653 c 0
 68 709 115 755 171 755 c 0
171 690 m 0
 152 690 136 674 136 654 c 0
 136 633 152 616 171 616 c 0
 191 616 207 633 207 653 c 0
 207 673 191 690 171 690 c 0
EndSplineSet
Ligature: 0 1 'liga' space uni030A
EndChar
StartChar: cedilla
Encoding: 203 184 133
Width: 360
Flags: W
HStem: -213 65<163 172> -75 33<140 204> -75 75<116 149>
VStem: 201 83<-121 -114>
Fore
168 0 m 1xb0
 168 -44 l 1
 190 -42 195 -42 204 -42 c 0
 250 -42 284 -74 284 -117 c 0
 284 -173 235 -213 167 -213 c 0
 110 -213 68 -187 68 -153 c 0
 68 -132 82 -119 102 -119 c 0
 114 -119 120 -122 133 -131 c 0
 149 -144 157 -148 170 -148 c 0
 188 -148 201 -135 201 -116 c 0
 201 -90 179 -75 140 -75 c 0xd0
 133 -75 126 -75 107 -77 c 1
 116 0 l 1
 168 0 l 1xb0
EndSplineSet
Ligature: 0 1 'liga' space uni0327
EndChar
StartChar: hungarumlaut
Encoding: 205 733 134
Width: 440
Flags: W
Fore
68 568 m 1
 92 673 l 2
 104 726 117 741 153 741 c 0
 181 741 203 719 203 690 c 0
 203 672 192 650 175 633 c 2
 92 553 l 1
 68 568 l 1
230 568 m 1
 254 673 l 1
 266 727 279 741 315 741 c 0
 344 741 365 719 365 689 c 0
 365 672 354 649 337 633 c 2
 254 553 l 1
 230 568 l 1
EndSplineSet
Ligature: 0 1 'liga' space uni030B
EndChar
StartChar: ogonek
Encoding: 206 731 135
Width: 320
Flags: W
HStem: -20 20G<110 180>
Fore
110 0 m 1
 180 0 l 1
 156 -20 147 -38 147 -63 c 0
 147 -87 158 -99 179 -99 c 0
 195 -99 206 -94 230 -77 c 1
 246 -107 l 1
 226 -147 189 -170 145 -170 c 0
 98 -170 68 -139 68 -91 c 0
 68 -55 81 -28 110 0 c 1
EndSplineSet
Ligature: 0 1 'liga' space uni0328
EndChar
StartChar: caron
Encoding: 207 711 136
Width: 500
Flags: W
Fore
68 665 m 1
 106 731 l 1
 250 678 l 1
 392 731 l 1
 430 665 l 1
 248 555 l 1
 68 665 l 1
EndSplineSet
EndChar
StartChar: emdash
Encoding: 208 8212 137
Width: 1000
Flags: W
HStem: 212 108<23 979>
Fore
1025 320 m 1
 979 212 l 1
 -25 212 l 1
 24 320 l 1
 1025 320 l 1
EndSplineSet
EndChar
StartChar: AE
Encoding: 225 198 138
Width: 1140
Flags: W
HStem: 0 82<285 312> 0 94<765 1039> 248 85<373 531> 314 99<697 729 729.063 749.807> 597 84<522 799>
VStem: 531 166<143 248 333 533>
DStem: 522 681 531 533 145 193 373 333 522 681 312 248 145 193 238 150
Fore
1149 248 m 1x6c
 1039 0 l 1
 443 0 l 1x6c
 443 82 l 1
 463 84 l 2
 519 90 531 104 531 168 c 2
 531 248 l 1
 312 248 l 1
 238 150 l 2
 227 135 222 125 222 117 c 0
 222 96 252 82 297 82 c 2
 312 82 l 1
 312 0 l 1xac
 -34 0 l 1x4c
 -34 82 l 1
 -19 85 l 2
 56 104 93 128 145 193 c 1
 522 681 l 1
 1020 681 l 1
 1119 488 l 1
 1049 452 l 1
 968 562 901 597 769 597 c 0
 710 597 697 583 697 520 c 2
 697 413 l 1
 709 413 l 1
 728 413 l 2
 802 411 825 440 828 533 c 1
 907 533 l 1
 907 193 l 1
 828 193 l 1
 825 284 801 314 729 314 c 0x9c
 721 314 713 314 697 313 c 1
 697 161 l 2
 697 106 713 94 783 94 c 0
 904 94 981 141 1079 274 c 1
 1149 248 l 1x6c
531 533 m 1
 373 333 l 1
 531 333 l 1
 531 533 l 1
EndSplineSet
EndChar
StartChar: ordfeminine
Encoding: 227 170 139
Width: 400
Flags: W
HStem: 286 57<27 389> 377 68<133 167> 634 60<167 187>
VStem: 27 113<459 472> 40 105<604 615> 217 113<464 515 567 612>
Fore
389 343 m 1xf4
 389 286 l 1
 27 286 l 1
 27 343 l 1
 389 343 l 1xf4
356 455 m 1
 396 411 l 1
 368 388 341 377 310 377 c 0
 280 377 261 384 235 406 c 1
 230 404 l 2
 221 399 213 395 204 391 c 0
 186 383 158 377 133 377 c 0
 71 377 27 411 27 459 c 0xf4
 27 501 59 530 126 550 c 0
 148 556 170 561 217 568 c 1
 217 606 l 2
 217 625 206 634 182 634 c 0
 158 634 144 627 145 615 c 0
 145 588 125 571 91 571 c 0
 62 571 40 588 40 610 c 0xec
 40 659 101 694 185 694 c 0
 236 694 281 682 304 662 c 0
 323 645 330 627 330 595 c 2
 330 472 l 2
 330 452 332 445 339 445 c 0
 342 445 344 446 356 455 c 1
217 465 m 1
 217 515 l 1
 165 507 140 493 140 472 c 0
 140 457 152 445 167 445 c 0
 184 445 203 453 217 465 c 1
EndSplineSet
EndChar
StartChar: Lslash
Encoding: 232 321 140
Width: 640
Flags: W
HStem: 0 90<325.182 357> 661 20G<20 371>
VStem: 108 175<143 257 349 529>
Fore
283 410 m 1
 427 479 l 1
 427 386 l 1
 283 317 l 1
 283 181 l 2
 283 118 283 118 287 109 c 0
 293 97 314 90 344 90 c 0
 443 90 531 154 599 275 c 1
 668 238 l 1
 564 0 l 1
 20 0 l 1
 20 82 l 1
 40 84 l 2
 96 90 108 104 108 168 c 2
 108 257 l 1
 25 215 l 1
 25 308 l 1
 108 349 l 1
 108 513 l 2
 108 577 96 591 40 597 c 2
 20 599 l 1
 20 681 l 1
 371 681 l 1
 371 599 l 1
 351 597 l 2
 295 591 283 577 283 513 c 2
 283 410 l 1
EndSplineSet
EndChar
StartChar: Oslash
Encoding: 233 216 141
Width: 800
Flags: W
HStem: -13 97<386 420> 597 97<393 420>
VStem: 35 182<321 355> 589 182<347 371>
DStem: 198 36 268 7 125 -110 212 -110 472 580 533 536 265 159 320 105 573 779 657 779 521 678 591 654
Fore
125 -110 m 1
 198 36 l 1
 100 89 35 209 35 341 c 0
 35 543 189 694 395 694 c 0
 439 694 485 688 521 678 c 1
 573 779 l 1
 657 779 l 1
 591 654 l 1
 662 611 696 578 726 526 c 0
 755 475 771 412 771 347 c 0
 771 140 620 -13 416 -13 c 0
 359 -13 309 -6 268 7 c 1
 212 -110 l 1
 125 -110 l 1
265 159 m 1
 472 580 l 1
 448 592 430 597 406 597 c 0
 366 597 323 581 296 557 c 0
 247 512 217 428 217 337 c 0
 217 266 234 204 265 159 c 1
533 536 m 1
 320 105 l 1
 347 90 372 84 404 84 c 0
 517 84 589 186 589 347 c 0
 589 427 570 492 533 536 c 1
EndSplineSet
EndChar
StartChar: OE
Encoding: 234 338 142
Width: 1220
Flags: W
HStem: 0 82<834 1108> 313 94<766 804> 500 20G<895 976> 591 90<620 868> 607 87<399 420>
VStem: 35 192<322 372> 596 170<164 348> 596 380<322 520>
Fore
1219 243 m 1xf6
 1108 0 l 1
 620 0 l 1
 620 55 l 1
 545 9 469 -13 390 -13 c 0
 193 -13 35 145 35 344 c 0
 35 542 193 694 401 694 c 0xee
 489 694 565 671 620 626 c 1
 620 681 l 1
 1090 681 l 1
 1188 482 l 1
 1114 446 l 1
 1037 551 960 591 837 591 c 0
 778 591 766 580 766 528 c 2
 766 407 l 1xf6
 780 407 l 2
 867 405 887 424 895 520 c 1
 976 520 l 1
 976 193 l 1xf5
 895 193 l 1
 888 292 870 313 794 313 c 0
 786 313 779 313 766 312 c 1
 766 164 l 2
 766 105 767 102 778 94 c 0
 789 87 812 82 842 82 c 0
 881 82 928 90 962 103 c 0
 1004 119 1041 144 1069 177 c 1
 1137 261 l 1
 1141 267 1145 271 1149 276 c 1
 1219 243 l 1xf6
415 607 m 0
 301 607 227 505 227 346 c 0
 227 268 243 206 277 152 c 0
 308 102 350 79 407 79 c 0
 522 79 596 184 596 348 c 0
 596 505 525 607 415 607 c 0
EndSplineSet
EndChar
StartChar: ordmasculine
Encoding: 235 186 143
Width: 400
Flags: W
HStem: 286 57<19 381> 377 62<192 210> 632 62<192 210>
VStem: 17 123<525 543> 260 123<533 543>
Fore
202 694 m 0
 313 694 383 632 383 533 c 0
 383 437 313 377 201 377 c 0
 86 377 17 437 17 537 c 0
 17 636 85 694 202 694 c 0
201 632 m 0
 158 632 140 603 140 531 c 0
 140 469 160 439 200 439 c 0
 241 439 260 469 260 533 c 0
 260 601 242 632 201 632 c 0
381 343 m 1
 381 286 l 1
 19 286 l 1
 19 343 l 1
 381 343 l 1
EndSplineSet
EndChar
StartChar: ae
Encoding: 241 230 144
Width: 880
Flags: W
HStem: -9 98<209 257> -9 108<604 636> 237 77<515 843> 423 88<267 291 589.173 607>
VStem: 28 170<131 145>
Fore
843 237 m 1xb8
 511 237 l 1
 513 207 516 192 523 173 c 0
 540 127 583 99 636 99 c 0
 690 99 730 125 770 185 c 1
 852 143 l 1
 809 47 718 -9 604 -9 c 0x78
 525 -9 467 15 404 73 c 1
 358 21 288 -9 209 -9 c 0
 99 -9 28 47 28 133 c 0
 28 242 144 305 356 310 c 1
 356 364 353 381 342 397 c 0
 331 414 310 423 281 423 c 0
 258 423 236 416 225 405 c 0
 215 396 215 396 203 354 c 0
 193 321 165 300 129 300 c 0
 85 300 56 329 56 371 c 0
 56 453 150 511 283 511 c 0
 356 511 401 499 449 467 c 1
 499 497 547 511 604 511 c 0
 747 511 845 420 845 288 c 0
 845 276 845 272 843 237 c 1xb8
675 314 m 1
 675 330 l 1
 677 384 646 423 602 423 c 0
 567 423 537 401 526 368 c 0
 521 353 519 343 515 314 c 1
 675 314 l 1
355 224 m 1
 348 224 l 2
 330 224 309 222 289 217 c 0
 231 202 198 174 198 139 c 0
 198 108 221 89 257 89 c 0xb8
 315 89 355 145 355 224 c 1
EndSplineSet
EndChar
StartChar: dotlessi
Encoding: 245 305 145
Width: 360
Flags: W
HStem: 0 21G<22 335> 482 20G<198 260>
Fore
260 502 m 1
 260 164 l 2
 260 107 266 97 304 88 c 2
 335 81 l 1
 335 0 l 1
 22 0 l 1
 22 81 l 1
 54 88 l 2
 92 96 98 107 98 164 c 2
 98 308 l 2
 98 369 86 386 43 390 c 2
 22 392 l 1
 22 473 l 1
 198 502 l 1
 260 502 l 1
EndSplineSet
EndChar
StartChar: lslash
Encoding: 248 322 146
Width: 340
Flags: W
HStem: 0 21G<9 322>
VStem: 85 162<164 311 380 724>
Fore
247 362 m 1
 247 164 l 2
 247 107 253 97 291 88 c 2
 322 81 l 1
 322 0 l 1
 9 0 l 1
 9 81 l 1
 41 88 l 2
 79 96 85 107 85 164 c 2
 85 311 l 1
 9 279 l 1
 9 349 l 1
 85 380 l 1
 85 517 l 2
 85 556 82 570 72 580 c 0
 64 588 45 596 26 598 c 2
 9 600 l 1
 9 681 l 1
 76 687 119 697 181 724 c 1
 247 724 l 1
 247 432 l 1
 322 463 l 1
 322 394 l 1
 247 362 l 1
EndSplineSet
EndChar
StartChar: oslash
Encoding: 249 248 147
Width: 620
Flags: W
HStem: -9 102<300 320> 414 97<300 320>
VStem: 31 182<231 265> 404 182<231 265>
DStem: 366 392 399 323 221 167 259 105 469 546 550 546 432 489 492 458
Fore
550 546 m 1
 492 458 l 1
 553 411 586 339 586 252 c 0
 586 96 476 -9 312 -9 c 0
 262 -9 228 -3 192 11 c 1
 160 -40 l 1
 78 -40 l 1
 130 41 l 1
 66 88 31 164 31 255 c 0
 31 411 137 511 302 511 c 0
 349 511 392 504 432 489 c 1
 469 546 l 1
 550 546 l 1
221 167 m 1
 366 392 l 1
 345 408 330 414 309 414 c 0
 246 414 213 357 213 245 c 0
 213 218 215 202 221 167 c 1
399 323 m 1
 259 105 l 1
 276 96 288 93 306 93 c 0
 372 93 404 144 404 247 c 0
 404 276 403 291 399 323 c 1
EndSplineSet
EndChar
StartChar: oe
Encoding: 250 339 148
Width: 940
Flags: W
HStem: -9 92<286 310> 254 77<577 896> 412 99<286 310> 419 92<651 666>
VStem: 31 170<230 264> 399 168<230 254> 723 175<291 331>
Fore
896 254 m 1xde
 567 254 l 1
 567 241 l 2
 567 155 615 99 689 99 c 0
 743 99 789 128 824 184 c 1
 908 143 l 1
 891 105 875 82 849 59 c 0
 801 17 729 -9 658 -9 c 0
 597 -9 530 13 485 47 c 1
 414 7 359 -9 292 -9 c 0
 138 -9 31 95 31 245 c 0
 31 405 141 511 308 511 c 0xee
 374 511 429 493 485 453 c 1
 537 490 603 511 664 511 c 0
 799 511 898 418 898 291 c 0
 898 283 897 268 896 254 c 1xde
300 412 m 0
 237 412 201 352 201 249 c 0
 201 141 235 83 300 83 c 0
 361 83 399 146 399 247 c 0
 399 348 360 412 300 412 c 0
577 331 m 1
 723 331 l 1
 722 385 695 419 653 419 c 0xde
 626 419 599 401 588 376 c 0
 583 364 580 355 577 331 c 1
EndSplineSet
EndChar
StartChar: germandbls
Encoding: 251 223 149
Width: 660
Flags: W
HStem: -92 78<-4 26> -9 21G<375.5 454.5> 482 20G<20 95> 616 72<354 373>
VStem: 95 162<134 414> 304 170<410 423> 425 138<558 569> 466 178<198 217>
Fore
95 414 m 1xfa
 20 414 l 1
 20 502 l 1
 95 502 l 1
 105 554 118 583 144 612 c 0
 185 658 270 688 363 688 c 0
 478 688 563 634 563 560 c 0xfa
 563 526 547 498 509 469 c 0
 483 449 474 437 474 423 c 0xfc
 474 412 482 405 503 397 c 0
 597 360 644 301 644 217 c 0
 644 98 522 -9 387 -9 c 0
 364 -9 321 -6 285 -1 c 1
 305 75 l 1
 351 78 364 81 388 91 c 0
 436 113 466 156 466 200 c 0xf9
 466 229 454 257 430 281 c 0
 422 290 422 290 345 344 c 0
 319 362 304 387 304 410 c 0xfc
 304 437 318 454 371 489 c 0
 410 516 425 536 425 562 c 0
 425 593 400 616 366 616 c 0
 334 616 299 596 281 567 c 0
 263 539 257 505 257 442 c 2
 257 183 l 2
 257 79 242 23 201 -19 c 0
 160 -63 90 -92 26 -92 c 0
 2 -92 -17 -89 -61 -78 c 1
 -43 -11 l 1
 -34 -12 -26 -12 -23 -13 c 2
 -4 -14 l 2
 21 -14 49 -3 65 12 c 1
 87 35 95 65 95 134 c 2
 95 414 l 1xfa
EndSplineSet
EndChar
StartChar: Adieresis
Encoding: 256 196 150
Width: 720
Flags: W
HStem: 0 21G<-34 275 398 763> 242 85<258 441> 661 20G<297 452> 738 139<252 261 477 495>
VStem: 185 139<799 817> 419 139<799 817>
DStem: 297 681 334 522 99 206 258 327
Fore
254 877 m 0
 291 877 324 843 324 805 c 0
 324 769 293 738 255 738 c 0
 216 738 185 769 185 808 c 0
 185 848 214 877 254 877 c 0
488 877 m 0
 525 877 558 843 558 805 c 0
 558 769 527 738 489 738 c 0
 450 738 419 769 419 808 c 0
 419 848 448 877 488 877 c 0
452 681 m 1
 648 193 l 1
 682 104 691 94 747 84 c 2
 763 82 l 1
 763 0 l 1
 398 0 l 1
 398 82 l 1
 423 84 l 2
 464 87 482 96 482 114 c 0
 482 122 478 139 471 157 c 1
 441 242 l 1
 226 242 l 1
 194 156 l 1
 189 145 185 126 185 120 c 0
 185 101 205 91 259 84 c 2
 275 82 l 1
 275 0 l 1
 -34 0 l 1
 -34 82 l 1
 -18 84 l 2
 38 93 61 118 99 206 c 1
 297 681 l 1
 452 681 l 1
258 327 m 1
 408 327 l 1
 334 522 l 1
 258 327 l 1
EndSplineSet
Ligature: 0 0 'liga' A uni0308
EndChar
StartChar: Aacute
Encoding: 257 193 151
Width: 720
Flags: W
HStem: 0 21G<-34 275 398 763> 242 85<258 441> 661 20G<297 452>
DStem: 297 681 334 522 99 206 258 327
Fore
325 726 m 1
 305 776 l 1
 410 870 l 2
 440 896 469 910 494 910 c 0
 532 910 564 877 564 837 c 0
 564 799 536 772 484 761 c 2
 325 726 l 1
452 681 m 1
 648 193 l 1
 682 104 691 94 747 84 c 2
 763 82 l 1
 763 0 l 1
 398 0 l 1
 398 82 l 1
 423 84 l 2
 464 87 482 96 482 114 c 0
 482 122 478 139 471 157 c 1
 441 242 l 1
 226 242 l 1
 194 156 l 1
 189 145 185 126 185 120 c 0
 185 101 205 91 259 84 c 2
 275 82 l 1
 275 0 l 1
 -34 0 l 1
 -34 82 l 1
 -18 84 l 2
 38 93 61 118 99 206 c 1
 297 681 l 1
 452 681 l 1
258 327 m 1
 408 327 l 1
 334 522 l 1
 258 327 l 1
EndSplineSet
Ligature: 0 0 'liga' A acutecomb
EndChar
StartChar: Agrave
Encoding: 258 192 152
Width: 720
Flags: W
HStem: 0 21G<-34 275 398 763> 242 85<258 441> 661 20G<297 452>
DStem: 297 681 334 522 99 206 258 327
Fore
429 726 m 1
 270 761 l 2
 218 772 190 799 190 837 c 0
 190 876 223 910 260 910 c 0
 284 910 315 895 344 870 c 2
 449 776 l 1
 429 726 l 1
452 681 m 1
 648 193 l 1
 682 104 691 94 747 84 c 2
 763 82 l 1
 763 0 l 1
 398 0 l 1
 398 82 l 1
 423 84 l 2
 464 87 482 96 482 114 c 0
 482 122 478 139 471 157 c 1
 441 242 l 1
 226 242 l 1
 194 156 l 1
 189 145 185 126 185 120 c 0
 185 101 205 91 259 84 c 2
 275 82 l 1
 275 0 l 1
 -34 0 l 1
 -34 82 l 1
 -18 84 l 2
 38 93 61 118 99 206 c 1
 297 681 l 1
 452 681 l 1
258 327 m 1
 408 327 l 1
 334 522 l 1
 258 327 l 1
EndSplineSet
Ligature: 0 0 'liga' A gravecomb
EndChar
StartChar: Acircumflex
Encoding: 259 194 153
Width: 720
Flags: W
HStem: 0 21G<-34 275 398 763> 242 85<258 441> 661 20G<297 452>
DStem: 297 681 334 522 99 206 258 327
Fore
552 794 m 1
 514 728 l 1
 370 781 l 1
 228 728 l 1
 190 794 l 1
 372 904 l 1
 552 794 l 1
452 681 m 1
 648 193 l 1
 682 104 691 94 747 84 c 2
 763 82 l 1
 763 0 l 1
 398 0 l 1
 398 82 l 1
 423 84 l 2
 464 87 482 96 482 114 c 0
 482 122 478 139 471 157 c 1
 441 242 l 1
 226 242 l 1
 194 156 l 1
 189 145 185 126 185 120 c 0
 185 101 205 91 259 84 c 2
 275 82 l 1
 275 0 l 1
 -34 0 l 1
 -34 82 l 1
 -18 84 l 2
 38 93 61 118 99 206 c 1
 297 681 l 1
 452 681 l 1
258 327 m 1
 408 327 l 1
 334 522 l 1
 258 327 l 1
EndSplineSet
Ligature: 0 0 'liga' A uni0302
EndChar
StartChar: Abreve
Encoding: 260 258 154
Width: 720
Flags: W
HStem: 0 21G<-34 275 398 763> 242 85<258 441> 661 20G<297 452> 729 108<372 383>
DStem: 297 681 334 522 99 206 258 327
Fore
498 898 m 1
 551 872 l 1
 523 789 448 729 372 729 c 0
 297 729 237 776 190 872 c 1
 240 898 l 1
 275 859 322 837 372 837 c 0
 418 837 462 858 498 898 c 1
452 681 m 1
 648 193 l 1
 682 104 691 94 747 84 c 2
 763 82 l 1
 763 0 l 1
 398 0 l 1
 398 82 l 1
 423 84 l 2
 464 87 482 96 482 114 c 0
 482 122 478 139 471 157 c 1
 441 242 l 1
 226 242 l 1
 194 156 l 1
 189 145 185 126 185 120 c 0
 185 101 205 91 259 84 c 2
 275 82 l 1
 275 0 l 1
 -34 0 l 1
 -34 82 l 1
 -18 84 l 2
 38 93 61 118 99 206 c 1
 297 681 l 1
 452 681 l 1
258 327 m 1
 408 327 l 1
 334 522 l 1
 258 327 l 1
EndSplineSet
Ligature: 0 0 'liga' A uni0306
EndChar
StartChar: Atilde
Encoding: 261 195 155
Width: 720
Flags: W
HStem: 0 21G<-34 275 398 763> 242 85<258 441> 661 20G<297 452> 748 106<431 463> 779 105<292 328>
DStem: 297 681 334 522 99 206 258 327
Fore
504 878 m 1xf0
 554 853 l 1
 532 779 496 748 431 748 c 0xf0
 402 748 394 750 330 772 c 0
 317 776 302 779 292 779 c 0
 276 779 267 773 254 755 c 1
 202 785 l 1
 223 846 272 884 328 884 c 0xe8
 348 884 370 880 397 870 c 0
 440 855 446 854 463 854 c 0
 484 854 493 859 504 878 c 1xf0
452 681 m 1
 648 193 l 1
 682 104 691 94 747 84 c 2
 763 82 l 1
 763 0 l 1
 398 0 l 1
 398 82 l 1
 423 84 l 2
 464 87 482 96 482 114 c 0
 482 122 478 139 471 157 c 1
 441 242 l 1
 226 242 l 1
 194 156 l 1
 189 145 185 126 185 120 c 0
 185 101 205 91 259 84 c 2
 275 82 l 1
 275 0 l 1
 -34 0 l 1
 -34 82 l 1
 -18 84 l 2
 38 93 61 118 99 206 c 1
 297 681 l 1
 452 681 l 1
258 327 m 1
 408 327 l 1
 334 522 l 1
 258 327 l 1
EndSplineSet
Ligature: 0 0 'liga' A tildecomb
EndChar
StartChar: Aring
Encoding: 262 197 156
Width: 720
Flags: W
HStem: 0 21G<-34 275 398 763> 242 85<258 441> 661 20G<297 452> 720 65<365 374> 859 65<371 375>
VStem: 268 68<815 825> 407 68<815 826>
DStem: 297 681 334 522 99 206 258 327
Fore
371 924 m 0
 429 924 475 878 475 820 c 0
 475 766 428 720 372 720 c 0
 315 720 268 766 268 822 c 0
 268 878 315 924 371 924 c 0
371 859 m 0
 352 859 336 843 336 823 c 0
 336 802 352 785 371 785 c 0
 391 785 407 802 407 822 c 0
 407 842 391 859 371 859 c 0
452 681 m 1
 648 193 l 1
 682 104 691 94 747 84 c 2
 763 82 l 1
 763 0 l 1
 398 0 l 1
 398 82 l 1
 423 84 l 2
 464 87 482 96 482 114 c 0
 482 122 478 139 471 157 c 1
 441 242 l 1
 226 242 l 1
 194 156 l 1
 189 145 185 126 185 120 c 0
 185 101 205 91 259 84 c 2
 275 82 l 1
 275 0 l 1
 -34 0 l 1
 -34 82 l 1
 -18 84 l 2
 38 93 61 118 99 206 c 1
 297 681 l 1
 452 681 l 1
258 327 m 1
 408 327 l 1
 334 522 l 1
 258 327 l 1
EndSplineSet
Ligature: 0 0 'liga' A uni030A
EndChar
StartChar: Aogonek
Encoding: 263 260 157
Width: 720
Flags: W
HStem: -170 71<728 762> -20 20G<398 693> 242 85<258 441> 661 20G<297 452>
VStem: 651 79<-91 -63>
DStem: 297 681 334 522 99 206 258 327
Fore
452 681 m 1
 648 193 l 1
 682 104 691 94 747 84 c 2
 763 82 l 1
 763 0 l 1
 739 -20 730 -38 730 -63 c 0
 730 -87 741 -99 762 -99 c 0
 778 -99 789 -94 813 -77 c 1
 829 -107 l 1
 809 -147 772 -170 728 -170 c 0
 681 -170 651 -139 651 -91 c 0
 651 -54 663 -29 693 0 c 1
 398 0 l 1
 398 82 l 1
 423 84 l 2
 464 87 482 96 482 114 c 0
 482 122 478 139 471 157 c 1
 441 242 l 1
 226 242 l 1
 194 156 l 1
 189 145 185 126 185 120 c 0
 185 101 205 91 259 84 c 2
 275 82 l 1
 275 0 l 1
 -34 0 l 1
 -34 82 l 1
 -18 84 l 2
 38 93 61 118 99 206 c 1
 297 681 l 1
 452 681 l 1
258 327 m 1
 408 327 l 1
 334 522 l 1
 258 327 l 1
EndSplineSet
Ligature: 0 0 'liga' A uni0328
EndChar
StartChar: Ccedilla
Encoding: 264 199 158
Width: 740
Flags: W
HStem: -213 65<377 389> -75 154<357 419> 612 82<378 405>
VStem: 35 192<314 364> 418 83<-121 -114>
Fore
385 -13 m 1
 385 -44 l 1
 408 -42 413 -42 421 -42 c 0
 467 -42 501 -74 501 -117 c 0
 501 -173 452 -213 384 -213 c 0
 327 -213 285 -187 285 -153 c 0
 285 -132 299 -119 319 -119 c 0
 331 -119 337 -122 350 -131 c 0
 366 -144 374 -148 387 -148 c 0
 405 -148 418 -135 418 -116 c 0
 418 -90 396 -75 357 -75 c 0
 350 -75 344 -75 324 -77 c 1
 332 -8 l 1
 145 27 35 155 35 341 c 0
 35 460 84 566 166 629 c 0
 223 672 295 694 378 694 c 0
 436 694 496 681 544 658 c 1
 552 681 l 1
 621 681 l 1
 705 445 l 1
 628 416 l 1
 583 495 570 515 545 541 c 0
 500 588 452 612 403 612 c 0
 295 612 227 508 227 342 c 0
 227 242 253 169 305 123 c 0
 337 95 379 79 419 79 c 0
 469 79 526 103 568 141 c 0
 592 164 614 192 642 241 c 1
 724 199 l 1
 675 68 538 -17 385 -13 c 1
EndSplineSet
Ligature: 0 0 'liga' C uni0327
EndChar
StartChar: Cacute
Encoding: 265 262 159
Width: 740
Flags: W
HStem: -13 92<394 423> 612 82<377 405>
VStem: 35 192<322 356>
Fore
338 726 m 1
 318 776 l 1
 423 870 l 2
 453 896 482 910 507 910 c 0
 545 910 577 877 577 837 c 0
 577 799 549 772 497 761 c 2
 338 726 l 1
642 241 m 1
 724 199 l 1
 676 71 545 -13 394 -13 c 0
 185 -13 35 135 35 341 c 0
 35 460 84 566 166 629 c 0
 223 672 295 694 377 694 c 0
 436 694 496 681 544 658 c 1
 552 681 l 1
 621 681 l 1
 705 445 l 1
 628 416 l 1
 583 494 569 515 545 541 c 0
 499 588 452 612 403 612 c 0
 295 612 227 508 227 342 c 0
 227 242 253 169 305 123 c 0
 337 95 379 79 419 79 c 0
 469 79 526 103 567 141 c 0
 592 163 613 192 642 241 c 1
EndSplineSet
Ligature: 0 0 'liga' C acutecomb
EndChar
StartChar: Ccaron
Encoding: 266 268 160
Width: 740
Flags: W
HStem: -13 92<394 421> 612 82<377 405>
VStem: 35 192<322 356>
Fore
198 837 m 1
 236 904 l 1
 380 850 l 1
 522 904 l 1
 560 837 l 1
 378 727 l 1
 198 837 l 1
642 241 m 1
 724 199 l 1
 676 71 545 -13 394 -13 c 0
 185 -13 35 135 35 341 c 0
 35 460 84 566 166 629 c 0
 223 672 295 694 377 694 c 0
 436 694 496 681 544 658 c 1
 552 681 l 1
 621 681 l 1
 705 445 l 1
 628 416 l 1
 583 494 569 515 545 541 c 0
 499 588 452 612 403 612 c 0
 295 612 227 508 227 342 c 0
 227 242 253 169 305 123 c 0
 337 95 379 79 419 79 c 0
 469 79 526 103 567 141 c 0
 592 163 613 192 642 241 c 1
EndSplineSet
Ligature: 0 0 'liga' C uni030C
EndChar
StartChar: Dcaron
Encoding: 267 270 161
Width: 780
Flags: W
HStem: 0 90<336 363> 591 90<20 373>
VStem: 108 175<143 540> 556 192<319 353>
Fore
208 837 m 1
 246 904 l 1
 390 850 l 1
 532 904 l 1
 570 837 l 1
 388 727 l 1
 208 837 l 1
108 168 m 2
 108 513 l 2
 108 577 96 591 40 597 c 2
 20 599 l 1
 20 681 l 1
 338 681 l 2
 507 681 562 666 636 602 c 0
 709 539 748 447 748 338 c 0
 748 248 721 168 669 108 c 0
 601 28 522 0 361 0 c 2
 20 0 l 1
 20 82 l 1
 40 84 l 2
 96 90 108 104 108 168 c 2
283 538 m 2
 283 162 l 2
 283 113 283 110 292 103 c 0
 302 95 324 90 350 90 c 0
 475 90 556 190 556 345 c 0
 556 498 480 591 355 591 c 0
 298 591 283 580 283 538 c 2
EndSplineSet
LCarets: 0 65535 '    ' 1 0 
Ligature: 0 0 'liga' D uni030C
EndChar
StartChar: Edieresis
Encoding: 268 203 162
Width: 720
Flags: W
HStem: 0 90<355 614> 502 20G<414 492> 591 90<20 405> 738 139<211 229 451 459>
VStem: 108 175<143 321 168 529> 153 139<799 817> 387 139<799 817>
Fore
222 877 m 0xf6
 259 877 292 843 292 805 c 0
 292 769 261 738 223 738 c 0
 184 738 153 769 153 808 c 0
 153 848 182 877 222 877 c 0xf6
456 877 m 0
 493 877 526 843 526 805 c 0
 526 769 495 738 457 738 c 0
 418 738 387 769 387 808 c 0
 387 848 416 877 456 877 c 0
492 522 m 1
 492 211 l 1
 414 211 l 1
 408 256 396 289 380 304 c 0
 367 316 346 321 311 321 c 2
 283 321 l 1
 283 203 l 2
 283 137 284 124 288 114 c 0
 295 98 321 90 366 90 c 0
 480 90 567 144 654 269 c 1
 724 236 l 1
 614 0 l 1
 20 0 l 1
 20 82 l 1
 40 84 l 2
 96 90 108 104 108 168 c 2
 108 513 l 2xfa
 108 577 96 591 40 597 c 2
 20 599 l 1
 20 681 l 1
 597 681 l 1
 696 475 l 1
 628 441 l 1
 561 538 477 591 389 591 c 0
 337 591 302 584 292 571 c 0xf6
 284 561 283 551 283 498 c 2
 283 413 l 1xfa
 312 413 l 2
 358 413 375 416 387 425 c 0
 405 439 413 468 414 522 c 1
 492 522 l 1
EndSplineSet
Ligature: 0 0 'liga' E uni0308
EndChar
StartChar: Eacute
Encoding: 269 201 163
Width: 720
Flags: W
HStem: 0 90<355 614> 502 20G<414 492> 591 90<20 405>
VStem: 108 175<143 321 168 529>
Fore
276 726 m 1
 256 776 l 1
 361 870 l 2
 391 896 420 910 445 910 c 0
 483 910 515 877 515 837 c 0
 515 799 487 772 435 761 c 2
 276 726 l 1
492 522 m 1
 492 211 l 1
 414 211 l 1
 408 256 396 289 380 304 c 0
 367 316 346 321 311 321 c 2
 283 321 l 1
 283 203 l 2
 283 137 284 124 288 114 c 0
 295 98 321 90 366 90 c 0
 480 90 567 144 654 269 c 1
 724 236 l 1
 614 0 l 1
 20 0 l 1
 20 82 l 1
 40 84 l 2
 96 90 108 104 108 168 c 2
 108 513 l 2
 108 577 96 591 40 597 c 2
 20 599 l 1
 20 681 l 1
 597 681 l 1
 696 475 l 1
 628 441 l 1
 561 538 477 591 389 591 c 0
 337 591 302 584 292 571 c 0
 284 561 283 551 283 498 c 2
 283 413 l 1
 312 413 l 2
 358 413 375 416 387 425 c 0
 405 439 413 468 414 522 c 1
 492 522 l 1
EndSplineSet
Ligature: 0 0 'liga' E acutecomb
EndChar
StartChar: Egrave
Encoding: 270 200 164
Width: 720
Flags: W
HStem: 0 90<355 614> 502 20G<414 492> 591 90<20 405>
VStem: 108 175<143 321 168 529>
Fore
422 726 m 1
 263 761 l 2
 211 772 183 799 183 837 c 0
 183 876 216 910 253 910 c 0
 277 910 308 895 337 870 c 2
 442 776 l 1
 422 726 l 1
492 522 m 1
 492 211 l 1
 414 211 l 1
 408 256 396 289 380 304 c 0
 367 316 346 321 311 321 c 2
 283 321 l 1
 283 203 l 2
 283 137 284 124 288 114 c 0
 295 98 321 90 366 90 c 0
 480 90 567 144 654 269 c 1
 724 236 l 1
 614 0 l 1
 20 0 l 1
 20 82 l 1
 40 84 l 2
 96 90 108 104 108 168 c 2
 108 513 l 2
 108 577 96 591 40 597 c 2
 20 599 l 1
 20 681 l 1
 597 681 l 1
 696 475 l 1
 628 441 l 1
 561 538 477 591 389 591 c 0
 337 591 302 584 292 571 c 0
 284 561 283 551 283 498 c 2
 283 413 l 1
 312 413 l 2
 358 413 375 416 387 425 c 0
 405 439 413 468 414 522 c 1
 492 522 l 1
EndSplineSet
Ligature: 0 0 'liga' E gravecomb
EndChar
StartChar: Ecircumflex
Encoding: 271 202 165
Width: 720
Flags: W
HStem: 0 90<340 614> 502 20G<414 492> 591 90<20 405>
VStem: 108 175<143 321 168 529>
Fore
520 794 m 1
 482 728 l 1
 338 781 l 1
 196 728 l 1
 158 794 l 1
 340 904 l 1
 520 794 l 1
492 522 m 1
 492 211 l 1
 414 211 l 1
 408 256 396 289 380 304 c 0
 367 316 346 321 311 321 c 2
 283 321 l 1
 283 203 l 2
 283 137 284 124 288 114 c 0
 295 98 321 90 366 90 c 0
 480 90 567 144 654 269 c 1
 724 236 l 1
 614 0 l 1
 20 0 l 1
 20 82 l 1
 40 84 l 2
 96 90 108 104 108 168 c 2
 108 513 l 2
 108 577 96 591 40 597 c 2
 20 599 l 1
 20 681 l 1
 597 681 l 1
 696 475 l 1
 628 441 l 1
 561 538 477 591 389 591 c 0
 337 591 302 584 292 571 c 0
 284 561 283 551 283 498 c 2
 283 413 l 1
 312 413 l 2
 358 413 375 416 387 425 c 0
 405 439 413 468 414 522 c 1
 492 522 l 1
EndSplineSet
Ligature: 0 0 'liga' E uni0302
EndChar
StartChar: Ecaron
Encoding: 272 282 166
Width: 720
Flags: W
HStem: 0 90<355 614> 502 20G<414 492> 591 90<20 405>
VStem: 108 175<143 321 168 529>
Fore
178 837 m 1
 216 904 l 1
 360 850 l 1
 502 904 l 1
 540 837 l 1
 358 727 l 1
 178 837 l 1
492 522 m 1
 492 211 l 1
 414 211 l 1
 408 256 396 289 380 304 c 0
 367 316 346 321 311 321 c 2
 283 321 l 1
 283 203 l 2
 283 137 284 124 288 114 c 0
 295 98 321 90 366 90 c 0
 480 90 567 144 654 269 c 1
 724 236 l 1
 614 0 l 1
 20 0 l 1
 20 82 l 1
 40 84 l 2
 96 90 108 104 108 168 c 2
 108 513 l 2
 108 577 96 591 40 597 c 2
 20 599 l 1
 20 681 l 1
 597 681 l 1
 696 475 l 1
 628 441 l 1
 561 538 477 591 389 591 c 0
 337 591 302 584 292 571 c 0
 284 561 283 551 283 498 c 2
 283 413 l 1
 312 413 l 2
 358 413 375 416 387 425 c 0
 405 439 413 468 414 522 c 1
 492 522 l 1
EndSplineSet
Ligature: 0 0 'liga' E uni030C
EndChar
StartChar: Edotaccent
Encoding: 273 278 167
Width: 720
Flags: W
HStem: 0 90<355 614> 502 20G<414 492> 591 90<20 405> 723 191<355 373>
VStem: 108 175<143 321 168 529> 268 191<813 821>
Fore
363 914 m 0xf4
 414 914 459 868 459 815 c 0
 459 765 416 723 365 723 c 0
 311 723 268 766 268 819 c 0
 268 874 308 914 363 914 c 0xf4
492 522 m 1
 492 211 l 1
 414 211 l 1
 408 256 396 289 380 304 c 0
 367 316 346 321 311 321 c 2
 283 321 l 1
 283 203 l 2
 283 137 284 124 288 114 c 0
 295 98 321 90 366 90 c 0
 480 90 567 144 654 269 c 1
 724 236 l 1
 614 0 l 1
 20 0 l 1
 20 82 l 1
 40 84 l 2
 96 90 108 104 108 168 c 2
 108 513 l 2
 108 577 96 591 40 597 c 2
 20 599 l 1
 20 681 l 1
 597 681 l 1
 696 475 l 1
 628 441 l 1
 561 538 477 591 389 591 c 0
 337 591 302 584 292 571 c 0
 284 561 283 551 283 498 c 2
 283 413 l 1xf8
 312 413 l 2
 358 413 375 416 387 425 c 0
 405 439 413 468 414 522 c 1
 492 522 l 1
EndSplineSet
Ligature: 0 0 'liga' E uni0307
EndChar
StartChar: Eogonek
Encoding: 274 280 168
Width: 720
Flags: W
HStem: -170 71<579 613> 0 90<355 544> 502 20G<414 492> 591 90<20 405>
VStem: 108 175<149 321 168 535> 502 79<-91 -63>
Fore
724 236 m 1
 614 0 l 1
 590 -20 581 -38 581 -63 c 0
 581 -87 592 -99 613 -99 c 0
 629 -99 640 -94 664 -77 c 1
 680 -107 l 1
 660 -147 623 -170 579 -170 c 0
 532 -170 502 -139 502 -91 c 0
 502 -54 514 -29 544 0 c 1
 20 0 l 1
 20 82 l 1
 40 84 l 2
 96 90 108 104 108 168 c 2
 108 513 l 2
 108 577 96 591 40 597 c 2
 20 599 l 1
 20 681 l 1
 597 681 l 1
 696 475 l 1
 628 441 l 1
 561 538 477 591 389 591 c 0
 337 591 302 584 292 571 c 0
 284 561 283 551 283 498 c 2
 283 413 l 1
 312 413 l 2
 358 413 375 416 387 425 c 0
 405 439 413 468 414 522 c 1
 492 522 l 1
 492 211 l 1
 414 211 l 1
 408 256 396 289 380 304 c 0
 367 316 346 321 311 321 c 2
 283 321 l 1
 283 203 l 2
 283 137 284 124 288 114 c 0
 295 98 321 90 366 90 c 0
 480 90 567 144 654 269 c 1
 724 236 l 1
EndSplineSet
Ligature: 0 0 'liga' E uni0328
EndChar
StartChar: Gbreve
Encoding: 275 286 169
Width: 780
Flags: W
HStem: -13 97<356 400> 268 82<448 465.931> 597 97<373 394> 729 108<390 404>
VStem: 35 192<322 356> 536 158<182 205>
Fore
516 898 m 1
 569 872 l 1
 541 789 466 729 390 729 c 0
 315 729 255 776 208 872 c 1
 258 898 l 1
 293 859 340 837 390 837 c 0
 436 837 480 858 516 898 c 1
448 268 m 1
 448 350 l 1
 773 350 l 1
 773 268 l 1
 757 266 l 2
 705 260 694 246 694 182 c 2
 694 -9 l 1
 585 -9 l 1
 562 49 l 1
 522 27 507 19 494 13 c 0
 455 -3 402 -13 356 -13 c 0
 274 -13 195 16 141 67 c 0
 75 128 35 232 35 340 c 0
 35 547 175 694 373 694 c 0
 431 694 506 676 547 652 c 1
 562 681 l 1
 626 681 l 1
 687 452 l 1
 615 427 l 1
 586 479 569 504 546 527 c 0
 503 571 447 597 392 597 c 0
 293 597 227 489 227 327 c 0
 227 184 298 84 400 84 c 0
 472 84 536 140 536 203 c 0
 536 246 507 267 448 268 c 1
EndSplineSet
Ligature: 0 0 'liga' G uni0306
EndChar
StartChar: Idieresis
Encoding: 276 207 170
Width: 400
Flags: W
HStem: 0 21G<20 379> 661 20G<20 379> 738 139<81 99 319 324>
VStem: 18 139<799 817> 112 175<168 529> 252 139<799 817>
Fore
87 877 m 0xf0
 124 877 157 843 157 805 c 0
 157 769 126 738 88 738 c 0
 49 738 18 769 18 808 c 0
 18 848 47 877 87 877 c 0xf0
321 877 m 0
 358 877 391 843 391 805 c 0
 391 769 360 738 322 738 c 0
 283 738 252 769 252 808 c 0xe4
 252 848 281 877 321 877 c 0
112 168 m 2xe8
 112 513 l 2
 112 551 109 566 100 576 c 0
 91 587 68 595 44 597 c 2
 20 599 l 1
 20 681 l 1
 379 681 l 1
 379 599 l 1
 355 597 l 2
 331 595 308 587 299 576 c 0
 290 566 287 551 287 513 c 2
 287 168 l 2
 287 130 290 115 299 105 c 0
 308 94 331 86 355 84 c 2
 379 82 l 1
 379 0 l 1
 20 0 l 1
 20 82 l 1
 44 84 l 2
 68 86 91 94 100 105 c 0
 109 115 112 130 112 168 c 2xe8
EndSplineSet
Ligature: 0 0 'liga' I uni0308
EndChar
StartChar: Iacute
Encoding: 277 205 171
Width: 400
Flags: W
HStem: 0 21G<20 379> 661 20G<20 379>
VStem: 112 175<168 529>
Fore
88 726 m 1
 68 776 l 1
 173 870 l 2
 203 896 232 910 257 910 c 0
 295 910 327 877 327 837 c 0
 327 799 299 772 247 761 c 2
 88 726 l 1
112 168 m 2
 112 513 l 2
 112 551 109 566 100 576 c 0
 91 587 68 595 44 597 c 2
 20 599 l 1
 20 681 l 1
 379 681 l 1
 379 599 l 1
 355 597 l 2
 331 595 308 587 299 576 c 0
 290 566 287 551 287 513 c 2
 287 168 l 2
 287 130 290 115 299 105 c 0
 308 94 331 86 355 84 c 2
 379 82 l 1
 379 0 l 1
 20 0 l 1
 20 82 l 1
 44 84 l 2
 68 86 91 94 100 105 c 0
 109 115 112 130 112 168 c 2
EndSplineSet
Ligature: 0 0 'liga' I acutecomb
EndChar
StartChar: Igrave
Encoding: 278 204 172
Width: 400
Flags: W
HStem: 0 21G<20 379> 661 20G<20 379>
VStem: 112 175<168 529>
Fore
259 726 m 1
 100 761 l 2
 48 772 20 799 20 837 c 0
 20 876 53 910 90 910 c 0
 114 910 145 895 174 870 c 2
 279 776 l 1
 259 726 l 1
112 168 m 2
 112 513 l 2
 112 551 109 566 100 576 c 0
 91 587 68 595 44 597 c 2
 20 599 l 1
 20 681 l 1
 379 681 l 1
 379 599 l 1
 355 597 l 2
 331 595 308 587 299 576 c 0
 290 566 287 551 287 513 c 2
 287 168 l 2
 287 130 290 115 299 105 c 0
 308 94 331 86 355 84 c 2
 379 82 l 1
 379 0 l 1
 20 0 l 1
 20 82 l 1
 44 84 l 2
 68 86 91 94 100 105 c 0
 109 115 112 130 112 168 c 2
EndSplineSet
Ligature: 0 0 'liga' I gravecomb
EndChar
StartChar: Icircumflex
Encoding: 279 206 173
Width: 400
Flags: W
HStem: 0 21G<20 379> 661 20G<20 379>
VStem: 112 175<168 529>
Fore
380 794 m 1
 342 728 l 1
 198 781 l 1
 56 728 l 1
 18 794 l 1
 200 904 l 1
 380 794 l 1
112 168 m 2
 112 513 l 2
 112 551 109 566 100 576 c 0
 91 587 68 595 44 597 c 2
 20 599 l 1
 20 681 l 1
 379 681 l 1
 379 599 l 1
 355 597 l 2
 331 595 308 587 299 576 c 0
 290 566 287 551 287 513 c 2
 287 168 l 2
 287 130 290 115 299 105 c 0
 308 94 331 86 355 84 c 2
 379 82 l 1
 379 0 l 1
 20 0 l 1
 20 82 l 1
 44 84 l 2
 68 86 91 94 100 105 c 0
 109 115 112 130 112 168 c 2
EndSplineSet
Ligature: 0 0 'liga' I uni0302
EndChar
StartChar: Idotaccent
Encoding: 280 304 174
Width: 400
Flags: W
HStem: 0 21G<20 379> 661 20G<20 379> 723 191<195 213>
VStem: 112 175<168 529>
Fore
203 914 m 0
 254 914 299 868 299 815 c 0
 299 765 256 723 205 723 c 0
 151 723 108 766 108 819 c 0
 108 874 148 914 203 914 c 0
112 168 m 2
 112 513 l 2
 112 551 109 566 100 576 c 0
 91 587 68 595 44 597 c 2
 20 599 l 1
 20 681 l 1
 379 681 l 1
 379 599 l 1
 355 597 l 2
 331 595 308 587 299 576 c 0
 290 566 287 551 287 513 c 2
 287 168 l 2
 287 130 290 115 299 105 c 0
 308 94 331 86 355 84 c 2
 379 82 l 1
 379 0 l 1
 20 0 l 1
 20 82 l 1
 44 84 l 2
 68 86 91 94 100 105 c 0
 109 115 112 130 112 168 c 2
EndSplineSet
Ligature: 0 0 'liga' I uni0307
EndChar
StartChar: Lacute
Encoding: 281 313 175
Width: 640
Flags: W
HStem: 0 90<325.182 357> 661 20G<20 371>
VStem: 108 175<143 529>
Fore
208 726 m 1
 188 776 l 1
 293 870 l 2
 323 896 352 910 377 910 c 0
 415 910 447 877 447 837 c 0
 447 799 419 772 367 761 c 2
 208 726 l 1
668 238 m 1
 564 0 l 1
 20 0 l 1
 20 82 l 1
 40 84 l 2
 96 90 108 104 108 168 c 2
 108 513 l 2
 108 577 96 591 40 597 c 2
 20 599 l 1
 20 681 l 1
 371 681 l 1
 371 599 l 1
 351 597 l 2
 295 591 283 577 283 513 c 2
 283 181 l 2
 283 118 283 118 287 109 c 0
 293 97 314 90 344 90 c 0
 443 90 531 154 599 275 c 1
 668 238 l 1
EndSplineSet
Ligature: 0 0 'liga' L acutecomb
EndChar
StartChar: Lcaron
Encoding: 282 317 176
Width: 640
Flags: W
HStem: 0 90<325.182 357> 674 20G<563 609.5>
VStem: 108 175<143 529> 507 160<599 615>
Fore
566 438 m 1
 523 483 l 1
 547 504 561 521 572 542 c 1
 529 550 507 576 507 615 c 0
 507 660 541 694 585 694 c 0
 634 694 667 655 667 599 c 0
 667 540 629 479 566 438 c 1
668 238 m 1
 564 0 l 1
 20 0 l 1
 20 82 l 1
 40 84 l 2
 96 90 108 104 108 168 c 2
 108 513 l 2
 108 577 96 591 40 597 c 2
 20 599 l 1
 20 681 l 1
 371 681 l 1
 371 599 l 1
 351 597 l 2
 295 591 283 577 283 513 c 2
 283 181 l 2
 283 118 283 118 287 109 c 0
 293 97 314 90 344 90 c 0
 443 90 531 154 599 275 c 1
 668 238 l 1
EndSplineSet
Ligature: 0 0 'liga' L uni030C
EndChar
StartChar: Nacute
Encoding: 283 323 177
Width: 740
Flags: W
HStem: 0 21G<20 289 512 636> 661 20G<20 315 455 724>
VStem: 108 93<168 526> 543 93<288 528>
DStem: 201 526 315 681 512 0 543 288
Fore
298 726 m 1
 278 776 l 1
 383 870 l 2
 413 896 442 910 467 910 c 0
 505 910 537 877 537 837 c 0
 537 799 509 772 457 761 c 2
 298 726 l 1
315 681 m 1
 543 288 l 1
 543 513 l 2
 543 577 531 591 475 597 c 2
 455 599 l 1
 455 681 l 1
 724 681 l 1
 724 599 l 1
 704 597 l 2
 648 591 636 577 636 513 c 2
 636 0 l 1
 512 0 l 1
 201 526 l 1
 201 168 l 2
 201 104 213 90 269 84 c 2
 289 82 l 1
 289 0 l 1
 20 0 l 1
 20 82 l 1
 40 84 l 2
 96 90 108 104 108 168 c 2
 108 513 l 2
 108 577 96 591 40 597 c 2
 20 599 l 1
 20 681 l 1
 315 681 l 1
EndSplineSet
Ligature: 0 0 'liga' N acutecomb
EndChar
StartChar: Ncaron
Encoding: 284 327 178
Width: 740
Flags: W
HStem: 0 21G<20 289 512 636> 661 20G<20 315 455 724>
VStem: 108 93<168 526> 543 93<288 528>
DStem: 201 526 315 681 512 0 543 288
Fore
188 837 m 1
 226 904 l 1
 370 850 l 1
 512 904 l 1
 550 837 l 1
 368 727 l 1
 188 837 l 1
315 681 m 1
 543 288 l 1
 543 513 l 2
 543 577 531 591 475 597 c 2
 455 599 l 1
 455 681 l 1
 724 681 l 1
 724 599 l 1
 704 597 l 2
 648 591 636 577 636 513 c 2
 636 0 l 1
 512 0 l 1
 201 526 l 1
 201 168 l 2
 201 104 213 90 269 84 c 2
 289 82 l 1
 289 0 l 1
 20 0 l 1
 20 82 l 1
 40 84 l 2
 96 90 108 104 108 168 c 2
 108 513 l 2
 108 577 96 591 40 597 c 2
 20 599 l 1
 20 681 l 1
 315 681 l 1
EndSplineSet
Ligature: 0 0 'liga' N uni030C
EndChar
StartChar: Ntilde
Encoding: 285 209 179
Width: 740
Flags: W
HStem: 0 21G<20 289 512 636> 661 20G<20 315 455 724> 748 106<428 460> 779 105<289 325>
VStem: 108 93<168 526> 543 93<288 528>
DStem: 201 526 315 681 512 0 543 288
Fore
501 878 m 1xec
 551 853 l 1
 529 779 493 748 428 748 c 0xec
 399 748 391 750 327 772 c 0
 314 776 299 779 289 779 c 0
 273 779 264 773 251 755 c 1
 199 785 l 1
 220 846 269 884 325 884 c 0xdc
 345 884 367 880 394 870 c 0
 437 855 443 854 460 854 c 0
 481 854 490 859 501 878 c 1xec
315 681 m 1
 543 288 l 1
 543 513 l 2
 543 577 531 591 475 597 c 2
 455 599 l 1
 455 681 l 1
 724 681 l 1
 724 599 l 1
 704 597 l 2
 648 591 636 577 636 513 c 2
 636 0 l 1
 512 0 l 1
 201 526 l 1
 201 168 l 2
 201 104 213 90 269 84 c 2
 289 82 l 1
 289 0 l 1
 20 0 l 1
 20 82 l 1
 40 84 l 2
 96 90 108 104 108 168 c 2
 108 513 l 2
 108 577 96 591 40 597 c 2
 20 599 l 1
 20 681 l 1
 315 681 l 1
EndSplineSet
Ligature: 0 0 'liga' N tildecomb
EndChar
StartChar: Odieresis
Encoding: 286 214 180
Width: 800
Flags: W
HStem: -13 102<386 408> 592 102<390 420> 738 139<274 292 514 522>
VStem: 35 192<322 356> 216 139<802 810> 450 139<802 810> 577 192<322 372>
Fore
285 877 m 0xe8
 322 877 355 843 355 805 c 0
 355 769 324 738 286 738 c 0
 247 738 216 769 216 808 c 0
 216 848 245 877 285 877 c 0xe8
519 877 m 0
 556 877 589 843 589 805 c 0
 589 769 558 738 520 738 c 0
 481 738 450 769 450 808 c 0xe4
 450 848 479 877 519 877 c 0
405 694 m 0
 501 694 587 664 654 608 c 0
 731 543 769 457 769 346 c 0
 769 142 606 -13 392 -13 c 0
 304 -13 234 10 168 59 c 0
 79 126 35 217 35 334 c 0xf2
 35 542 191 694 405 694 c 0
406 592 m 0
 300 592 227 489 227 338 c 0
 227 266 246 194 276 151 c 0
 303 113 351 89 400 89 c 0
 506 89 577 192 577 344 c 0
 577 500 513 592 406 592 c 0
EndSplineSet
Ligature: 0 0 'liga' O uni0308
EndChar
StartChar: Oacute
Encoding: 287 211 181
Width: 800
Flags: W
HStem: -13 102<386 408> 592 102<390 424>
VStem: 35 192<322 356> 577 192<322 372>
Fore
339 726 m 1
 319 776 l 1
 424 870 l 2
 454 896 483 910 508 910 c 0
 546 910 578 877 578 837 c 0
 578 799 550 772 498 761 c 2
 339 726 l 1
405 694 m 0
 501 694 587 664 654 608 c 0
 731 543 769 457 769 346 c 0
 769 142 606 -13 392 -13 c 0
 304 -13 234 10 168 59 c 0
 79 126 35 217 35 334 c 0
 35 542 191 694 405 694 c 0
406 592 m 0
 300 592 227 489 227 338 c 0
 227 266 246 194 276 151 c 0
 303 113 351 89 400 89 c 0
 506 89 577 192 577 344 c 0
 577 500 513 592 406 592 c 0
EndSplineSet
Ligature: 0 0 'liga' O acutecomb
EndChar
StartChar: Ograve
Encoding: 288 210 182
Width: 800
Flags: W
HStem: -13 102<386 408> 592 102<390 420>
VStem: 35 192<322 356> 577 192<322 372>
Fore
477 726 m 1
 318 761 l 2
 266 772 238 799 238 837 c 0
 238 876 271 910 308 910 c 0
 332 910 363 895 392 870 c 2
 497 776 l 1
 477 726 l 1
405 694 m 0
 501 694 587 664 654 608 c 0
 731 543 769 457 769 346 c 0
 769 142 606 -13 392 -13 c 0
 304 -13 234 10 168 59 c 0
 79 126 35 217 35 334 c 0
 35 542 191 694 405 694 c 0
406 592 m 0
 300 592 227 489 227 338 c 0
 227 266 246 194 276 151 c 0
 303 113 351 89 400 89 c 0
 506 89 577 192 577 344 c 0
 577 500 513 592 406 592 c 0
EndSplineSet
Ligature: 0 0 'liga' O gravecomb
EndChar
StartChar: Ocircumflex
Encoding: 289 212 183
Width: 800
Flags: W
HStem: -13 102<386 408> 592 102<390 420>
VStem: 35 192<322 356> 577 192<322 372>
Fore
583 794 m 1
 545 728 l 1
 401 781 l 1
 259 728 l 1
 221 794 l 1
 403 904 l 1
 583 794 l 1
405 694 m 0
 501 694 587 664 654 608 c 0
 731 543 769 457 769 346 c 0
 769 142 606 -13 392 -13 c 0
 304 -13 234 10 168 59 c 0
 79 126 35 217 35 334 c 0
 35 542 191 694 405 694 c 0
406 592 m 0
 300 592 227 489 227 338 c 0
 227 266 246 194 276 151 c 0
 303 113 351 89 400 89 c 0
 506 89 577 192 577 344 c 0
 577 500 513 592 406 592 c 0
EndSplineSet
Ligature: 0 0 'liga' O uni0302
EndChar
StartChar: Otilde
Encoding: 290 213 184
Width: 800
Flags: W
HStem: -13 102<386 408> 592 102<390 420> 748 106<461 493> 779 105<322 358>
VStem: 35 192<322 356> 577 192<322 372>
Fore
534 878 m 1xec
 584 853 l 1
 562 779 526 748 461 748 c 0xec
 432 748 424 750 360 772 c 0
 347 776 332 779 322 779 c 0
 306 779 297 773 284 755 c 1
 232 785 l 1
 253 846 302 884 358 884 c 0xdc
 378 884 400 880 427 870 c 0
 470 855 476 854 493 854 c 0
 514 854 523 859 534 878 c 1xec
405 694 m 0
 501 694 587 664 654 608 c 0
 731 543 769 457 769 346 c 0
 769 142 606 -13 392 -13 c 0
 304 -13 234 10 168 59 c 0
 79 126 35 217 35 334 c 0
 35 542 191 694 405 694 c 0
406 592 m 0
 300 592 227 489 227 338 c 0
 227 266 246 194 276 151 c 0
 303 113 351 89 400 89 c 0
 506 89 577 192 577 344 c 0
 577 500 513 592 406 592 c 0
EndSplineSet
Ligature: 0 0 'liga' O tildecomb
EndChar
StartChar: Ohungarumlaut
Encoding: 291 336 185
Width: 800
Flags: W
HStem: -13 102<386 408> 592 102<390 425>
VStem: 35 192<322 356> 577 192<322 372>
Fore
288 740 m 1
 312 845 l 2
 324 898 337 913 373 913 c 0
 401 913 423 891 423 862 c 0
 423 844 412 822 395 806 c 2
 312 726 l 1
 288 740 l 1
450 740 m 1
 474 845 l 1
 486 899 499 913 535 913 c 0
 564 913 585 891 585 862 c 0
 585 844 574 822 557 806 c 2
 474 726 l 1
 450 740 l 1
405 694 m 0
 501 694 587 664 654 608 c 0
 731 543 769 457 769 346 c 0
 769 142 606 -13 392 -13 c 0
 304 -13 234 10 168 59 c 0
 79 126 35 217 35 334 c 0
 35 542 191 694 405 694 c 0
406 592 m 0
 300 592 227 489 227 338 c 0
 227 266 246 194 276 151 c 0
 303 113 351 89 400 89 c 0
 506 89 577 192 577 344 c 0
 577 500 513 592 406 592 c 0
EndSplineSet
Ligature: 0 0 'liga' O uni030B
EndChar
StartChar: Racute
Encoding: 292 340 186
Width: 780
Flags: W
HStem: 0 21G<20 371 551 783> 588 93<20 389>
VStem: 108 175<168 293 168 544> 502 204<479 501>
DStem: 335 293 539 314 551 0 665 151
Fore
278 726 m 1
 258 776 l 1
 363 870 l 2
 393 896 422 910 447 910 c 0
 485 910 517 877 517 837 c 0
 517 799 489 772 437 761 c 2
 278 726 l 1
539 314 m 1
 665 151 l 1
 704 99 724 87 783 82 c 1
 783 0 l 1
 551 0 l 1
 335 293 l 1
 283 293 l 1
 283 168 l 2
 283 104 295 90 351 84 c 2
 371 82 l 1
 371 0 l 1
 20 0 l 1
 20 82 l 1
 40 84 l 2
 96 90 108 104 108 168 c 2
 108 513 l 2
 108 577 96 591 40 597 c 2
 20 599 l 1
 20 681 l 1
 409 681 l 2
 504 681 565 671 614 648 c 0
 669 621 706 562 706 499 c 0
 706 407 643 338 539 314 c 1
283 388 m 1
 354 388 l 2
 401 388 429 394 454 408 c 0
 484 424 502 455 502 489 c 0
 502 517 489 546 469 562 c 0
 446 581 417 588 360 588 c 0
 330 588 309 585 296 578 c 0
 285 572 283 567 283 544 c 2
 283 388 l 1
EndSplineSet
Ligature: 0 0 'liga' R acutecomb
EndChar
StartChar: Rcaron
Encoding: 293 344 187
Width: 780
Flags: W
HStem: 0 21G<20 371 551 783> 588 93<20 392>
VStem: 108 175<168 293 168 544> 502 204<479 501>
DStem: 335 293 539 314 551 0 665 151
Fore
208 837 m 1
 246 904 l 1
 390 850 l 1
 532 904 l 1
 570 837 l 1
 388 727 l 1
 208 837 l 1
539 314 m 1
 665 151 l 1
 704 99 724 87 783 82 c 1
 783 0 l 1
 551 0 l 1
 335 293 l 1
 283 293 l 1
 283 168 l 2
 283 104 295 90 351 84 c 2
 371 82 l 1
 371 0 l 1
 20 0 l 1
 20 82 l 1
 40 84 l 2
 96 90 108 104 108 168 c 2
 108 513 l 2
 108 577 96 591 40 597 c 2
 20 599 l 1
 20 681 l 1
 409 681 l 2
 504 681 565 671 614 648 c 0
 669 621 706 562 706 499 c 0
 706 407 643 338 539 314 c 1
283 388 m 1
 354 388 l 2
 401 388 429 394 454 408 c 0
 484 424 502 455 502 489 c 0
 502 517 489 546 469 562 c 0
 446 581 417 588 360 588 c 0
 330 588 309 585 296 578 c 0
 285 572 283 567 283 544 c 2
 283 388 l 1
EndSplineSet
Ligature: 0 0 'liga' R uni030C
EndChar
StartChar: Sacute
Encoding: 294 346 188
Width: 660
Flags: W
HStem: -13 97<340 374> 597 97<284 310>
VStem: 40 155<476 527> 484 155<173 227>
Fore
278 726 m 1
 258 776 l 1
 363 870 l 2
 393 896 422 910 447 910 c 0
 485 910 517 877 517 837 c 0
 517 799 489 772 437 761 c 2
 278 726 l 1
458 649 m 1
 470 681 l 1
 530 681 l 1
 596 478 l 1
 524 451 l 1
 492 495 479 511 462 529 c 0
 424 570 362 597 305 597 c 0
 241 597 195 568 195 527 c 0
 195 495 222 476 283 462 c 0
 311 456 329 452 332 451 c 2
 423 427 l 2
 507 404 536 394 566 374 c 0
 612 344 639 289 639 227 c 0
 639 89 519 -13 356 -13 c 0
 288 -13 219 7 177 38 c 1
 163 -11 l 1
 104 -11 l 1
 21 244 l 1
 96 269 l 1
 122 222 141 197 168 167 c 1
 218 115 288 84 358 84 c 0
 432 84 484 121 484 173 c 0
 484 210 463 225 388 244 c 2
 289 269 l 2
 171 298 151 305 116 327 c 0
 68 358 40 413 40 476 c 0
 40 603 148 694 298 694 c 0
 356 694 418 676 458 649 c 1
EndSplineSet
Ligature: 0 0 'liga' S acutecomb
EndChar
StartChar: Scaron
Encoding: 295 352 189
Width: 660
Flags: W
HStem: -13 97<340 374> 597 97<284 311>
VStem: 40 155<476 527> 484 155<173 227>
Fore
126 837 m 1
 164 904 l 1
 308 850 l 1
 450 904 l 1
 488 837 l 1
 306 727 l 1
 126 837 l 1
458 649 m 1
 470 681 l 1
 530 681 l 1
 596 478 l 1
 524 451 l 1
 492 495 479 511 462 529 c 0
 424 570 362 597 305 597 c 0
 241 597 195 568 195 527 c 0
 195 495 222 476 283 462 c 0
 311 456 329 452 332 451 c 2
 423 427 l 2
 507 404 536 394 566 374 c 0
 612 344 639 289 639 227 c 0
 639 89 519 -13 356 -13 c 0
 288 -13 219 7 177 38 c 1
 163 -11 l 1
 104 -11 l 1
 21 244 l 1
 96 269 l 1
 122 222 141 197 168 167 c 1
 218 115 288 84 358 84 c 0
 432 84 484 121 484 173 c 0
 484 210 463 225 388 244 c 2
 289 269 l 2
 171 298 151 305 116 327 c 0
 68 358 40 413 40 476 c 0
 40 603 148 694 298 694 c 0
 356 694 418 676 458 649 c 1
EndSplineSet
Ligature: 0 0 'liga' S uni030C
EndChar
StartChar: Scedilla
Encoding: 296 350 190
Width: 660
Flags: W
HStem: -213 65<330 342> -75 159<310 358> -44 31<338 349.5> -13 97<338 377> 597 97<284 312>
VStem: 40 155<476 527> 371 83<-121 -114> 484 155<173 227>
Fore
338 -13 m 1xaf
 338 -44 l 1xaf
 361 -42 366 -42 374 -42 c 0
 420 -42 454 -74 454 -117 c 0
 454 -173 405 -213 337 -213 c 0
 280 -213 238 -187 238 -153 c 0
 238 -132 252 -119 272 -119 c 0
 284 -119 290 -122 303 -131 c 0
 319 -144 327 -148 340 -148 c 0
 358 -148 371 -135 371 -116 c 0
 371 -90 349 -75 310 -75 c 0
 303 -75 297 -75 277 -77 c 1
 285 -6 l 1
 238 4 199 20 177 38 c 1
 163 -11 l 1
 104 -11 l 1
 21 244 l 1
 96 269 l 1
 122 222 141 197 168 167 c 1
 218 115 288 84 358 84 c 0xcf
 432 84 484 121 484 173 c 0
 484 210 463 225 388 244 c 2
 289 269 l 2
 171 298 151 305 116 327 c 0
 68 358 40 413 40 476 c 0
 40 603 148 694 298 694 c 0
 356 694 418 676 458 649 c 1
 470 681 l 1
 530 681 l 1
 596 478 l 1
 524 451 l 1
 492 495 479 511 462 529 c 0
 424 570 362 597 305 597 c 0
 241 597 195 568 195 527 c 0
 195 495 222 476 283 462 c 0
 311 456 329 452 332 451 c 2
 423 427 l 2
 507 404 536 394 566 374 c 0
 611 344 639 289 639 227 c 0
 639 90 519 -13 359 -13 c 2x9f
 338 -13 l 1xaf
EndSplineSet
Ligature: 0 0 'liga' S uni0327
EndChar
StartChar: Tcaron
Encoding: 297 356 191
Width: 700
Flags: W
HStem: 0 21G<162 533> 588 93<71 250 71 461>
VStem: 260 175<168 561>
Fore
168 837 m 1
 206 904 l 1
 350 850 l 1
 492 904 l 1
 530 837 l 1
 348 727 l 1
 168 837 l 1
622 681 m 1
 703 474 l 1
 630 445 l 1
 596 502 588 513 565 535 c 0
 528 571 490 590 455 590 c 0
 435 590 435 590 435 555 c 2
 435 168 l 2
 435 129 438 115 447 105 c 0
 456 94 481 85 503 84 c 2
 533 82 l 1
 533 0 l 1
 162 0 l 1
 162 82 l 1
 192 84 l 2
 214 85 239 94 248 105 c 0
 257 115 260 129 260 168 c 2
 260 552 l 2
 260 583 258 588 243 588 c 0
 176 588 106 530 71 445 c 1
 -4 474 l 1
 71 681 l 1
 622 681 l 1
EndSplineSet
Ligature: 0 0 'liga' T uni030C
EndChar
StartChar: Udieresis
Encoding: 298 220 192
Width: 740
Flags: W
HStem: -13 105<371 404> 661 20G<15 366 450 724> 738 139<254 272 494 502>
VStem: 103 175<226 532> 196 139<802 810> 430 139<802 810> 538 98<226 532>
Fore
265 877 m 0xe8
 302 877 335 843 335 805 c 0
 335 769 304 738 266 738 c 0
 227 738 196 769 196 808 c 0
 196 848 225 877 265 877 c 0xe8
499 877 m 0
 536 877 569 843 569 805 c 0
 569 769 538 738 500 738 c 0
 461 738 430 769 430 808 c 0xe4
 430 848 459 877 499 877 c 0
636 513 m 2xf2
 636 251 l 2
 636 138 622 92 575 50 c 0
 531 11 453 -13 371 -13 c 0
 284 -13 201 15 155 59 c 0
 115 98 103 138 103 230 c 2
 103 513 l 2
 103 577 91 591 35 597 c 2
 15 599 l 1
 15 681 l 1
 366 681 l 1
 366 599 l 1
 346 597 l 2
 290 591 278 577 278 513 c 2
 278 249 l 2
 278 188 285 160 308 132 c 0
 330 105 362 92 404 92 c 0
 441 92 474 102 497 120 c 0
 527 144 538 178 538 246 c 2
 538 513 l 2
 538 577 526 591 470 597 c 2
 450 599 l 1
 450 681 l 1
 724 681 l 1
 724 599 l 1
 704 597 l 2
 648 591 636 577 636 513 c 2xf2
EndSplineSet
Ligature: 0 0 'liga' U uni0308
EndChar
StartChar: Uacute
Encoding: 299 218 193
Width: 740
Flags: W
HStem: -13 105<371 404> 661 20G<15 366 450 724>
VStem: 103 175<226 532> 538 98<226 532>
Fore
317 726 m 1
 297 776 l 1
 402 870 l 2
 432 896 461 910 486 910 c 0
 524 910 556 877 556 837 c 0
 556 799 528 772 476 761 c 2
 317 726 l 1
636 513 m 2
 636 251 l 2
 636 138 622 92 575 50 c 0
 531 11 453 -13 371 -13 c 0
 284 -13 201 15 155 59 c 0
 115 98 103 138 103 230 c 2
 103 513 l 2
 103 577 91 591 35 597 c 2
 15 599 l 1
 15 681 l 1
 366 681 l 1
 366 599 l 1
 346 597 l 2
 290 591 278 577 278 513 c 2
 278 249 l 2
 278 188 285 160 308 132 c 0
 330 105 362 92 404 92 c 0
 441 92 474 102 497 120 c 0
 527 144 538 178 538 246 c 2
 538 513 l 2
 538 577 526 591 470 597 c 2
 450 599 l 1
 450 681 l 1
 724 681 l 1
 724 599 l 1
 704 597 l 2
 648 591 636 577 636 513 c 2
EndSplineSet
Ligature: 0 0 'liga' U acutecomb
EndChar
StartChar: Ugrave
Encoding: 300 217 194
Width: 740
Flags: W
HStem: -13 105<371 404> 661 20G<15 366 450 724>
VStem: 103 175<226 532> 538 98<226 532>
Fore
452 726 m 1
 293 761 l 2
 241 772 213 799 213 837 c 0
 213 876 246 910 283 910 c 0
 307 910 338 895 367 870 c 2
 472 776 l 1
 452 726 l 1
636 513 m 2
 636 251 l 2
 636 138 622 92 575 50 c 0
 531 11 453 -13 371 -13 c 0
 284 -13 201 15 155 59 c 0
 115 98 103 138 103 230 c 2
 103 513 l 2
 103 577 91 591 35 597 c 2
 15 599 l 1
 15 681 l 1
 366 681 l 1
 366 599 l 1
 346 597 l 2
 290 591 278 577 278 513 c 2
 278 249 l 2
 278 188 285 160 308 132 c 0
 330 105 362 92 404 92 c 0
 441 92 474 102 497 120 c 0
 527 144 538 178 538 246 c 2
 538 513 l 2
 538 577 526 591 470 597 c 2
 450 599 l 1
 450 681 l 1
 724 681 l 1
 724 599 l 1
 704 597 l 2
 648 591 636 577 636 513 c 2
EndSplineSet
Ligature: 0 0 'liga' U gravecomb
EndChar
StartChar: Ucircumflex
Encoding: 301 219 195
Width: 740
Flags: W
HStem: -13 105<371 404> 661 20G<15 366 450 724>
VStem: 103 175<226 532> 538 98<226 532>
Fore
564 794 m 1
 526 728 l 1
 382 781 l 1
 240 728 l 1
 202 794 l 1
 384 904 l 1
 564 794 l 1
636 513 m 2
 636 251 l 2
 636 138 622 92 575 50 c 0
 531 11 453 -13 371 -13 c 0
 284 -13 201 15 155 59 c 0
 115 98 103 138 103 230 c 2
 103 513 l 2
 103 577 91 591 35 597 c 2
 15 599 l 1
 15 681 l 1
 366 681 l 1
 366 599 l 1
 346 597 l 2
 290 591 278 577 278 513 c 2
 278 249 l 2
 278 188 285 160 308 132 c 0
 330 105 362 92 404 92 c 0
 441 92 474 102 497 120 c 0
 527 144 538 178 538 246 c 2
 538 513 l 2
 538 577 526 591 470 597 c 2
 450 599 l 1
 450 681 l 1
 724 681 l 1
 724 599 l 1
 704 597 l 2
 648 591 636 577 636 513 c 2
EndSplineSet
Ligature: 0 0 'liga' U uni0302
EndChar
StartChar: Uring
Encoding: 302 366 196
Width: 740
Flags: W
HStem: -13 105<371 404> 661 20G<15 366 450 724> 723 65<403 416> 862 65<411 415>
VStem: 103 175<226 532> 308 68<818 828> 447 68<818 829> 538 98<226 532>
Fore
411 927 m 0
 469 927 515 881 515 823 c 0
 515 769 468 723 412 723 c 0
 355 723 308 769 308 825 c 0
 308 881 355 927 411 927 c 0
411 862 m 0
 392 862 376 846 376 826 c 0
 376 805 392 788 411 788 c 0
 431 788 447 805 447 825 c 0
 447 845 431 862 411 862 c 0
636 513 m 2
 636 251 l 2
 636 138 622 92 575 50 c 0
 531 11 453 -13 371 -13 c 0
 284 -13 201 15 155 59 c 0
 115 98 103 138 103 230 c 2
 103 513 l 2
 103 577 91 591 35 597 c 2
 15 599 l 1
 15 681 l 1
 366 681 l 1
 366 599 l 1
 346 597 l 2
 290 591 278 577 278 513 c 2
 278 249 l 2
 278 188 285 160 308 132 c 0
 330 105 362 92 404 92 c 0
 441 92 474 102 497 120 c 0
 527 144 538 178 538 246 c 2
 538 513 l 2
 538 577 526 591 470 597 c 2
 450 599 l 1
 450 681 l 1
 724 681 l 1
 724 599 l 1
 704 597 l 2
 648 591 636 577 636 513 c 2
EndSplineSet
Ligature: 0 0 'liga' U uni030A
EndChar
StartChar: Uhungarumlaut
Encoding: 303 368 197
Width: 740
Flags: W
HStem: -13 105<371 404> 661 20G<15 366 450 724>
VStem: 103 175<226 532> 538 98<226 532>
Fore
258 740 m 1
 282 845 l 2
 294 898 307 913 343 913 c 0
 371 913 393 891 393 862 c 0
 393 844 382 822 365 806 c 2
 282 726 l 1
 258 740 l 1
420 740 m 1
 444 845 l 1
 456 899 469 913 505 913 c 0
 534 913 555 891 555 862 c 0
 555 844 544 822 527 806 c 2
 444 726 l 1
 420 740 l 1
636 513 m 2
 636 251 l 2
 636 138 622 92 575 50 c 0
 531 11 453 -13 371 -13 c 0
 284 -13 201 15 155 59 c 0
 115 98 103 138 103 230 c 2
 103 513 l 2
 103 577 91 591 35 597 c 2
 15 599 l 1
 15 681 l 1
 366 681 l 1
 366 599 l 1
 346 597 l 2
 290 591 278 577 278 513 c 2
 278 249 l 2
 278 188 285 160 308 132 c 0
 330 105 362 92 404 92 c 0
 441 92 474 102 497 120 c 0
 527 144 538 178 538 246 c 2
 538 513 l 2
 538 577 526 591 470 597 c 2
 450 599 l 1
 450 681 l 1
 724 681 l 1
 724 599 l 1
 704 597 l 2
 648 591 636 577 636 513 c 2
EndSplineSet
Ligature: 0 0 'liga' U uni030B
EndChar
StartChar: Yacute
Encoding: 304 221 198
Width: 700
Flags: W
HStem: 0 21G<159 526> 599 82<-20 360 412 440.156>
VStem: 255 175<168 276>
DStem: 458 519 559 488 380 390 430 288
Fore
306 726 m 1
 286 776 l 1
 391 870 l 2
 421 896 450 910 475 910 c 0
 513 910 545 877 545 837 c 0
 545 799 517 772 465 761 c 2
 306 726 l 1
430 288 m 1
 430 168 l 2
 430 129 433 115 442 105 c 0
 451 94 475 86 498 84 c 2
 526 82 l 1
 526 0 l 1
 159 0 l 1
 159 82 l 1
 187 84 l 2
 210 86 234 94 243 105 c 0
 252 115 255 130 255 168 c 2
 255 276 l 1
 115 495 l 1
 69 570 40 593 -20 599 c 1
 -20 681 l 1
 360 681 l 1
 360 599 l 1
 303 598 282 592 282 575 c 0
 282 569 282 569 298 539 c 2
 380 390 l 1
 458 519 l 2
 479 554 486 568 486 577 c 0
 486 593 470 598 412 599 c 1
 412 681 l 1
 718 681 l 1
 718 599 l 1
 649 595 611 569 559 488 c 2
 430 288 l 1
EndSplineSet
Ligature: 0 0 'liga' Y acutecomb
EndChar
StartChar: Zacute
Encoding: 305 377 199
Width: 640
Flags: W
HStem: 0 87<277 546> 594 87<105 343>
DStem: 387 590 605 617 6 65 227 94
Fore
288 726 m 1
 268 776 l 1
 373 870 l 2
 403 896 432 910 457 910 c 0
 495 910 527 877 527 837 c 0
 527 799 499 772 447 761 c 2
 288 726 l 1
588 681 m 1
 605 617 l 1
 227 94 l 1
 257 89 274 87 298 87 c 0
 374 87 444 109 489 149 c 0
 522 177 542 207 561 258 c 1
 635 234 l 1
 546 0 l 1
 22 0 l 1
 6 65 l 1
 387 590 l 1
 354 593 341 594 327 594 c 0
 215 594 129 539 75 434 c 1
 6 463 l 1
 105 681 l 1
 588 681 l 1
EndSplineSet
Ligature: 0 0 'liga' Z acutecomb
EndChar
StartChar: Zcaron
Encoding: 306 381 200
Width: 640
Flags: W
HStem: 0 87<277 546> 594 87<105 350>
DStem: 387 590 605 617 6 65 227 94
Fore
166 837 m 1
 204 904 l 1
 348 850 l 1
 490 904 l 1
 528 837 l 1
 346 727 l 1
 166 837 l 1
588 681 m 1
 605 617 l 1
 227 94 l 1
 257 89 274 87 298 87 c 0
 374 87 444 109 489 149 c 0
 522 177 542 207 561 258 c 1
 635 234 l 1
 546 0 l 1
 22 0 l 1
 6 65 l 1
 387 590 l 1
 354 593 341 594 327 594 c 0
 215 594 129 539 75 434 c 1
 6 463 l 1
 105 681 l 1
 588 681 l 1
EndSplineSet
Ligature: 0 0 'liga' Z uni030C
EndChar
StartChar: Zdotaccent
Encoding: 307 379 201
Width: 640
Flags: W
HStem: 0 87<277 546> 594 87<105 347> 723 191<341 347>
VStem: 248 191<813 821>
DStem: 387 590 605 617 6 65 227 94
Fore
343 914 m 0
 394 914 439 868 439 815 c 0
 439 765 396 723 345 723 c 0
 291 723 248 766 248 819 c 0
 248 874 288 914 343 914 c 0
588 681 m 1
 605 617 l 1
 227 94 l 1
 257 89 274 87 298 87 c 0
 374 87 444 109 489 149 c 0
 522 177 542 207 561 258 c 1
 635 234 l 1
 546 0 l 1
 22 0 l 1
 6 65 l 1
 387 590 l 1
 354 593 341 594 327 594 c 0
 215 594 129 539 75 434 c 1
 6 463 l 1
 105 681 l 1
 588 681 l 1
EndSplineSet
Ligature: 0 0 'liga' Z uni0307
EndChar
StartChar: Amacron
Encoding: 308 256 202
Width: 720
Flags: W
HStem: 0 21G<-34 275 398 763> 242 85<258 441> 661 20G<297 452> 754 85<218 533>
DStem: 297 681 334 522 99 206 258 327
Fore
533 839 m 1
 533 754 l 1
 218 754 l 1
 218 839 l 1
 533 839 l 1
452 681 m 1
 648 193 l 1
 682 104 691 94 747 84 c 2
 763 82 l 1
 763 0 l 1
 398 0 l 1
 398 82 l 1
 423 84 l 2
 464 87 482 96 482 114 c 0
 482 122 478 139 471 157 c 1
 441 242 l 1
 226 242 l 1
 194 156 l 1
 189 145 185 126 185 120 c 0
 185 101 205 91 259 84 c 2
 275 82 l 1
 275 0 l 1
 -34 0 l 1
 -34 82 l 1
 -18 84 l 2
 38 93 61 118 99 206 c 1
 297 681 l 1
 452 681 l 1
258 327 m 1
 408 327 l 1
 334 522 l 1
 258 327 l 1
EndSplineSet
Ligature: 0 0 'liga' A uni0304
EndChar
StartChar: Tcommaaccent
Encoding: 309 354 203
Width: 700
Flags: W
HStem: 0 21G<162 533> 588 93<71 250 71 461>
VStem: 260 175<168 575> 270 160<-145 -129>
Fore
329 -306 m 1xd0
 286 -261 l 1
 310 -240 324 -223 335 -202 c 1
 292 -194 270 -168 270 -129 c 0
 270 -84 304 -50 348 -50 c 0
 397 -50 430 -89 430 -145 c 0
 430 -204 392 -265 329 -306 c 1xd0
622 681 m 1
 703 474 l 1
 630 445 l 1
 596 502 588 513 565 535 c 0
 528 571 490 590 455 590 c 0
 435 590 435 590 435 555 c 2
 435 168 l 2
 435 129 438 115 447 105 c 0
 456 94 481 85 503 84 c 2
 533 82 l 1
 533 0 l 1
 162 0 l 1
 162 82 l 1
 192 84 l 2
 214 85 239 94 248 105 c 0
 257 115 260 129 260 168 c 2
 260 552 l 2xe0
 260 583 258 588 243 588 c 0
 176 588 106 530 71 445 c 1
 -4 474 l 1
 71 681 l 1
 622 681 l 1
EndSplineSet
Ligature: 0 0 'liga' T uni0327
EndChar
StartChar: Ydieresis
Encoding: 310 376 204
Width: 700
Flags: W
HStem: 0 21G<159 526> 599 82<-20 360 412 440.156> 738 139<241 257 475 498>
VStem: 183 139<799 817> 255 175<168 276> 417 139<799 817>
DStem: 458 519 559 488 380 390 430 288
Fore
252 877 m 0xf0
 289 877 322 843 322 805 c 0
 322 769 291 738 253 738 c 0
 214 738 183 769 183 808 c 0
 183 848 212 877 252 877 c 0xf0
486 877 m 0
 523 877 556 843 556 805 c 0
 556 769 525 738 487 738 c 0
 448 738 417 769 417 808 c 0xe4
 417 848 446 877 486 877 c 0
430 288 m 1xe8
 430 168 l 2
 430 129 433 115 442 105 c 0
 451 94 475 86 498 84 c 2
 526 82 l 1
 526 0 l 1
 159 0 l 1
 159 82 l 1
 187 84 l 2
 210 86 234 94 243 105 c 0
 252 115 255 130 255 168 c 2
 255 276 l 1
 115 495 l 1
 69 570 40 593 -20 599 c 1
 -20 681 l 1
 360 681 l 1
 360 599 l 1
 303 598 282 592 282 575 c 0
 282 569 282 569 298 539 c 2
 380 390 l 1
 458 519 l 2
 479 554 486 568 486 577 c 0
 486 593 470 598 412 599 c 1
 412 681 l 1
 718 681 l 1
 718 599 l 1
 649 595 611 569 559 488 c 2
 430 288 l 1xe8
EndSplineSet
Ligature: 0 0 'liga' Y uni0308
EndChar
StartChar: Emacron
Encoding: 311 274 205
Width: 720
Flags: W
HStem: 0 90<355 614> 502 20G<414 492> 591 90<20 405> 754 85<198 513>
VStem: 108 175<143 321 168 529>
Fore
513 839 m 1
 513 754 l 1
 198 754 l 1
 198 839 l 1
 513 839 l 1
492 522 m 1
 492 211 l 1
 414 211 l 1
 408 256 396 289 380 304 c 0
 367 316 346 321 311 321 c 2
 283 321 l 1
 283 203 l 2
 283 137 284 124 288 114 c 0
 295 98 321 90 366 90 c 0
 480 90 567 144 654 269 c 1
 724 236 l 1
 614 0 l 1
 20 0 l 1
 20 82 l 1
 40 84 l 2
 96 90 108 104 108 168 c 2
 108 513 l 2
 108 577 96 591 40 597 c 2
 20 599 l 1
 20 681 l 1
 597 681 l 1
 696 475 l 1
 628 441 l 1
 561 538 477 591 389 591 c 0
 337 591 302 584 292 571 c 0
 284 561 283 551 283 498 c 2
 283 413 l 1
 312 413 l 2
 358 413 375 416 387 425 c 0
 405 439 413 468 414 522 c 1
 492 522 l 1
EndSplineSet
Ligature: 0 0 'liga' E uni0304
EndChar
StartChar: Imacron
Encoding: 312 298 206
Width: 400
Flags: W
HStem: 0 21G<20 379> 661 20G<20 379> 754 85<38 353>
VStem: 112 175<168 529>
Fore
353 839 m 1
 353 754 l 1
 38 754 l 1
 38 839 l 1
 353 839 l 1
112 168 m 2
 112 513 l 2
 112 551 109 566 100 576 c 0
 91 587 68 595 44 597 c 2
 20 599 l 1
 20 681 l 1
 379 681 l 1
 379 599 l 1
 355 597 l 2
 331 595 308 587 299 576 c 0
 290 566 287 551 287 513 c 2
 287 168 l 2
 287 130 290 115 299 105 c 0
 308 94 331 86 355 84 c 2
 379 82 l 1
 379 0 l 1
 20 0 l 1
 20 82 l 1
 44 84 l 2
 68 86 91 94 100 105 c 0
 109 115 112 130 112 168 c 2
EndSplineSet
Ligature: 0 0 'liga' I uni0304
EndChar
StartChar: Iogonek
Encoding: 313 302 207
Width: 400
Flags: W
HStem: -170 71<344 378> -20 20G<20 309> 661 20G<20 379>
VStem: 267 79<-91 -63>
Fore
379 82 m 1
 379 0 l 1
 355 -21 346 -37 346 -63 c 0
 346 -87 357 -99 378 -99 c 0
 394 -99 405 -94 429 -77 c 1
 445 -107 l 1
 425 -147 388 -170 344 -170 c 0
 297 -170 267 -139 267 -91 c 0
 267 -54 279 -29 309 0 c 1
 20 0 l 1
 20 82 l 1
 44 84 l 2
 68 86 91 94 100 105 c 0
 109 115 112 130 112 168 c 2
 112 513 l 2
 112 551 109 566 100 576 c 0
 91 587 68 595 44 597 c 2
 20 599 l 1
 20 681 l 1
 379 681 l 1
 379 599 l 1
 355 597 l 2
 331 595 308 587 299 576 c 0
 290 566 287 551 287 513 c 2
 287 168 l 2
 287 130 290 115 299 105 c 0
 308 94 331 86 355 84 c 2
 379 82 l 1
EndSplineSet
Ligature: 0 0 'liga' I uni0328
EndChar
StartChar: Kcommaaccent
Encoding: 314 310 208
Width: 800
Flags: W
HStem: 0 21G<20 364 417 796> 661 20G<20 364 417 755>
VStem: 108 175<168 262 168 540> 320 160<-145 -129>
DStem: 365 333 490 443 468 163 636 214
Fore
379 -306 m 1
 336 -261 l 1
 360 -240 374 -223 385 -202 c 1
 342 -194 320 -168 320 -129 c 0
 320 -84 354 -50 398 -50 c 0
 447 -50 480 -89 480 -145 c 0
 480 -204 442 -265 379 -306 c 1
490 443 m 1
 636 214 l 2
 705 106 721 93 796 82 c 1
 796 0 l 1
 417 0 l 1
 417 82 l 1
 435 84 l 2
 489 90 496 93 496 110 c 0
 496 117 493 125 484 138 c 0
 477 149 471 159 468 163 c 2
 365 333 l 1
 283 262 l 1
 283 168 l 2
 283 102 290 93 351 84 c 2
 364 82 l 1
 364 0 l 1
 20 0 l 1
 20 82 l 1
 40 84 l 2
 96 90 108 104 108 168 c 2
 108 513 l 2
 108 577 96 591 40 597 c 2
 20 599 l 1
 20 681 l 1
 364 681 l 1
 364 599 l 1
 351 597 l 2
 290 588 283 579 283 513 c 2
 283 378 l 1
 451 538 l 2
 484 569 484 569 484 579 c 0
 484 585 481 589 475 592 c 0
 470 594 441 599 434 599 c 2
 417 599 l 1
 417 681 l 1
 755 681 l 1
 755 599 l 1
 670 588 620 562 531 481 c 2
 490 443 l 1
EndSplineSet
Ligature: 0 0 'liga' K uni0327
EndChar
StartChar: Lcommaaccent
Encoding: 315 315 209
Width: 640
Flags: W
HStem: 0 90<325.182 357> 661 20G<20 371>
VStem: 108 175<141 527> 240 160<-145 -129>
Fore
299 -306 m 1xd0
 256 -261 l 1
 280 -240 294 -223 305 -202 c 1
 262 -194 240 -168 240 -129 c 0
 240 -84 274 -50 318 -50 c 0
 367 -50 400 -89 400 -145 c 0
 400 -204 362 -265 299 -306 c 1xd0
668 238 m 1
 564 0 l 1
 20 0 l 1
 20 82 l 1
 40 84 l 2
 96 90 108 104 108 168 c 2
 108 513 l 2
 108 577 96 591 40 597 c 2
 20 599 l 1
 20 681 l 1
 371 681 l 1
 371 599 l 1
 351 597 l 2
 295 591 283 577 283 513 c 2
 283 181 l 2xe0
 283 118 283 118 287 109 c 0
 293 97 314 90 344 90 c 0
 443 90 531 154 599 275 c 1
 668 238 l 1
EndSplineSet
Ligature: 0 0 'liga' L uni0327
EndChar
StartChar: Ncommaaccent
Encoding: 316 325 210
Width: 740
Flags: W
HStem: 0 21G<20 289 512 636> 661 20G<20 315 455 724>
VStem: 108 93<168 526> 290 160<-145 -129> 543 93<288 528>
DStem: 201 526 315 681 512 0 543 288
Fore
349 -306 m 1
 306 -261 l 1
 330 -240 344 -223 355 -202 c 1
 312 -194 290 -168 290 -129 c 0
 290 -84 324 -50 368 -50 c 0
 417 -50 450 -89 450 -145 c 0
 450 -204 412 -265 349 -306 c 1
315 681 m 1
 543 288 l 1
 543 513 l 2
 543 577 531 591 475 597 c 2
 455 599 l 1
 455 681 l 1
 724 681 l 1
 724 599 l 1
 704 597 l 2
 648 591 636 577 636 513 c 2
 636 0 l 1
 512 0 l 1
 201 526 l 1
 201 168 l 2
 201 104 213 90 269 84 c 2
 289 82 l 1
 289 0 l 1
 20 0 l 1
 20 82 l 1
 40 84 l 2
 96 90 108 104 108 168 c 2
 108 513 l 2
 108 577 96 591 40 597 c 2
 20 599 l 1
 20 681 l 1
 315 681 l 1
EndSplineSet
Ligature: 0 0 'liga' N uni0327
EndChar
StartChar: Omacron
Encoding: 317 332 211
Width: 800
Flags: W
HStem: -13 102<386 408> 592 102<390 420> 754 85<238 553>
VStem: 35 192<322 356> 577 192<322 372>
Fore
553 839 m 1
 553 754 l 1
 238 754 l 1
 238 839 l 1
 553 839 l 1
405 694 m 0
 501 694 587 664 654 608 c 0
 731 543 769 457 769 346 c 0
 769 142 606 -13 392 -13 c 0
 304 -13 234 10 168 59 c 0
 79 126 35 217 35 334 c 0
 35 542 191 694 405 694 c 0
406 592 m 0
 300 592 227 489 227 338 c 0
 227 266 246 194 276 151 c 0
 303 113 351 89 400 89 c 0
 506 89 577 192 577 344 c 0
 577 500 513 592 406 592 c 0
EndSplineSet
Ligature: 0 0 'liga' O uni0304
EndChar
StartChar: Rcommaaccent
Encoding: 318 342 212
Width: 780
Flags: W
HStem: 0 21G<20 371 551 783> 588 93<20 390>
VStem: 108 175<168 293 168 544> 310 160<-145 -129> 502 204<487 501>
DStem: 335 293 539 314 551 0 665 151
Fore
369 -306 m 1
 326 -261 l 1
 350 -240 364 -223 375 -202 c 1
 332 -194 310 -168 310 -129 c 0
 310 -84 344 -50 388 -50 c 0
 437 -50 470 -89 470 -145 c 0
 470 -204 432 -265 369 -306 c 1
539 314 m 1
 665 151 l 1
 704 99 724 87 783 82 c 1
 783 0 l 1
 551 0 l 1
 335 293 l 1
 283 293 l 1
 283 168 l 2
 283 104 295 90 351 84 c 2
 371 82 l 1
 371 0 l 1
 20 0 l 1
 20 82 l 1
 40 84 l 2
 96 90 108 104 108 168 c 2
 108 513 l 2
 108 577 96 591 40 597 c 2
 20 599 l 1
 20 681 l 1
 409 681 l 2
 504 681 565 671 614 648 c 0
 669 621 706 562 706 499 c 0
 706 407 643 338 539 314 c 1
283 388 m 1
 354 388 l 2
 401 388 429 394 454 408 c 0
 484 424 502 455 502 489 c 0
 502 517 489 546 469 562 c 0
 446 581 417 588 360 588 c 0
 330 588 309 585 296 578 c 0
 285 572 283 567 283 544 c 2
 283 388 l 1
EndSplineSet
Ligature: 0 0 'liga' R uni0327
EndChar
StartChar: Gcommaaccent
Encoding: 319 290 213
Width: 780
Flags: W
HStem: -13 97<356 400> 268 82<448 465.931> 597 97<373 394>
VStem: 35 192<317 352> 310 160<-145 -129> 536 158<182 207>
Fore
369 -306 m 1
 326 -261 l 1
 350 -240 364 -223 375 -202 c 1
 332 -194 310 -168 310 -129 c 0
 310 -84 344 -50 388 -50 c 0
 437 -50 470 -89 470 -145 c 0
 470 -204 432 -265 369 -306 c 1
448 268 m 1
 448 350 l 1
 773 350 l 1
 773 268 l 1
 757 266 l 2
 705 260 694 246 694 182 c 2
 694 -9 l 1
 585 -9 l 1
 562 49 l 1
 522 27 507 19 494 13 c 0
 455 -3 402 -13 356 -13 c 0
 274 -13 195 16 141 67 c 0
 75 128 35 232 35 340 c 0
 35 547 175 694 373 694 c 0
 431 694 506 676 547 652 c 1
 562 681 l 1
 626 681 l 1
 687 452 l 1
 615 427 l 1
 586 479 569 504 546 527 c 0
 503 571 447 597 392 597 c 0
 293 597 227 489 227 327 c 0
 227 184 298 84 400 84 c 0
 472 84 536 140 536 203 c 0
 536 246 507 267 448 268 c 1
EndSplineSet
Ligature: 0 0 'liga' G uni0327
EndChar
StartChar: Umacron
Encoding: 320 362 214
Width: 740
Flags: W
HStem: -13 105<371 404> 661 20G<15 366 450 724> 754 85<208 523>
VStem: 103 175<226 532> 538 98<226 532>
Fore
523 839 m 1
 523 754 l 1
 208 754 l 1
 208 839 l 1
 523 839 l 1
636 513 m 2
 636 251 l 2
 636 138 622 92 575 50 c 0
 531 11 453 -13 371 -13 c 0
 284 -13 201 15 155 59 c 0
 115 98 103 138 103 230 c 2
 103 513 l 2
 103 577 91 591 35 597 c 2
 15 599 l 1
 15 681 l 1
 366 681 l 1
 366 599 l 1
 346 597 l 2
 290 591 278 577 278 513 c 2
 278 249 l 2
 278 188 285 160 308 132 c 0
 330 105 362 92 404 92 c 0
 441 92 474 102 497 120 c 0
 527 144 538 178 538 246 c 2
 538 513 l 2
 538 577 526 591 470 597 c 2
 450 599 l 1
 450 681 l 1
 724 681 l 1
 724 599 l 1
 704 597 l 2
 648 591 636 577 636 513 c 2
EndSplineSet
Ligature: 0 0 'liga' U uni0304
EndChar
StartChar: Uogonek
Encoding: 321 370 215
Width: 740
Flags: W
HStem: -170 71<522 556> -13 105<371 404> 661 20G<15 366 450 724>
VStem: 103 175<228 535> 445 79<-91 -66> 538 98<228 535>
Fore
606 -77 m 1
 623 -107 l 1
 603 -147 566 -170 522 -170 c 0
 475 -170 445 -139 445 -91 c 0
 445 -53 457 -28 492 5 c 1
 448 -8 414 -13 371 -13 c 0
 285 -13 201 15 155 59 c 0
 115 98 103 138 103 230 c 2
 103 513 l 2
 103 577 91 591 35 597 c 2
 15 599 l 1
 15 681 l 1
 366 681 l 1
 366 599 l 1
 346 597 l 2
 290 591 278 577 278 513 c 2
 278 249 l 2
 278 188 285 160 308 132 c 0
 330 105 362 92 404 92 c 0
 441 92 474 102 497 120 c 0
 527 144 538 178 538 246 c 2
 538 513 l 2
 538 577 526 591 470 597 c 2
 450 599 l 1
 450 681 l 1
 724 681 l 1
 724 599 l 1
 704 597 l 2
 648 591 636 577 636 513 c 2
 636 251 l 2
 636 185 631 143 620 116 c 0
 614 99 607 89 576 50 c 0
 545 12 524 -35 524 -66 c 0
 524 -87 536 -99 556 -99 c 0
 572 -99 583 -94 606 -77 c 1
EndSplineSet
Ligature: 0 0 'liga' U uni0328
EndChar
StartChar: adieresis
Encoding: 322 228 216
Width: 580
Flags: W
HStem: -9 102<461 507> 419 92<251 270> 559 139<153 158 379 397>
VStem: 28 170<128 149> 46 151<363 377> 86 139<624 631> 320 139<624 631> 324 162<134 367>
Fore
155 698 m 0xe4
 192 698 225 664 225 626 c 0
 225 590 194 559 156 559 c 0
 117 559 86 590 86 629 c 0
 86 669 115 698 155 698 c 0xe4
389 698 m 0
 426 698 459 664 459 626 c 0
 459 590 428 559 390 559 c 0
 351 559 320 590 320 629 c 0xe2
 320 669 349 698 389 698 c 0
532 110 m 1
 588 42 l 1
 543 6 506 -9 461 -9 c 0
 415 -9 370 11 346 42 c 1
 296 8 243 -9 187 -9 c 0
 92 -9 28 46 28 128 c 0xf1
 28 204 78 257 178 287 c 0
 221 300 269 309 324 314 c 1
 324 365 l 2
 324 401 304 419 261 419 c 0
 240 419 218 412 206 401 c 0
 200 396 197 389 197 375 c 0
 197 351 193 337 183 325 c 0
 169 308 144 298 120 298 c 0
 78 298 46 331 46 373 c 0
 46 453 139 511 268 511 c 0
 346 511 413 491 448 457 c 0
 475 431 486 399 486 346 c 2
 486 149 l 1xe9
 487 111 487 111 490 104 c 0
 492 98 500 93 507 93 c 0
 512 93 517 96 525 104 c 0
 528 106 530 108 532 110 c 1
324 134 m 1
 324 234 l 1
 237 218 198 191 198 149 c 0
 198 119 217 99 245 99 c 0
 273 99 298 110 324 134 c 1
EndSplineSet
Ligature: 0 0 'liga' a uni0308
EndChar
StartChar: aacute
Encoding: 323 225 217
Width: 580
Flags: W
HStem: -9 102<461 507> 419 92<251 270>
VStem: 28 170<128 149> 46 151<363 377> 324 162<134 367>
Fore
205 554 m 1xc8
 185 603 l 1
 290 697 l 2
 321 724 349 738 374 738 c 0
 412 738 444 705 444 665 c 0
 444 627 416 599 364 588 c 2
 205 554 l 1xc8
532 110 m 1
 588 42 l 1
 543 6 506 -9 461 -9 c 0
 415 -9 370 11 346 42 c 1
 296 8 243 -9 187 -9 c 0
 92 -9 28 46 28 128 c 0xe8
 28 204 78 257 178 287 c 0
 221 300 269 309 324 314 c 1
 324 365 l 2
 324 401 304 419 261 419 c 0
 240 419 218 412 206 401 c 0
 200 396 197 389 197 375 c 0
 197 351 193 337 183 325 c 0
 169 308 144 298 120 298 c 0
 78 298 46 331 46 373 c 0xd8
 46 453 139 511 268 511 c 0
 346 511 413 491 448 457 c 0
 475 431 486 399 486 346 c 2
 486 149 l 1
 487 111 487 111 490 104 c 0
 492 98 500 93 507 93 c 0
 512 93 517 96 525 104 c 0
 528 106 530 108 532 110 c 1
324 134 m 1
 324 234 l 1
 237 218 198 191 198 149 c 0
 198 119 217 99 245 99 c 0
 273 99 298 110 324 134 c 1
EndSplineSet
Ligature: 0 0 'liga' a acutecomb
EndChar
StartChar: agrave
Encoding: 324 224 218
Width: 580
Flags: W
HStem: -9 102<461 507> 419 92<251 270>
VStem: 28 170<128 149> 46 151<363 377> 324 162<134 367>
Fore
351 554 m 1xc8
 192 588 l 2
 140 600 112 627 112 665 c 0
 112 704 145 738 182 738 c 0
 206 738 236 723 266 697 c 2
 371 603 l 1
 351 554 l 1xc8
532 110 m 1
 588 42 l 1
 543 6 506 -9 461 -9 c 0
 415 -9 370 11 346 42 c 1
 296 8 243 -9 187 -9 c 0
 92 -9 28 46 28 128 c 0xe8
 28 204 78 257 178 287 c 0
 221 300 269 309 324 314 c 1
 324 365 l 2
 324 401 304 419 261 419 c 0
 240 419 218 412 206 401 c 0
 200 396 197 389 197 375 c 0
 197 351 193 337 183 325 c 0
 169 308 144 298 120 298 c 0
 78 298 46 331 46 373 c 0xd8
 46 453 139 511 268 511 c 0
 346 511 413 491 448 457 c 0
 475 431 486 399 486 346 c 2
 486 149 l 1
 487 111 487 111 490 104 c 0
 492 98 500 93 507 93 c 0
 512 93 517 96 525 104 c 0
 528 106 530 108 532 110 c 1
324 134 m 1
 324 234 l 1
 237 218 198 191 198 149 c 0
 198 119 217 99 245 99 c 0
 273 99 298 110 324 134 c 1
EndSplineSet
Ligature: 0 0 'liga' a gravecomb
EndChar
StartChar: acircumflex
Encoding: 325 226 219
Width: 580
Flags: W
HStem: -9 102<461 507> 419 92<251 274>
VStem: 28 170<128 149> 46 151<363 377> 324 162<134 367>
Fore
451 622 m 1xc8
 413 555 l 1
 269 609 l 1
 127 555 l 1
 89 622 l 1
 271 731 l 1
 451 622 l 1xc8
532 110 m 1
 588 42 l 1
 543 6 506 -9 461 -9 c 0
 415 -9 370 11 346 42 c 1
 296 8 243 -9 187 -9 c 0
 92 -9 28 46 28 128 c 0xe8
 28 204 78 257 178 287 c 0
 221 300 269 309 324 314 c 1
 324 365 l 2
 324 401 304 419 261 419 c 0
 240 419 218 412 206 401 c 0
 200 396 197 389 197 375 c 0
 197 351 193 337 183 325 c 0
 169 308 144 298 120 298 c 0
 78 298 46 331 46 373 c 0xd8
 46 453 139 511 268 511 c 0
 346 511 413 491 448 457 c 0
 475 431 486 399 486 346 c 2
 486 149 l 1
 487 111 487 111 490 104 c 0
 492 98 500 93 507 93 c 0
 512 93 517 96 525 104 c 0
 528 106 530 108 532 110 c 1
324 134 m 1
 324 234 l 1
 237 218 198 191 198 149 c 0
 198 119 217 99 245 99 c 0
 273 99 298 110 324 134 c 1
EndSplineSet
Ligature: 0 0 'liga' a uni0302
EndChar
StartChar: abreve
Encoding: 326 259 220
Width: 580
Flags: W
HStem: -9 102<461 507> 419 92<251 270> 556 108<290 301>
VStem: 28 170<128 149> 46 151<363 377> 324 162<134 367>
Fore
416 725 m 1xe4
 469 699 l 1
 441 616 366 556 290 556 c 0
 215 556 155 603 108 699 c 1
 158 725 l 1
 193 686 240 664 290 664 c 0
 336 664 380 686 416 725 c 1xe4
532 110 m 1
 588 42 l 1
 543 6 506 -9 461 -9 c 0
 415 -9 370 11 346 42 c 1
 296 8 243 -9 187 -9 c 0
 92 -9 28 46 28 128 c 0xf4
 28 204 78 257 178 287 c 0
 221 300 269 309 324 314 c 1
 324 365 l 2
 324 401 304 419 261 419 c 0
 240 419 218 412 206 401 c 0
 200 396 197 389 197 375 c 0
 197 351 193 337 183 325 c 0
 169 308 144 298 120 298 c 0
 78 298 46 331 46 373 c 0xec
 46 453 139 511 268 511 c 0
 346 511 413 491 448 457 c 0
 475 431 486 399 486 346 c 2
 486 149 l 1
 487 111 487 111 490 104 c 0
 492 98 500 93 507 93 c 0
 512 93 517 96 525 104 c 0
 528 106 530 108 532 110 c 1
324 134 m 1
 324 234 l 1
 237 218 198 191 198 149 c 0
 198 119 217 99 245 99 c 0
 273 99 298 110 324 134 c 1
EndSplineSet
Ligature: 0 0 'liga' a uni0306
EndChar
StartChar: atilde
Encoding: 327 227 221
Width: 580
Flags: W
HStem: -9 102<461 507> 419 92<251 270> 564 106<328 360> 594 105<189 225>
VStem: 28 170<128 149> 46 151<363 377> 324 162<134 367>
Fore
401 694 m 1xe2
 451 669 l 1
 430 595 393 564 328 564 c 0xe2
 299 564 291 566 227 587 c 0
 214 591 200 594 189 594 c 0
 173 594 164 588 151 570 c 1
 99 601 l 1
 120 661 169 699 225 699 c 0xd2
 245 699 267 695 294 686 c 0
 338 671 343 670 360 670 c 0
 381 670 390 675 401 694 c 1xe2
532 110 m 1
 588 42 l 1
 543 6 506 -9 461 -9 c 0
 415 -9 370 11 346 42 c 1
 296 8 243 -9 187 -9 c 0
 92 -9 28 46 28 128 c 0xca
 28 204 78 257 178 287 c 0
 221 300 269 309 324 314 c 1
 324 365 l 2
 324 401 304 419 261 419 c 0
 240 419 218 412 206 401 c 0
 200 396 197 389 197 375 c 0
 197 351 193 337 183 325 c 0
 169 308 144 298 120 298 c 0
 78 298 46 331 46 373 c 0xc6
 46 453 139 511 268 511 c 0
 346 511 413 491 448 457 c 0
 475 431 486 399 486 346 c 2
 486 149 l 1
 487 111 487 111 490 104 c 0
 492 98 500 93 507 93 c 0
 512 93 517 96 525 104 c 0
 528 106 530 108 532 110 c 1
324 134 m 1
 324 234 l 1
 237 218 198 191 198 149 c 0
 198 119 217 99 245 99 c 0
 273 99 298 110 324 134 c 1
EndSplineSet
Ligature: 0 0 'liga' a tildecomb
EndChar
StartChar: aring
Encoding: 328 229 222
Width: 580
Flags: W
HStem: -9 102<461 507> 419 92<251 272> 551 65<260 271> 690 65<268 272>
VStem: 28 170<128 149> 46 151<363 377> 165 68<646 656> 304 68<646 657> 324 162<134 367>
Fore
268 755 m 0xf3
 326 755 372 709 372 651 c 0
 372 597 325 551 269 551 c 0
 212 551 165 597 165 653 c 0
 165 709 212 755 268 755 c 0xf3
268 690 m 0
 249 690 233 674 233 654 c 0
 233 633 249 616 268 616 c 0
 288 616 304 633 304 653 c 0
 304 673 288 690 268 690 c 0
532 110 m 1
 588 42 l 1
 543 6 506 -9 461 -9 c 0
 415 -9 370 11 346 42 c 1
 296 8 243 -9 187 -9 c 0
 92 -9 28 46 28 128 c 0xf880
 28 204 78 257 178 287 c 0
 221 300 269 309 324 314 c 1
 324 365 l 2
 324 401 304 419 261 419 c 0
 240 419 218 412 206 401 c 0
 200 396 197 389 197 375 c 0
 197 351 193 337 183 325 c 0
 169 308 144 298 120 298 c 0
 78 298 46 331 46 373 c 0
 46 453 139 511 268 511 c 0
 346 511 413 491 448 457 c 0
 475 431 486 399 486 346 c 2
 486 149 l 1xf480
 487 111 487 111 490 104 c 0
 492 98 500 93 507 93 c 0
 512 93 517 96 525 104 c 0
 528 106 530 108 532 110 c 1
324 134 m 1
 324 234 l 1
 237 218 198 191 198 149 c 0
 198 119 217 99 245 99 c 0
 273 99 298 110 324 134 c 1
EndSplineSet
Ligature: 0 0 'liga' a uni030A
EndChar
StartChar: aogonek
Encoding: 329 261 223
Width: 580
Flags: W
HStem: -170 263<499 507> 419 92<251 270>
VStem: 28 170<128 149> 46 151<363 377> 324 162<134 367> 422 79<-91 -63>
Fore
532 110 m 1xd8
 588 42 l 1
 507 -21 501 -28 501 -63 c 0
 501 -87 512 -99 533 -99 c 0
 549 -99 560 -94 584 -77 c 1
 600 -107 l 1
 580 -147 543 -170 499 -170 c 0
 452 -170 422 -139 422 -91 c 0
 422 -59 432 -35 455 -9 c 1
 414 -8 366 14 346 42 c 1
 296 8 243 -9 187 -9 c 0
 92 -9 28 46 28 128 c 0xe4
 28 204 78 257 178 287 c 0
 221 300 269 309 324 314 c 1
 324 365 l 2
 324 401 304 419 261 419 c 0
 240 419 218 412 206 401 c 0
 200 396 197 389 197 375 c 0
 197 351 193 337 183 325 c 0
 169 308 144 298 120 298 c 0
 78 298 46 331 46 373 c 0
 46 453 139 511 268 511 c 0
 346 511 413 491 448 457 c 0
 475 431 486 399 486 346 c 2
 486 149 l 1
 487 111 487 111 490 104 c 0
 492 98 500 93 507 93 c 0
 512 93 517 96 525 104 c 0
 528 106 530 108 532 110 c 1xd8
324 134 m 1xe8
 324 234 l 1
 237 218 198 191 198 149 c 0
 198 119 217 99 245 99 c 0
 273 99 298 110 324 134 c 1xe8
EndSplineSet
Ligature: 0 0 'liga' a uni0328
EndChar
StartChar: cacute
Encoding: 330 263 224
Width: 580
Flags: W
HStem: -9 97<298 328> 419 92<305 307>
VStem: 31 178<246 264> 361 166<350 364>
Fore
258 554 m 1
 238 603 l 1
 343 697 l 2
 374 724 402 738 427 738 c 0
 465 738 497 705 497 665 c 0
 497 627 469 599 417 588 c 2
 258 554 l 1
469 186 m 1
 550 144 l 1
 510 48 417 -9 298 -9 c 0
 140 -9 31 97 31 251 c 0
 31 408 139 511 305 511 c 0
 429 511 527 446 527 364 c 0
 527 317 491 282 444 282 c 0
 401 282 361 315 361 350 c 1
 362 379 l 1
 362 400 335 419 305 419 c 0
 244 419 209 361 209 260 c 0
 209 156 256 88 328 88 c 0
 386 88 433 121 469 186 c 1
EndSplineSet
Ligature: 0 0 'liga' c acutecomb
EndChar
StartChar: ccaron
Encoding: 331 269 225
Width: 580
Flags: W
HStem: -9 97<298 328> 419 92<305 313>
VStem: 31 178<246 264> 361 166<350 364>
Fore
128 665 m 1
 166 731 l 1
 310 678 l 1
 452 731 l 1
 490 665 l 1
 308 555 l 1
 128 665 l 1
469 186 m 1
 550 144 l 1
 510 48 417 -9 298 -9 c 0
 140 -9 31 97 31 251 c 0
 31 408 139 511 305 511 c 0
 429 511 527 446 527 364 c 0
 527 317 491 282 444 282 c 0
 401 282 361 315 361 350 c 1
 362 379 l 1
 362 400 335 419 305 419 c 0
 244 419 209 361 209 260 c 0
 209 156 256 88 328 88 c 0
 386 88 433 121 469 186 c 1
EndSplineSet
Ligature: 0 0 'liga' c uni030C
EndChar
StartChar: ccedilla
Encoding: 332 231 226
Width: 580
Flags: W
HStem: -213 65<302 309> -9 97<305 327> 419 92<302 310>
VStem: 31 179<234 268> 338 83<-121 -114>
Fore
305 -9 m 1
 305 -44 l 1
 328 -42 333 -42 341 -42 c 0
 387 -42 421 -74 421 -117 c 0
 421 -173 372 -213 304 -213 c 0
 247 -213 205 -187 205 -153 c 0
 205 -132 219 -119 239 -119 c 0
 251 -119 257 -122 270 -131 c 0
 286 -144 294 -148 307 -148 c 0
 325 -148 338 -135 338 -116 c 0
 338 -90 316 -75 277 -75 c 0
 270 -75 264 -75 244 -77 c 1
 252 -7 l 1
 208 2 185 10 159 24 c 0
 80 65 31 151 31 251 c 0
 31 408 139 511 305 511 c 0
 429 511 527 446 527 364 c 0
 527 317 491 282 444 282 c 0
 401 282 361 315 361 350 c 1
 362 379 l 1
 362 400 335 419 306 419 c 0
 246 419 210 354 210 245 c 0
 210 156 260 88 327 88 c 0
 386 88 433 120 469 186 c 1
 550 144 l 1
 515 53 418 -8 305 -9 c 1
EndSplineSet
Ligature: 0 0 'liga' c uni0327
EndChar
StartChar: dcaron
Encoding: 333 271 227
Width: 720
Flags: W
HStem: -9 105<260 293> 403 108<268 303>
VStem: 31 170<230 264> 383 162<137 374 482 724> 560 160<629 645>
Fore
619 468 m 1
 576 513 l 1
 600 534 614 551 625 572 c 1
 582 580 560 606 560 645 c 0
 560 690 594 724 638 724 c 0
 687 724 720 685 720 629 c 0
 720 570 682 509 619 468 c 1
545 724 m 1
 545 164 l 2
 545 106 551 96 589 88 c 2
 622 81 l 1
 622 0 l 1
 398 0 l 1
 398 38 l 1
 361 6 318 -9 260 -9 c 0
 205 -9 165 4 127 34 c 0
 66 81 31 159 31 245 c 0
 31 396 134 511 268 511 c 0
 308 511 349 501 383 482 c 1
 383 517 l 2
 383 578 374 591 324 598 c 2
 310 600 l 1
 310 681 l 1
 360 685 432 702 492 724 c 1
 545 724 l 1
383 138 m 1
 383 374 l 1
 360 393 333 403 303 403 c 0
 241 403 201 340 201 243 c 0
 201 157 239 96 293 96 c 0
 325 96 361 112 383 138 c 1
EndSplineSet
Ligature: 0 0 'liga' d uni030C
EndChar
StartChar: edieresis
Encoding: 334 235 228
Width: 580
Flags: W
HStem: -9 108<303 333> 254 77<218 536> 419 92<286 305> 559 139<173 178 398 416>
VStem: 31 181<230 254> 106 139<624 631> 340 139<624 631>
Fore
175 698 m 0xf6
 212 698 245 664 245 626 c 0
 245 590 214 559 176 559 c 0
 137 559 106 590 106 629 c 0
 106 669 135 698 175 698 c 0xf6
409 698 m 0
 446 698 479 664 479 626 c 0
 479 590 448 559 410 559 c 0
 371 559 340 590 340 629 c 0
 340 669 369 698 409 698 c 0
536 254 m 1
 212 254 l 1
 211 156 255 99 333 99 c 0
 384 99 425 126 464 184 c 1
 548 143 l 1
 523 102 511 86 492 66 c 0
 448 18 379 -9 303 -9 c 0
 145 -9 31 101 31 253 c 0xfa
 31 404 140 511 294 511 c 0
 390 511 471 469 510 400 c 0
 529 366 536 325 536 254 c 1
218 331 m 1
 359 331 l 1
 357 394 338 419 293 419 c 0
 248 419 221 386 218 331 c 1
EndSplineSet
Ligature: 0 0 'liga' e uni0308
EndChar
StartChar: eacute
Encoding: 335 233 229
Width: 580
Flags: W
HStem: -9 108<303 333> 254 77<218 536> 419 92<286 305>
VStem: 31 181<230 254>
Fore
227 554 m 1
 207 603 l 1
 312 697 l 2
 343 724 371 738 396 738 c 0
 434 738 466 705 466 665 c 0
 466 627 438 599 386 588 c 2
 227 554 l 1
536 254 m 1
 212 254 l 1
 211 156 255 99 333 99 c 0
 384 99 425 126 464 184 c 1
 548 143 l 1
 523 102 511 86 492 66 c 0
 448 18 379 -9 303 -9 c 0
 145 -9 31 101 31 253 c 0
 31 404 140 511 294 511 c 0
 390 511 471 469 510 400 c 0
 529 366 536 325 536 254 c 1
218 331 m 1
 359 331 l 1
 357 394 338 419 293 419 c 0
 248 419 221 386 218 331 c 1
EndSplineSet
Ligature: 0 0 'liga' e acutecomb
EndChar
StartChar: egrave
Encoding: 336 232 230
Width: 580
Flags: W
HStem: -9 108<303 333> 254 77<218 536> 419 92<286 305>
VStem: 31 181<230 254>
Fore
362 554 m 1
 203 588 l 2
 151 600 123 627 123 665 c 0
 123 704 156 738 193 738 c 0
 217 738 247 723 277 697 c 2
 382 603 l 1
 362 554 l 1
536 254 m 1
 212 254 l 1
 211 156 255 99 333 99 c 0
 384 99 425 126 464 184 c 1
 548 143 l 1
 523 102 511 86 492 66 c 0
 448 18 379 -9 303 -9 c 0
 145 -9 31 101 31 253 c 0
 31 404 140 511 294 511 c 0
 390 511 471 469 510 400 c 0
 529 366 536 325 536 254 c 1
218 331 m 1
 359 331 l 1
 357 394 338 419 293 419 c 0
 248 419 221 386 218 331 c 1
EndSplineSet
Ligature: 0 0 'liga' e gravecomb
EndChar
StartChar: ecircumflex
Encoding: 337 234 231
Width: 580
Flags: W
HStem: -9 108<303 333> 254 77<218 536> 419 92<286 305>
VStem: 31 181<230 254>
Fore
474 622 m 1
 436 555 l 1
 292 609 l 1
 150 555 l 1
 112 622 l 1
 294 731 l 1
 474 622 l 1
536 254 m 1
 212 254 l 1
 211 156 255 99 333 99 c 0
 384 99 425 126 464 184 c 1
 548 143 l 1
 523 102 511 86 492 66 c 0
 448 18 379 -9 303 -9 c 0
 145 -9 31 101 31 253 c 0
 31 404 140 511 294 511 c 0
 390 511 471 469 510 400 c 0
 529 366 536 325 536 254 c 1
218 331 m 1
 359 331 l 1
 357 394 338 419 293 419 c 0
 248 419 221 386 218 331 c 1
EndSplineSet
Ligature: 0 0 'liga' e uni0302
EndChar
StartChar: ecaron
Encoding: 338 283 232
Width: 580
Flags: W
HStem: -9 108<303 333> 254 77<218 536> 419 92<286 305>
VStem: 31 181<230 254>
Fore
108 665 m 1
 146 731 l 1
 290 678 l 1
 432 731 l 1
 470 665 l 1
 288 555 l 1
 108 665 l 1
536 254 m 1
 212 254 l 1
 211 156 255 99 333 99 c 0
 384 99 425 126 464 184 c 1
 548 143 l 1
 523 102 511 86 492 66 c 0
 448 18 379 -9 303 -9 c 0
 145 -9 31 101 31 253 c 0
 31 404 140 511 294 511 c 0
 390 511 471 469 510 400 c 0
 529 366 536 325 536 254 c 1
218 331 m 1
 359 331 l 1
 357 394 338 419 293 419 c 0
 248 419 221 386 218 331 c 1
EndSplineSet
Ligature: 0 0 'liga' e uni030C
EndChar
StartChar: edotaccent
Encoding: 339 279 233
Width: 580
Flags: W
HStem: -9 108<303 333> 254 77<218 536> 419 92<286 305> 551 191<286 305>
VStem: 31 181<230 254> 198 191<641 649>
Fore
293 742 m 0xf4
 344 742 389 696 389 643 c 0
 389 593 346 551 295 551 c 0
 241 551 198 594 198 647 c 0
 198 702 238 742 293 742 c 0xf4
536 254 m 1
 212 254 l 1
 211 156 255 99 333 99 c 0
 384 99 425 126 464 184 c 1
 548 143 l 1
 523 102 511 86 492 66 c 0
 448 18 379 -9 303 -9 c 0
 145 -9 31 101 31 253 c 0xf8
 31 404 140 511 294 511 c 0
 390 511 471 469 510 400 c 0
 529 366 536 325 536 254 c 1
218 331 m 1
 359 331 l 1
 357 394 338 419 293 419 c 0
 248 419 221 386 218 331 c 1
EndSplineSet
Ligature: 0 0 'liga' e uni0307
EndChar
StartChar: eogonek
Encoding: 340 281 234
Width: 580
Flags: W
HStem: -170 71<402 436> -9 108<300 333> 254 77<218 536> 419 92<286 304>
VStem: 31 181<229 254> 325 79<-91 -63>
Fore
536 254 m 1
 212 254 l 1
 211 156 255 99 333 99 c 0
 384 99 425 126 464 184 c 1
 548 143 l 1
 517 92 514 89 460 30 c 0
 411 -23 404 -35 404 -63 c 0
 404 -87 415 -99 436 -99 c 0
 452 -99 463 -94 486 -77 c 1
 503 -107 l 1
 483 -147 446 -170 402 -170 c 0
 355 -170 325 -139 325 -91 c 0
 325 -56 336 -30 363 -3 c 1
 341 -7 322 -9 300 -9 c 0
 145 -9 31 102 31 253 c 0
 31 404 140 511 294 511 c 0
 390 511 471 469 510 400 c 0
 529 366 536 325 536 254 c 1
218 331 m 1
 359 331 l 1
 357 394 338 419 293 419 c 0
 248 419 221 386 218 331 c 1
EndSplineSet
Ligature: 0 0 'liga' e uni0328
EndChar
StartChar: gbreve
Encoding: 341 287 235
Width: 580
Flags: W
HStem: -248 82<248 298> 133 82<270 298> 423 92<270 298> 468 125<505 522> 556 108<290 298>
VStem: 9 113<-115 -103> 54 162<311 329> 352 162<311 329>
Fore
416 725 m 1xc9
 469 699 l 1
 441 616 366 556 290 556 c 0
 215 556 155 603 108 699 c 1
 158 725 l 1
 193 686 240 664 290 664 c 0
 336 664 380 686 416 725 c 1xc9
253 87 m 2
 411 73 l 2
 513 64 566 18 566 -60 c 0
 566 -118 531 -179 482 -206 c 0
 434 -232 354 -248 269 -248 c 0
 213 -248 150 -240 110 -227 c 0
 45 -206 9 -166 9 -113 c 0xd5
 9 -72 31 -44 77 -23 c 1
 43 2 27 29 27 64 c 0
 27 124 64 171 123 185 c 1
 77 220 54 267 54 323 c 0
 54 433 148 515 276 515 c 0xe3
 303 515 323 512 363 503 c 1
 385 533 394 543 407 555 c 0
 432 577 472 593 505 593 c 0
 549 593 583 563 583 525 c 0
 583 494 556 468 522 468 c 0
 516 468 507 470 498 473 c 0
 477 480 476 480 467 480 c 0
 452 480 446 477 436 468 c 1xd3
 491 426 514 382 514 322 c 0
 514 211 422 133 292 133 c 0
 267 133 231 137 208 142 c 0
 202 143 196 144 193 144 c 0
 181 144 172 134 172 122 c 0
 172 99 187 92 253 87 c 2
284 423 m 0xe3
 237 423 216 390 216 315 c 0
 216 246 237 215 284 215 c 0
 330 215 352 246 352 313 c 0
 352 391 332 423 284 423 c 0xe3
332 -78 m 2
 155 -59 l 1
 134 -72 122 -89 122 -108 c 0xc5
 122 -141 183 -166 266 -166 c 0
 364 -166 411 -150 411 -118 c 0
 411 -94 394 -85 332 -78 c 2
EndSplineSet
Ligature: 0 0 'liga' g uni0306
EndChar
StartChar: idieresis
Encoding: 342 239 236
Width: 360
Flags: W
HStem: 0 21G<22 335> 482 20G<198 260> 559 139<55 79 299 306>
VStem: -2 139<623 631> 232 139<623 631>
Fore
67 698 m 0
 104 698 137 664 137 626 c 0
 137 590 106 559 68 559 c 0
 29 559 -2 590 -2 629 c 0
 -2 669 27 698 67 698 c 0
301 698 m 0
 338 698 371 664 371 626 c 0
 371 590 340 559 302 559 c 0
 263 559 232 590 232 629 c 0
 232 669 261 698 301 698 c 0
260 502 m 1
 260 164 l 2
 260 107 266 97 304 88 c 2
 335 81 l 1
 335 0 l 1
 22 0 l 1
 22 81 l 1
 54 88 l 2
 92 96 98 107 98 164 c 2
 98 308 l 2
 98 369 86 386 43 390 c 2
 22 392 l 1
 22 473 l 1
 198 502 l 1
 260 502 l 1
EndSplineSet
Ligature: 0 0 'liga' i uni0308
EndChar
StartChar: iacute
Encoding: 343 237 237
Width: 360
Flags: W
HStem: 0 21G<22 335> 482 20G<198 260>
Fore
96 554 m 1
 76 603 l 1
 181 697 l 2
 212 724 240 738 265 738 c 0
 303 738 335 705 335 665 c 0
 335 627 307 599 255 588 c 2
 96 554 l 1
260 502 m 1
 260 164 l 2
 260 107 266 97 304 88 c 2
 335 81 l 1
 335 0 l 1
 22 0 l 1
 22 81 l 1
 54 88 l 2
 92 96 98 107 98 164 c 2
 98 308 l 2
 98 369 86 386 43 390 c 2
 22 392 l 1
 22 473 l 1
 198 502 l 1
 260 502 l 1
EndSplineSet
Ligature: 0 0 'liga' i acutecomb
EndChar
StartChar: igrave
Encoding: 344 236 238
Width: 360
Flags: W
HStem: 0 21G<22 335> 482 20G<198 260>
Fore
261 554 m 1
 102 588 l 2
 50 600 22 627 22 665 c 0
 22 704 55 738 92 738 c 0
 116 738 146 723 176 697 c 2
 281 603 l 1
 261 554 l 1
260 502 m 1
 260 164 l 2
 260 107 266 97 304 88 c 2
 335 81 l 1
 335 0 l 1
 22 0 l 1
 22 81 l 1
 54 88 l 2
 92 96 98 107 98 164 c 2
 98 308 l 2
 98 369 86 386 43 390 c 2
 22 392 l 1
 22 473 l 1
 198 502 l 1
 260 502 l 1
EndSplineSet
Ligature: 0 0 'liga' i gravecomb
EndChar
StartChar: icircumflex
Encoding: 345 238 239
Width: 360
Flags: W
HStem: 0 21G<22 335> 482 20G<198 260>
Fore
360 622 m 1
 322 555 l 1
 178 609 l 1
 36 555 l 1
 -2 622 l 1
 180 731 l 1
 360 622 l 1
260 502 m 1
 260 164 l 2
 260 107 266 97 304 88 c 2
 335 81 l 1
 335 0 l 1
 22 0 l 1
 22 81 l 1
 54 88 l 2
 92 96 98 107 98 164 c 2
 98 308 l 2
 98 369 86 386 43 390 c 2
 22 392 l 1
 22 473 l 1
 198 502 l 1
 260 502 l 1
EndSplineSet
Ligature: 0 0 'liga' i uni0302
EndChar
StartChar: lacute
Encoding: 346 314 240
Width: 340
Flags: W
HStem: 0 21G<9 322>
VStem: 85 162<164 545>
Fore
58 726 m 1
 38 775 l 1
 143 869 l 2
 174 896 202 910 227 910 c 0
 265 910 297 877 297 837 c 0
 297 799 269 771 217 760 c 2
 58 726 l 1
247 724 m 1
 247 164 l 2
 247 107 253 97 291 88 c 2
 322 81 l 1
 322 0 l 1
 9 0 l 1
 9 81 l 1
 41 88 l 2
 79 96 85 107 85 164 c 2
 85 517 l 2
 85 556 82 570 72 580 c 0
 64 588 45 596 26 598 c 2
 9 600 l 1
 9 681 l 1
 76 687 119 697 181 724 c 1
 247 724 l 1
EndSplineSet
Ligature: 0 0 'liga' l acutecomb
EndChar
StartChar: lcaron
Encoding: 347 318 241
Width: 430
Flags: W
HStem: 0 21G<9 322>
VStem: 85 162<164 545> 270 160<629 645>
Fore
329 468 m 1
 286 513 l 1
 310 534 324 551 335 572 c 1
 292 580 270 606 270 645 c 0
 270 690 304 724 348 724 c 0
 397 724 430 685 430 629 c 0
 430 570 392 509 329 468 c 1
247 724 m 1
 247 164 l 2
 247 107 253 97 291 88 c 2
 322 81 l 1
 322 0 l 1
 9 0 l 1
 9 81 l 1
 41 88 l 2
 79 96 85 107 85 164 c 2
 85 517 l 2
 85 556 82 570 72 580 c 0
 64 588 45 596 26 598 c 2
 9 600 l 1
 9 681 l 1
 76 687 119 697 181 724 c 1
 247 724 l 1
EndSplineSet
Ligature: 0 0 'liga' l uni030C
EndChar
StartChar: nacute
Encoding: 348 324 242
Width: 680
Flags: W
HStem: 0 21G<22 319 354 652> 403 108<371 422>
VStem: 95 162<164 321> 416 162<164 354>
Fore
228 554 m 1
 208 603 l 1
 313 697 l 2
 344 724 372 738 397 738 c 0
 435 738 467 705 467 665 c 0
 467 627 439 599 387 588 c 2
 228 554 l 1
240 502 m 1
 240 459 l 1
 305 495 359 511 422 511 c 0
 476 511 511 497 541 464 c 0
 569 434 578 406 578 352 c 2
 578 164 l 2
 578 107 584 97 622 88 c 2
 652 81 l 1
 652 0 l 1
 354 0 l 1
 354 81 l 1
 372 86 l 2
 410 97 416 107 416 164 c 2
 416 339 l 2
 416 381 401 403 371 403 c 0
 341 403 297 386 257 359 c 1
 257 164 l 2
 257 107 263 97 301 86 c 2
 319 81 l 1
 319 0 l 1
 22 0 l 1
 22 81 l 1
 51 88 l 2
 89 97 95 107 95 164 c 2
 95 308 l 2
 95 369 84 385 40 390 c 2
 22 392 l 1
 22 473 l 1
 178 502 l 1
 240 502 l 1
EndSplineSet
Ligature: 0 0 'liga' n acutecomb
EndChar
StartChar: ncaron
Encoding: 349 328 243
Width: 680
Flags: W
HStem: 0 21G<22 319 354 652> 403 108<371 422>
VStem: 95 162<164 321> 416 162<164 354>
Fore
158 665 m 1
 196 731 l 1
 340 678 l 1
 482 731 l 1
 520 665 l 1
 338 555 l 1
 158 665 l 1
240 502 m 1
 240 459 l 1
 305 495 359 511 422 511 c 0
 476 511 511 497 541 464 c 0
 569 434 578 406 578 352 c 2
 578 164 l 2
 578 107 584 97 622 88 c 2
 652 81 l 1
 652 0 l 1
 354 0 l 1
 354 81 l 1
 372 86 l 2
 410 97 416 107 416 164 c 2
 416 339 l 2
 416 381 401 403 371 403 c 0
 341 403 297 386 257 359 c 1
 257 164 l 2
 257 107 263 97 301 86 c 2
 319 81 l 1
 319 0 l 1
 22 0 l 1
 22 81 l 1
 51 88 l 2
 89 97 95 107 95 164 c 2
 95 308 l 2
 95 369 84 385 40 390 c 2
 22 392 l 1
 22 473 l 1
 178 502 l 1
 240 502 l 1
EndSplineSet
Ligature: 0 0 'liga' n uni030C
EndChar
StartChar: ntilde
Encoding: 350 241 244
Width: 680
Flags: W
HStem: 0 21G<22 319 354 652> 403 108<371 422> 564 106<375 407> 594 105<236 272>
VStem: 95 162<164 321> 416 162<164 354>
Fore
448 694 m 1xec
 498 669 l 1
 477 595 440 564 375 564 c 0xec
 346 564 338 566 274 587 c 0
 261 591 247 594 236 594 c 0
 220 594 211 588 198 570 c 1
 146 601 l 1
 167 661 216 699 272 699 c 0xdc
 292 699 314 695 341 686 c 0
 385 671 390 670 407 670 c 0
 428 670 437 675 448 694 c 1xec
240 502 m 1
 240 459 l 1
 305 495 359 511 422 511 c 0
 476 511 511 497 541 464 c 0
 569 434 578 406 578 352 c 2
 578 164 l 2
 578 107 584 97 622 88 c 2
 652 81 l 1
 652 0 l 1
 354 0 l 1
 354 81 l 1
 372 86 l 2
 410 97 416 107 416 164 c 2
 416 339 l 2
 416 381 401 403 371 403 c 0
 341 403 297 386 257 359 c 1
 257 164 l 2
 257 107 263 97 301 86 c 2
 319 81 l 1
 319 0 l 1
 22 0 l 1
 22 81 l 1
 51 88 l 2
 89 97 95 107 95 164 c 2
 95 308 l 2
 95 369 84 385 40 390 c 2
 22 392 l 1
 22 473 l 1
 178 502 l 1
 240 502 l 1
EndSplineSet
Ligature: 0 0 'liga' n tildecomb
EndChar
StartChar: odieresis
Encoding: 351 246 245
Width: 620
Flags: W
HStem: -9 97<301 320> 409 102<301 320> 559 139<189 194 414 432>
VStem: 31 182<242 264> 122 139<624 631> 356 139<624 631> 403 182<230 264>
Fore
191 698 m 0xe8
 228 698 261 664 261 626 c 0
 261 590 230 559 192 559 c 0
 153 559 122 590 122 629 c 0
 122 669 151 698 191 698 c 0xe8
425 698 m 0
 462 698 495 664 495 626 c 0
 495 590 464 559 426 559 c 0
 387 559 356 590 356 629 c 0xe4
 356 669 385 698 425 698 c 0
303 511 m 0
 475 511 585 409 585 248 c 0
 585 92 476 -9 308 -9 c 0
 138 -9 31 94 31 258 c 0xf2
 31 409 141 511 303 511 c 0
309 409 m 0
 245 409 213 354 213 246 c 0
 213 142 246 88 309 88 c 0
 370 88 403 142 403 244 c 0
 403 354 372 409 309 409 c 0
EndSplineSet
Ligature: 0 0 'liga' o uni0308
EndChar
StartChar: oacute
Encoding: 352 243 246
Width: 620
Flags: W
HStem: -9 97<301 320> 409 102<301 320>
VStem: 31 182<242 264> 403 182<230 264>
Fore
245 554 m 1
 225 603 l 1
 330 697 l 2
 361 724 389 738 414 738 c 0
 452 738 484 705 484 665 c 0
 484 627 456 599 404 588 c 2
 245 554 l 1
303 511 m 0
 475 511 585 409 585 248 c 0
 585 92 476 -9 308 -9 c 0
 138 -9 31 94 31 258 c 0
 31 409 141 511 303 511 c 0
309 409 m 0
 245 409 213 354 213 246 c 0
 213 142 246 88 309 88 c 0
 370 88 403 142 403 244 c 0
 403 354 372 409 309 409 c 0
EndSplineSet
Ligature: 0 0 'liga' o acutecomb
EndChar
StartChar: ograve
Encoding: 353 242 247
Width: 620
Flags: W
HStem: -9 97<301 320> 409 102<301 320>
VStem: 31 182<242 264> 403 182<230 264>
Fore
388 554 m 1
 229 588 l 2
 177 600 149 627 149 665 c 0
 149 704 182 738 219 738 c 0
 243 738 273 723 303 697 c 2
 408 603 l 1
 388 554 l 1
303 511 m 0
 475 511 585 409 585 248 c 0
 585 92 476 -9 308 -9 c 0
 138 -9 31 94 31 258 c 0
 31 409 141 511 303 511 c 0
309 409 m 0
 245 409 213 354 213 246 c 0
 213 142 246 88 309 88 c 0
 370 88 403 142 403 244 c 0
 403 354 372 409 309 409 c 0
EndSplineSet
Ligature: 0 0 'liga' o gravecomb
EndChar
StartChar: ocircumflex
Encoding: 354 244 248
Width: 620
Flags: W
HStem: -9 97<301 320> 409 102<301 320>
VStem: 31 182<242 264> 403 182<230 264>
Fore
489 622 m 1
 451 555 l 1
 307 609 l 1
 165 555 l 1
 127 622 l 1
 309 731 l 1
 489 622 l 1
303 511 m 0
 475 511 585 409 585 248 c 0
 585 92 476 -9 308 -9 c 0
 138 -9 31 94 31 258 c 0
 31 409 141 511 303 511 c 0
309 409 m 0
 245 409 213 354 213 246 c 0
 213 142 246 88 309 88 c 0
 370 88 403 142 403 244 c 0
 403 354 372 409 309 409 c 0
EndSplineSet
Ligature: 0 0 'liga' o uni0302
EndChar
StartChar: otilde
Encoding: 355 245 249
Width: 620
Flags: W
HStem: -9 97<301 320> 409 102<301 320> 564 106<368 400> 594 105<229 265>
VStem: 31 182<242 264> 403 182<230 264>
Fore
441 694 m 1xec
 491 669 l 1
 470 595 433 564 368 564 c 0xec
 339 564 331 566 267 587 c 0
 254 591 240 594 229 594 c 0
 213 594 204 588 191 570 c 1
 139 601 l 1
 160 661 209 699 265 699 c 0xdc
 285 699 307 695 334 686 c 0
 378 671 383 670 400 670 c 0
 421 670 430 675 441 694 c 1xec
303 511 m 0
 475 511 585 409 585 248 c 0
 585 92 476 -9 308 -9 c 0
 138 -9 31 94 31 258 c 0
 31 409 141 511 303 511 c 0
309 409 m 0
 245 409 213 354 213 246 c 0
 213 142 246 88 309 88 c 0
 370 88 403 142 403 244 c 0
 403 354 372 409 309 409 c 0
EndSplineSet
Ligature: 0 0 'liga' o tildecomb
EndChar
StartChar: ohungarumlaut
Encoding: 356 337 250
Width: 620
Flags: W
HStem: -9 97<294 322> 409 102<294 322>
VStem: 31 182<242 264> 403 182<230 264>
Fore
158 568 m 1
 182 673 l 2
 194 726 207 741 243 741 c 0
 271 741 293 719 293 690 c 0
 293 672 282 650 265 633 c 2
 182 553 l 1
 158 568 l 1
320 568 m 1
 344 673 l 1
 356 727 369 741 405 741 c 0
 434 741 455 719 455 689 c 0
 455 672 444 649 427 633 c 2
 344 553 l 1
 320 568 l 1
303 511 m 0
 475 511 585 409 585 248 c 0
 585 92 476 -9 308 -9 c 0
 138 -9 31 94 31 258 c 0
 31 409 141 511 303 511 c 0
309 409 m 0
 245 409 213 354 213 246 c 0
 213 142 246 88 309 88 c 0
 370 88 403 142 403 244 c 0
 403 354 372 409 309 409 c 0
EndSplineSet
Ligature: 0 0 'liga' o uni030B
EndChar
StartChar: racute
Encoding: 357 341 251
Width: 460
Flags: W
HStem: 0 21G<22 330> 343 168<368 385>
VStem: 95 162<164 321>
Fore
198 554 m 1
 178 603 l 1
 283 697 l 2
 314 724 342 738 367 738 c 0
 405 738 437 705 437 665 c 0
 437 627 409 599 357 588 c 2
 198 554 l 1
240 502 m 1
 240 453 l 1
 306 500 331 511 372 511 c 0
 423 511 462 471 462 419 c 0
 462 375 428 343 383 343 c 0
 364 343 350 347 332 359 c 0
 309 374 309 374 297 374 c 0
 281 374 271 370 257 358 c 1
 257 164 l 2
 257 107 263 97 301 88 c 2
 330 81 l 1
 330 0 l 1
 22 0 l 1
 22 81 l 1
 51 88 l 2
 89 97 95 107 95 164 c 2
 95 308 l 2
 95 369 84 385 40 390 c 2
 22 392 l 1
 22 473 l 1
 178 502 l 1
 240 502 l 1
EndSplineSet
Ligature: 0 0 'liga' r acutecomb
EndChar
StartChar: sacute
Encoding: 358 347 252
Width: 520
Flags: W
HStem: -9 102<243 273> 419 92<227 257>
VStem: 30 145<337 380> 342 150<135 171>
Fore
228 554 m 1
 208 603 l 1
 313 697 l 2
 344 724 372 738 397 738 c 0
 435 738 467 705 467 665 c 0
 467 627 439 599 387 588 c 2
 228 554 l 1
437 502 m 1
 456 354 l 1
 374 342 l 1
 336 394 295 419 244 419 c 0
 204 419 175 402 175 380 c 0
 175 358 197 345 253 335 c 2
 328 321 l 2
 403 307 424 298 451 271 c 1
 478 246 492 210 492 171 c 0
 492 70 395 -9 271 -9 c 0
 224 -9 191 -2 140 21 c 1
 128 -4 l 1
 62 -4 l 1
 22 165 l 1
 99 181 l 1
 124 153 132 143 144 133 c 0
 172 108 215 93 255 93 c 0
 304 93 342 112 342 135 c 0
 342 159 316 172 254 181 c 2
 190 189 l 2
 86 203 30 255 30 337 c 0
 30 438 116 511 234 511 c 0
 280 511 310 503 362 478 c 1
 374 502 l 1
 437 502 l 1
EndSplineSet
Ligature: 0 0 'liga' s acutecomb
EndChar
StartChar: scaron
Encoding: 359 353 253
Width: 520
Flags: W
HStem: -9 102<243 273> 419 92<229 257>
VStem: 30 145<337 380> 342 150<135 171>
Fore
63 665 m 1
 101 731 l 1
 245 678 l 1
 387 731 l 1
 425 665 l 1
 243 555 l 1
 63 665 l 1
437 502 m 1
 456 354 l 1
 374 342 l 1
 336 394 295 419 244 419 c 0
 204 419 175 402 175 380 c 0
 175 358 197 345 253 335 c 2
 328 321 l 2
 403 307 424 298 451 271 c 1
 478 246 492 210 492 171 c 0
 492 70 395 -9 271 -9 c 0
 224 -9 191 -2 140 21 c 1
 128 -4 l 1
 62 -4 l 1
 22 165 l 1
 99 181 l 1
 124 153 132 143 144 133 c 0
 172 108 215 93 255 93 c 0
 304 93 342 112 342 135 c 0
 342 159 316 172 254 181 c 2
 190 189 l 2
 86 203 30 255 30 337 c 0
 30 438 116 511 234 511 c 0
 280 511 310 503 362 478 c 1
 374 502 l 1
 437 502 l 1
EndSplineSet
Ligature: 0 0 'liga' s uni030C
EndChar
StartChar: scommaaccent
Encoding: 360 537 254
Width: 520
Flags: W
HStem: -9 102<243 273> 419 92<229 259>
VStem: 30 145<337 380> 180 160<-145 -129> 342 150<135 171>
Fore
239 -306 m 1
 196 -261 l 1
 220 -240 234 -223 245 -202 c 1
 202 -194 180 -168 180 -129 c 0
 180 -84 214 -50 258 -50 c 0
 307 -50 340 -89 340 -145 c 0
 340 -204 302 -265 239 -306 c 1
437 502 m 1
 456 354 l 1
 374 342 l 1
 336 394 295 419 244 419 c 0
 204 419 175 402 175 380 c 0
 175 358 197 345 253 335 c 2
 328 321 l 2
 403 307 424 298 451 271 c 1
 478 246 492 210 492 171 c 0
 492 70 395 -9 271 -9 c 0
 224 -9 191 -2 140 21 c 1
 128 -4 l 1
 62 -4 l 1
 22 165 l 1
 99 181 l 1
 124 153 132 143 144 133 c 0
 172 108 215 93 255 93 c 0
 304 93 342 112 342 135 c 0
 342 159 316 172 254 181 c 2
 190 189 l 2
 86 203 30 255 30 337 c 0
 30 438 116 511 234 511 c 0
 280 511 310 503 362 478 c 1
 374 502 l 1
 437 502 l 1
EndSplineSet
Ligature: 0 0 'liga' s uni0326
EndChar
StartChar: tcaron
Encoding: 361 357 255
Width: 470
Flags: W
HStem: -9 116<234 296> 417 85<260 397>
VStem: 98 162<150 412> 310 160<629 645>
Fore
260 502 m 1
 315 502 l 1
 348 532 362 549 375 572 c 1
 332 580 310 606 310 645 c 0
 310 690 344 724 388 724 c 0
 437 724 470 685 470 629 c 0
 470 579 446 533 397 489 c 1
 397 417 l 1
 260 417 l 1
 260 175 l 2
 260 123 269 107 296 107 c 0
 321 107 341 119 385 162 c 1
 445 91 l 1
 387 21 324 -9 234 -9 c 0
 176 -9 136 11 114 50 c 0
 102 74 98 98 98 159 c 2
 98 412 l 1
 22 412 l 1
 22 491 l 1
 109 503 156 558 166 661 c 1
 260 661 l 1
 260 502 l 1
EndSplineSet
Ligature: 0 0 'liga' t uni030C
EndChar
StartChar: udieresis
Encoding: 362 252 256
Width: 660
Flags: W
HStem: -13 113<258 307> 482 20G<195 257 516 578> 559 139<209 214 433 455>
VStem: 95 162<146 324> 142 139<624 631> 376 139<624 631> 416 162<137 324>
Fore
211 698 m 0xe8
 248 698 281 664 281 626 c 0
 281 590 250 559 212 559 c 0
 173 559 142 590 142 629 c 0
 142 669 171 698 211 698 c 0xe8
445 698 m 0
 482 698 515 664 515 626 c 0
 515 590 484 559 446 559 c 0
 407 559 376 590 376 629 c 0xe4
 376 669 405 698 445 698 c 0
578 502 m 1xf2
 578 164 l 2
 578 107 584 97 622 88 c 2
 653 81 l 1
 653 0 l 1
 433 0 l 1
 433 39 l 1
 366 0 323 -13 258 -13 c 0
 210 -13 170 0 141 24 c 0
 106 55 95 89 95 169 c 2
 95 308 l 2
 95 369 84 385 40 390 c 2
 22 392 l 1
 22 473 l 1
 195 502 l 1
 257 502 l 1
 257 172 l 2
 257 114 267 100 307 100 c 0
 339 100 369 110 416 138 c 1
 416 308 l 2
 416 369 405 385 361 390 c 2
 343 392 l 1
 343 473 l 1
 516 502 l 1
 578 502 l 1xf2
EndSplineSet
Ligature: 0 0 'liga' u uni0308
EndChar
StartChar: uacute
Encoding: 363 250 257
Width: 660
Flags: W
HStem: -13 113<258 307> 482 20G<195 257 516 578>
VStem: 95 162<146 324> 416 162<137 324>
Fore
261 554 m 1
 241 603 l 1
 346 697 l 2
 377 724 405 738 430 738 c 0
 468 738 500 705 500 665 c 0
 500 627 472 599 420 588 c 2
 261 554 l 1
578 502 m 1
 578 164 l 2
 578 107 584 97 622 88 c 2
 653 81 l 1
 653 0 l 1
 433 0 l 1
 433 39 l 1
 366 0 323 -13 258 -13 c 0
 210 -13 170 0 141 24 c 0
 106 55 95 89 95 169 c 2
 95 308 l 2
 95 369 84 385 40 390 c 2
 22 392 l 1
 22 473 l 1
 195 502 l 1
 257 502 l 1
 257 172 l 2
 257 114 267 100 307 100 c 0
 339 100 369 110 416 138 c 1
 416 308 l 2
 416 369 405 385 361 390 c 2
 343 392 l 1
 343 473 l 1
 516 502 l 1
 578 502 l 1
EndSplineSet
Ligature: 0 0 'liga' u acutecomb
EndChar
StartChar: ugrave
Encoding: 364 249 258
Width: 660
Flags: W
HStem: -13 113<258 307> 482 20G<195 257 516 578>
VStem: 95 162<146 324> 416 162<137 324>
Fore
404 554 m 1
 245 588 l 2
 193 600 165 627 165 665 c 0
 165 704 198 738 235 738 c 0
 259 738 289 723 319 697 c 2
 424 603 l 1
 404 554 l 1
578 502 m 1
 578 164 l 2
 578 107 584 97 622 88 c 2
 653 81 l 1
 653 0 l 1
 433 0 l 1
 433 39 l 1
 366 0 323 -13 258 -13 c 0
 210 -13 170 0 141 24 c 0
 106 55 95 89 95 169 c 2
 95 308 l 2
 95 369 84 385 40 390 c 2
 22 392 l 1
 22 473 l 1
 195 502 l 1
 257 502 l 1
 257 172 l 2
 257 114 267 100 307 100 c 0
 339 100 369 110 416 138 c 1
 416 308 l 2
 416 369 405 385 361 390 c 2
 343 392 l 1
 343 473 l 1
 516 502 l 1
 578 502 l 1
EndSplineSet
Ligature: 0 0 'liga' u gravecomb
EndChar
StartChar: ucircumflex
Encoding: 365 251 259
Width: 660
Flags: W
HStem: -13 113<258 307> 482 20G<195 257 516 578>
VStem: 95 162<146 324> 416 162<137 324>
Fore
505 622 m 1
 467 555 l 1
 323 609 l 1
 181 555 l 1
 143 622 l 1
 325 731 l 1
 505 622 l 1
578 502 m 1
 578 164 l 2
 578 107 584 97 622 88 c 2
 653 81 l 1
 653 0 l 1
 433 0 l 1
 433 39 l 1
 366 0 323 -13 258 -13 c 0
 210 -13 170 0 141 24 c 0
 106 55 95 89 95 169 c 2
 95 308 l 2
 95 369 84 385 40 390 c 2
 22 392 l 1
 22 473 l 1
 195 502 l 1
 257 502 l 1
 257 172 l 2
 257 114 267 100 307 100 c 0
 339 100 369 110 416 138 c 1
 416 308 l 2
 416 369 405 385 361 390 c 2
 343 392 l 1
 343 473 l 1
 516 502 l 1
 578 502 l 1
EndSplineSet
Ligature: 0 0 'liga' u uni0302
EndChar
StartChar: uring
Encoding: 366 367 260
Width: 660
Flags: W
HStem: -13 113<258 307> 482 20G<195 257 516 578> 551 65<325 334> 690 65<331 335>
VStem: 95 162<146 324> 228 68<649 660> 367 68<649 660> 416 162<137 324>
Fore
331 755 m 0xf6
 389 755 435 709 435 651 c 0
 435 597 388 551 332 551 c 0
 275 551 228 597 228 653 c 0
 228 709 275 755 331 755 c 0xf6
331 690 m 0
 312 690 296 674 296 654 c 0
 296 633 312 616 331 616 c 0
 351 616 367 633 367 653 c 0
 367 673 351 690 331 690 c 0
578 502 m 1xf9
 578 164 l 2
 578 107 584 97 622 88 c 2
 653 81 l 1
 653 0 l 1
 433 0 l 1
 433 39 l 1
 366 0 323 -13 258 -13 c 0
 210 -13 170 0 141 24 c 0
 106 55 95 89 95 169 c 2
 95 308 l 2
 95 369 84 385 40 390 c 2
 22 392 l 1
 22 473 l 1
 195 502 l 1
 257 502 l 1
 257 172 l 2
 257 114 267 100 307 100 c 0
 339 100 369 110 416 138 c 1
 416 308 l 2
 416 369 405 385 361 390 c 2
 343 392 l 1
 343 473 l 1
 516 502 l 1
 578 502 l 1xf9
EndSplineSet
Ligature: 0 0 'liga' u uni030A
EndChar
StartChar: uhungarumlaut
Encoding: 367 369 261
Width: 660
Flags: W
HStem: -13 113<258 307> 482 20G<195 257 516 578>
VStem: 95 162<146 324> 416 162<137 324>
Fore
198 568 m 1
 222 673 l 2
 234 726 247 741 283 741 c 0
 311 741 333 719 333 690 c 0
 333 672 322 650 305 633 c 2
 222 553 l 1
 198 568 l 1
360 568 m 1
 384 673 l 1
 396 727 409 741 445 741 c 0
 474 741 495 719 495 689 c 0
 495 672 484 649 467 633 c 2
 384 553 l 1
 360 568 l 1
578 502 m 1
 578 164 l 2
 578 107 584 97 622 88 c 2
 653 81 l 1
 653 0 l 1
 433 0 l 1
 433 39 l 1
 366 0 323 -13 258 -13 c 0
 210 -13 170 0 141 24 c 0
 106 55 95 89 95 169 c 2
 95 308 l 2
 95 369 84 385 40 390 c 2
 22 392 l 1
 22 473 l 1
 195 502 l 1
 257 502 l 1
 257 172 l 2
 257 114 267 100 307 100 c 0
 339 100 369 110 416 138 c 1
 416 308 l 2
 416 369 405 385 361 390 c 2
 343 392 l 1
 343 473 l 1
 516 502 l 1
 578 502 l 1
EndSplineSet
Ligature: 0 0 'liga' u uni030B
EndChar
StartChar: yacute
Encoding: 368 253 262
Width: 620
Flags: W
HStem: -221 170<96 125> 420 82<6 317 346 375>
DStem: 93 346 255 375 244 5 329 187
Fore
238 554 m 1
 218 603 l 1
 323 697 l 2
 354 724 382 738 407 738 c 0
 445 738 477 705 477 665 c 0
 477 627 449 599 397 588 c 2
 238 554 l 1
329 187 m 1
 400 373 l 1
 403 379 404 386 404 392 c 0
 404 411 389 420 358 420 c 2
 346 420 l 1
 346 502 l 1
 613 502 l 1
 613 420 l 1
 601 418 l 2
 549 405 532 389 501 324 c 1
 329 -47 l 2
 298 -114 292 -126 270 -152 c 0
 235 -195 180 -221 125 -221 c 0
 61 -221 17 -185 17 -133 c 0
 17 -86 51 -51 96 -51 c 0
 121 -51 139 -59 162 -80 c 0
 167 -85 172 -88 176 -88 c 0
 188 -88 223 -41 244 5 c 1
 93 346 l 1
 69 402 60 411 22 418 c 2
 6 420 l 1
 6 502 l 1
 317 502 l 1
 317 420 l 1
 306 420 l 2
 267 420 251 413 251 395 c 0
 251 389 253 382 255 375 c 1
 329 187 l 1
EndSplineSet
Ligature: 0 0 'liga' y acutecomb
EndChar
StartChar: zacute
Encoding: 369 378 263
Width: 560
Flags: W
HStem: 0 93<248 484> 411 91<100 309>
DStem: 309 410 528 428 22 81 241 95
Fore
248 554 m 1
 228 603 l 1
 333 697 l 2
 364 724 392 738 417 738 c 0
 455 738 487 705 487 665 c 0
 487 627 459 599 407 588 c 2
 248 554 l 1
547 186 m 1
 484 0 l 1
 47 0 l 1
 22 81 l 1
 309 410 l 1
 293 411 284 411 279 411 c 0
 234 411 190 395 163 368 c 0
 150 355 140 342 120 309 c 1
 40 337 l 1
 100 502 l 1
 496 502 l 1
 528 428 l 1
 241 95 l 1
 255 93 263 93 271 93 c 0
 368 93 423 126 470 213 c 1
 547 186 l 1
EndSplineSet
Ligature: 0 0 'liga' z acutecomb
EndChar
StartChar: zcaron
Encoding: 370 382 264
Width: 560
Flags: W
HStem: 0 93<261 484> 411 91<100 309>
DStem: 309 410 528 428 22 81 241 95
Fore
123 665 m 1
 161 731 l 1
 305 678 l 1
 447 731 l 1
 485 665 l 1
 303 555 l 1
 123 665 l 1
547 186 m 1
 484 0 l 1
 47 0 l 1
 22 81 l 1
 309 410 l 1
 293 411 284 411 279 411 c 0
 234 411 190 395 163 368 c 0
 150 355 140 342 120 309 c 1
 40 337 l 1
 100 502 l 1
 496 502 l 1
 528 428 l 1
 241 95 l 1
 255 93 263 93 271 93 c 0
 368 93 423 126 470 213 c 1
 547 186 l 1
EndSplineSet
Ligature: 0 0 'liga' z uni030C
EndChar
StartChar: zdotaccent
Encoding: 371 380 265
Width: 560
Flags: W
HStem: 0 93<261 484> 411 91<100 309> 551 191<293 311>
VStem: 208 191<639 657>
DStem: 309 410 528 428 22 81 241 95
Fore
303 742 m 0
 354 742 399 696 399 643 c 0
 399 593 356 551 305 551 c 0
 251 551 208 594 208 647 c 0
 208 702 248 742 303 742 c 0
547 186 m 1
 484 0 l 1
 47 0 l 1
 22 81 l 1
 309 410 l 1
 293 411 284 411 279 411 c 0
 234 411 190 395 163 368 c 0
 150 355 140 342 120 309 c 1
 40 337 l 1
 100 502 l 1
 496 502 l 1
 528 428 l 1
 241 95 l 1
 255 93 263 93 271 93 c 0
 368 93 423 126 470 213 c 1
 547 186 l 1
EndSplineSet
Ligature: 0 0 'liga' z uni0307
EndChar
StartChar: ydieresis
Encoding: 372 255 266
Width: 620
Flags: W
HStem: -221 170<96 125> 420 82<6 317 346 375> 559 139<181 199 421 429>
VStem: 123 139<624 631> 357 139<624 631>
DStem: 93 346 255 375 244 5 329 187
Fore
192 698 m 0
 229 698 262 664 262 626 c 0
 262 590 231 559 193 559 c 0
 154 559 123 590 123 629 c 0
 123 669 152 698 192 698 c 0
426 698 m 0
 463 698 496 664 496 626 c 0
 496 590 465 559 427 559 c 0
 388 559 357 590 357 629 c 0
 357 669 386 698 426 698 c 0
329 187 m 1
 400 373 l 1
 403 379 404 386 404 392 c 0
 404 411 389 420 358 420 c 2
 346 420 l 1
 346 502 l 1
 613 502 l 1
 613 420 l 1
 601 418 l 2
 549 405 532 389 501 324 c 1
 329 -47 l 2
 298 -114 292 -126 270 -152 c 0
 235 -195 180 -221 125 -221 c 0
 61 -221 17 -185 17 -133 c 0
 17 -86 51 -51 96 -51 c 0
 121 -51 139 -59 162 -80 c 0
 167 -85 172 -88 176 -88 c 0
 188 -88 223 -41 244 5 c 1
 93 346 l 1
 69 402 60 411 22 418 c 2
 6 420 l 1
 6 502 l 1
 317 502 l 1
 317 420 l 1
 306 420 l 2
 267 420 251 413 251 395 c 0
 251 389 253 382 255 375 c 1
 329 187 l 1
EndSplineSet
Ligature: 0 0 'liga' y uni0308
EndChar
StartChar: tcommaaccent
Encoding: 373 355 267
Width: 460
Flags: W
HStem: -9 116<234 296> 417 85<260 397>
VStem: 98 162<157 412> 150 160<-145 -129>
Fore
397 417 m 1xe0
 260 417 l 1
 260 175 l 2
 260 123 269 107 296 107 c 0
 321 107 341 119 385 162 c 1
 445 91 l 1
 387 21 324 -9 234 -9 c 0
 176 -9 136 11 114 50 c 0
 102 74 98 98 98 159 c 2
 98 412 l 1
 22 412 l 1
 22 491 l 1
 109 503 156 558 166 661 c 1
 260 661 l 1
 260 502 l 1
 397 502 l 1
 397 417 l 1xe0
209 -306 m 1
 166 -261 l 1
 190 -240 204 -223 215 -202 c 1
 172 -194 150 -168 150 -129 c 0
 150 -84 184 -50 228 -50 c 0
 277 -50 310 -89 310 -145 c 0xd0
 310 -204 272 -265 209 -306 c 1
EndSplineSet
Ligature: 0 0 'liga' t uni0327
EndChar
StartChar: amacron
Encoding: 374 257 268
Width: 580
Flags: W
HStem: -9 102<461 507> 419 92<251 270> 582 85<128 443>
VStem: 28 170<128 149> 46 151<363 377> 324 162<134 367>
Fore
443 667 m 1xe4
 443 582 l 1
 128 582 l 1
 128 667 l 1
 443 667 l 1xe4
532 110 m 1
 588 42 l 1
 543 6 506 -9 461 -9 c 0
 415 -9 370 11 346 42 c 1
 296 8 243 -9 187 -9 c 0
 92 -9 28 46 28 128 c 0xf4
 28 204 78 257 178 287 c 0
 221 300 269 309 324 314 c 1
 324 365 l 2
 324 401 304 419 261 419 c 0
 240 419 218 412 206 401 c 0
 200 396 197 389 197 375 c 0
 197 351 193 337 183 325 c 0
 169 308 144 298 120 298 c 0
 78 298 46 331 46 373 c 0xec
 46 453 139 511 268 511 c 0
 346 511 413 491 448 457 c 0
 475 431 486 399 486 346 c 2
 486 149 l 1
 487 111 487 111 490 104 c 0
 492 98 500 93 507 93 c 0
 512 93 517 96 525 104 c 0
 528 106 530 108 532 110 c 1
324 134 m 1
 324 234 l 1
 237 218 198 191 198 149 c 0
 198 119 217 99 245 99 c 0
 273 99 298 110 324 134 c 1
EndSplineSet
Ligature: 0 0 'liga' a uni0304
EndChar
StartChar: emacron
Encoding: 375 275 269
Width: 580
Flags: W
HStem: -9 108<303 333> 254 77<218 536> 419 92<286 305> 582 85<128 443>
VStem: 31 181<230 254>
Fore
443 667 m 1
 443 582 l 1
 128 582 l 1
 128 667 l 1
 443 667 l 1
536 254 m 1
 212 254 l 1
 211 156 255 99 333 99 c 0
 384 99 425 126 464 184 c 1
 548 143 l 1
 523 102 511 86 492 66 c 0
 448 18 379 -9 303 -9 c 0
 145 -9 31 101 31 253 c 0
 31 404 140 511 294 511 c 0
 390 511 471 469 510 400 c 0
 529 366 536 325 536 254 c 1
218 331 m 1
 359 331 l 1
 357 394 338 419 293 419 c 0
 248 419 221 386 218 331 c 1
EndSplineSet
Ligature: 0 0 'liga' e uni0304
EndChar
StartChar: imacron
Encoding: 376 299 270
Width: 360
Flags: W
HStem: 0 21G<22 335> 482 20G<198 260> 582 85<18 333>
Fore
333 667 m 1
 333 582 l 1
 18 582 l 1
 18 667 l 1
 333 667 l 1
260 502 m 1
 260 164 l 2
 260 107 266 97 304 88 c 2
 335 81 l 1
 335 0 l 1
 22 0 l 1
 22 81 l 1
 54 88 l 2
 92 96 98 107 98 164 c 2
 98 308 l 2
 98 369 86 386 43 390 c 2
 22 392 l 1
 22 473 l 1
 198 502 l 1
 260 502 l 1
EndSplineSet
Ligature: 0 0 'liga' i uni0304
EndChar
StartChar: kcommaaccent
Encoding: 377 311 271
Width: 660
Flags: W
HStem: 0 21G<22 317 338 643> 482 20G<305 594>
VStem: 95 162<164 195 164 724> 250 160<-145 -129>
Fore
309 -306 m 1xd0
 266 -261 l 1
 290 -240 304 -223 315 -202 c 1
 272 -194 250 -168 250 -129 c 0
 250 -84 284 -50 328 -50 c 0
 377 -50 410 -89 410 -145 c 0
 410 -204 372 -265 309 -306 c 1xd0
257 304 m 1xe0
 322 374 l 2
 341 395 342 396 342 403 c 0
 342 413 334 419 316 420 c 2
 305 421 l 1
 305 502 l 1
 594 502 l 1
 594 421 l 1
 580 420 l 2
 543 415 528 409 498 387 c 2
 410 322 l 1xd0
 546 132 l 1
 565 104 592 87 625 83 c 2
 643 81 l 1
 643 0 l 1
 338 0 l 1
 338 81 l 1
 349 83 l 2
 362 85 371 92 371 100 c 0
 371 105 368 113 361 124 c 2
 294 228 l 1
 257 195 l 1
 257 164 l 2
 257 134 258 126 265 113 c 0
 272 98 288 87 303 84 c 2
 317 81 l 1
 317 0 l 1
 22 0 l 1
 22 81 l 1
 51 88 l 2
 89 97 95 107 95 164 c 2
 95 517 l 2
 95 578 86 591 36 598 c 2
 22 600 l 1
 22 681 l 1
 66 681 138 700 192 724 c 1
 257 724 l 1
 257 304 l 1xe0
EndSplineSet
Ligature: 0 0 'liga' k uni0327
EndChar
StartChar: lcommaaccent
Encoding: 378 316 272
Width: 340
Flags: W
HStem: 0 21G<9 322>
VStem: 85 162<164 543>
Fore
149 -306 m 1
 106 -261 l 1
 130 -240 144 -223 155 -202 c 1
 112 -194 90 -168 90 -129 c 0
 90 -84 124 -50 168 -50 c 0
 217 -50 250 -89 250 -145 c 0
 250 -204 212 -265 149 -306 c 1
247 724 m 1
 247 164 l 2
 247 107 253 97 291 88 c 2
 322 81 l 1
 322 0 l 1
 9 0 l 1
 9 81 l 1
 41 88 l 2
 79 96 85 107 85 164 c 2
 85 517 l 2
 85 556 82 570 72 580 c 0
 64 588 45 596 26 598 c 2
 9 600 l 1
 9 681 l 1
 76 687 119 697 181 724 c 1
 247 724 l 1
EndSplineSet
Ligature: 0 0 'liga' l uni0327
EndChar
StartChar: ncommaaccent
Encoding: 379 326 273
Width: 680
Flags: W
HStem: 0 21G<22 319 354 652> 403 108<371 422>
VStem: 95 162<164 335> 260 160<-145 -129> 416 162<164 355>
Fore
319 -306 m 1xf0
 276 -261 l 1
 300 -240 314 -223 325 -202 c 1
 282 -194 260 -168 260 -129 c 0
 260 -84 294 -50 338 -50 c 0
 387 -50 420 -89 420 -145 c 0
 420 -204 382 -265 319 -306 c 1xf0
240 502 m 1
 240 459 l 1
 305 495 359 511 422 511 c 0
 476 511 511 497 541 464 c 0
 569 434 578 406 578 352 c 2
 578 164 l 2
 578 107 584 97 622 88 c 2
 652 81 l 1
 652 0 l 1
 354 0 l 1
 354 81 l 1
 372 86 l 2
 410 97 416 107 416 164 c 2
 416 339 l 2xe8
 416 381 401 403 371 403 c 0
 341 403 297 386 257 359 c 1
 257 164 l 2
 257 107 263 97 301 86 c 2
 319 81 l 1
 319 0 l 1
 22 0 l 1
 22 81 l 1
 51 88 l 2
 89 97 95 107 95 164 c 2
 95 308 l 2
 95 369 84 385 40 390 c 2
 22 392 l 1
 22 473 l 1
 178 502 l 1
 240 502 l 1
EndSplineSet
Ligature: 0 0 'liga' n uni0327
EndChar
StartChar: omacron
Encoding: 380 333 274
Width: 620
Flags: W
HStem: -9 97<301 320> 409 102<301 320> 582 85<148 463>
VStem: 31 182<242 264> 403 182<230 264>
Fore
463 667 m 1
 463 582 l 1
 148 582 l 1
 148 667 l 1
 463 667 l 1
303 511 m 0
 475 511 585 409 585 248 c 0
 585 92 476 -9 308 -9 c 0
 138 -9 31 94 31 258 c 0
 31 409 141 511 303 511 c 0
309 409 m 0
 245 409 213 354 213 246 c 0
 213 142 246 88 309 88 c 0
 370 88 403 142 403 244 c 0
 403 354 372 409 309 409 c 0
EndSplineSet
Ligature: 0 0 'liga' o uni0304
EndChar
StartChar: rcommaaccent
Encoding: 381 343 275
Width: 460
Flags: W
HStem: 0 21G<22 330> 343 168<370 385>
VStem: 95 162<164 335>
Fore
159 -306 m 1
 116 -261 l 1
 140 -240 154 -223 165 -202 c 1
 122 -194 100 -168 100 -129 c 0
 100 -84 134 -50 178 -50 c 0
 227 -50 260 -89 260 -145 c 0
 260 -204 222 -265 159 -306 c 1
240 502 m 1
 240 453 l 1
 306 500 331 511 372 511 c 0
 423 511 462 471 462 419 c 0
 462 375 428 343 383 343 c 0
 364 343 350 347 332 359 c 0
 309 374 309 374 297 374 c 0
 281 374 271 370 257 358 c 1
 257 164 l 2
 257 107 263 97 301 88 c 2
 330 81 l 1
 330 0 l 1
 22 0 l 1
 22 81 l 1
 51 88 l 2
 89 97 95 107 95 164 c 2
 95 308 l 2
 95 369 84 385 40 390 c 2
 22 392 l 1
 22 473 l 1
 178 502 l 1
 240 502 l 1
EndSplineSet
Ligature: 0 0 'liga' r uni0327
EndChar
StartChar: umacron
Encoding: 382 363 276
Width: 660
Flags: W
HStem: -13 113<258 307> 482 20G<195 257 516 578> 582 85<168 483>
VStem: 95 162<146 324> 416 162<137 324>
Fore
483 667 m 1
 483 582 l 1
 168 582 l 1
 168 667 l 1
 483 667 l 1
578 502 m 1
 578 164 l 2
 578 107 584 97 622 88 c 2
 653 81 l 1
 653 0 l 1
 433 0 l 1
 433 39 l 1
 366 0 323 -13 258 -13 c 0
 210 -13 170 0 141 24 c 0
 106 55 95 89 95 169 c 2
 95 308 l 2
 95 369 84 385 40 390 c 2
 22 392 l 1
 22 473 l 1
 195 502 l 1
 257 502 l 1
 257 172 l 2
 257 114 267 100 307 100 c 0
 339 100 369 110 416 138 c 1
 416 308 l 2
 416 369 405 385 361 390 c 2
 343 392 l 1
 343 473 l 1
 516 502 l 1
 578 502 l 1
EndSplineSet
Ligature: 0 0 'liga' u uni0304
EndChar
StartChar: uogonek
Encoding: 383 371 277
Width: 660
Flags: W
HStem: -170 71<618 652> -13 113<258 307> 482 20G<195 257 516 578>
VStem: 95 162<149 327> 416 162<137 327> 541 79<-91 -63>
Fore
416 138 m 1xf8
 416 308 l 2
 416 369 405 385 361 390 c 2
 343 392 l 1
 343 473 l 1
 516 502 l 1
 578 502 l 1
 578 164 l 2xf8
 578 107 584 97 622 88 c 2
 653 81 l 1
 653 0 l 1
 629 -21 620 -37 620 -63 c 0
 620 -87 631 -99 652 -99 c 0
 668 -99 679 -94 703 -77 c 1
 719 -107 l 1
 699 -147 662 -170 618 -170 c 0
 571 -170 541 -139 541 -91 c 0xf4
 541 -54 553 -29 583 0 c 1
 433 0 l 1
 433 39 l 1
 366 0 323 -13 258 -13 c 0
 210 -13 170 0 141 24 c 0
 106 55 95 89 95 169 c 2
 95 308 l 2
 95 369 84 385 40 390 c 2
 22 392 l 1
 22 473 l 1
 195 502 l 1
 257 502 l 1
 257 172 l 2
 257 114 267 100 307 100 c 0
 339 100 369 110 416 138 c 1xf8
EndSplineSet
Ligature: 0 0 'liga' u uni0328
EndChar
StartChar: rcaron
Encoding: 384 345 278
Width: 460
Flags: W
HStem: 0 21G<22 330> 343 168<370 385>
VStem: 95 162<164 321>
Fore
48 665 m 1
 86 731 l 1
 230 678 l 1
 372 731 l 1
 410 665 l 1
 228 555 l 1
 48 665 l 1
240 502 m 1
 240 453 l 1
 306 500 331 511 372 511 c 0
 423 511 462 471 462 419 c 0
 462 375 428 343 383 343 c 0
 364 343 350 347 332 359 c 0
 309 374 309 374 297 374 c 0
 281 374 271 370 257 358 c 1
 257 164 l 2
 257 107 263 97 301 88 c 2
 330 81 l 1
 330 0 l 1
 22 0 l 1
 22 81 l 1
 51 88 l 2
 89 97 95 107 95 164 c 2
 95 308 l 2
 95 369 84 385 40 390 c 2
 22 392 l 1
 22 473 l 1
 178 502 l 1
 240 502 l 1
EndSplineSet
Ligature: 0 0 'liga' r uni030C
EndChar
StartChar: scedilla
Encoding: 385 351 279
Width: 520
Flags: W
HStem: -213 65<252 263> -75 168<227 255> -44 35<255 266.5> -9 102<255 275> 419 92<227 260>
VStem: 30 145<337 380> 288 83<-121 -114> 342 150<135 171>
Fore
255 -9 m 1xad
 255 -44 l 1xad
 278 -42 283 -42 291 -42 c 0
 337 -42 371 -74 371 -117 c 0
 371 -173 322 -213 254 -213 c 0
 197 -213 155 -187 155 -153 c 0
 155 -132 169 -119 189 -119 c 0
 201 -119 207 -122 220 -131 c 0
 236 -144 244 -148 257 -148 c 0
 275 -148 288 -135 288 -116 c 0
 288 -90 266 -75 227 -75 c 0
 220 -75 214 -75 194 -77 c 1
 203 -2 l 1
 183 3 170 8 140 21 c 1
 129 -4 l 1
 62 -4 l 1
 22 165 l 1
 100 181 l 1
 124 153 133 143 144 133 c 0
 172 108 215 93 255 93 c 0xce
 304 93 342 112 342 135 c 0
 342 159 316 172 254 181 c 2
 190 189 l 2
 86 203 30 255 30 337 c 0
 30 438 116 511 234 511 c 0
 280 511 311 503 362 478 c 1
 375 502 l 1
 437 502 l 1
 457 354 l 1
 375 342 l 1
 337 394 295 419 244 419 c 0
 204 419 175 402 175 380 c 0
 175 358 197 345 254 335 c 2
 329 321 l 2
 403 307 424 298 451 271 c 1
 478 246 492 210 492 171 c 0
 492 70 396 -9 273 -9 c 2x9d
 255 -9 l 1xad
EndSplineSet
Ligature: 0 0 'liga' s uni0327
EndChar
StartChar: gcommaaccent
Encoding: 386 291 280
Width: 580
Flags: W
HStem: -248 82<248 305> 133 82<270 298> 423 92<270 298> 468 125<505 522>
VStem: 9 113<-115 -103> 54 162<311 329> 210 160<646 663> 352 162<311 329>
Fore
311 824 m 1xc2
 354 779 l 1
 330 758 316 741 305 720 c 1
 348 712 370 686 370 647 c 0
 370 602 336 568 292 568 c 0
 243 568 210 607 210 663 c 0
 210 722 248 783 311 824 c 1xc2
253 87 m 2
 411 73 l 2
 513 64 566 18 566 -60 c 0
 566 -118 531 -179 482 -206 c 0
 434 -232 354 -248 269 -248 c 0
 213 -248 150 -240 110 -227 c 0
 45 -206 9 -166 9 -113 c 0xd9
 9 -72 31 -44 77 -23 c 1
 43 2 27 29 27 64 c 0
 27 124 64 171 123 185 c 1
 77 220 54 267 54 323 c 0
 54 433 148 515 276 515 c 0xe4
 303 515 323 512 363 503 c 1
 385 533 394 543 407 555 c 0
 432 577 472 593 505 593 c 0
 549 593 583 563 583 525 c 0
 583 494 556 468 522 468 c 0
 516 468 507 470 498 473 c 0
 477 480 476 480 467 480 c 0
 452 480 446 477 436 468 c 1
 491 426 514 382 514 322 c 0xd5
 514 211 422 133 292 133 c 0
 267 133 231 137 208 142 c 0
 202 143 196 144 193 144 c 0
 181 144 172 134 172 122 c 0
 172 99 187 92 253 87 c 2
284 423 m 0xe5
 237 423 216 390 216 315 c 0
 216 246 237 215 284 215 c 0
 330 215 352 246 352 313 c 0
 352 391 332 423 284 423 c 0xe5
332 -78 m 2
 155 -59 l 1
 134 -72 122 -89 122 -108 c 0xc8
 122 -141 183 -166 266 -166 c 0
 364 -166 411 -150 411 -118 c 0
 411 -94 394 -85 332 -78 c 2
EndSplineSet
Ligature: 0 0 'liga' g uni0327
EndChar
StartChar: iogonek
Encoding: 387 303 281
Width: 360
Flags: W
HStem: -170 71<300 334> -20 20G<22 265> 482 20G<198 260> 536 194<165 183>
VStem: 98 162<164 327> 223 79<-91 -63>
Fore
335 81 m 1xf8
 335 0 l 1
 311 -20 302 -38 302 -63 c 0
 302 -87 313 -99 334 -99 c 0
 350 -99 361 -94 385 -77 c 1
 401 -107 l 1
 381 -147 344 -170 300 -170 c 0
 253 -170 223 -139 223 -91 c 0xf4
 223 -54 235 -29 265 0 c 1
 22 0 l 1
 22 81 l 1
 54 88 l 2
 92 96 98 107 98 164 c 2
 98 308 l 2
 98 369 86 386 43 390 c 2
 22 392 l 1
 22 473 l 1
 198 502 l 1
 260 502 l 1
 260 164 l 2
 260 107 266 97 304 88 c 2
 335 81 l 1xf8
173 730 m 0
 227 730 268 688 268 635 c 0
 268 581 223 536 169 536 c 0
 116 536 74 579 74 632 c 0
 74 685 120 730 173 730 c 0
EndSplineSet
Ligature: 0 0 'liga' i uni0328
EndChar
StartChar: Scommaaccent
Encoding: 388 536 282
Width: 660
Flags: W
HStem: -13 97<340 374> 597 97<284 317>
VStem: 40 155<476 527> 250 160<-145 -129> 484 155<173 227>
Fore
458 649 m 1
 470 681 l 1
 530 681 l 1
 596 478 l 1
 524 451 l 1
 492 495 479 511 462 529 c 0
 424 570 362 597 305 597 c 0
 241 597 195 568 195 527 c 0
 195 495 222 476 283 462 c 0
 311 456 329 452 332 451 c 2
 423 427 l 2
 507 404 536 394 566 374 c 0
 612 344 639 289 639 227 c 0
 639 89 519 -13 356 -13 c 0
 288 -13 219 7 177 38 c 1
 163 -11 l 1
 104 -11 l 1
 21 244 l 1
 96 269 l 1
 122 222 141 197 168 167 c 1
 218 115 288 84 358 84 c 0
 432 84 484 121 484 173 c 0
 484 210 463 225 388 244 c 2
 289 269 l 2
 171 298 151 305 116 327 c 0
 68 358 40 413 40 476 c 0
 40 603 148 694 298 694 c 0
 356 694 418 676 458 649 c 1
309 -306 m 1
 266 -261 l 1
 290 -240 304 -223 315 -202 c 1
 272 -194 250 -168 250 -129 c 0
 250 -84 284 -50 328 -50 c 0
 377 -50 410 -89 410 -145 c 0
 410 -204 372 -265 309 -306 c 1
EndSplineSet
Ligature: 0 0 'liga' S uni0326
EndChar
StartChar: Eth
Encoding: 389 208 283
Width: 780
Flags: W
HStem: 0 90<336 363> 321 87<20 108 283 436> 590 91<20 373>
VStem: 108 175<143 321 408 537> 556 192<319 353>
Fore
108 321 m 1
 20 321 l 1
 20 408 l 1
 108 408 l 1
 108 511 l 2
 108 576 96 591 40 596 c 2
 20 598 l 1
 20 681 l 1
 338 681 l 2
 507 681 562 666 636 602 c 0
 709 538 748 446 748 337 c 0
 748 248 721 168 669 108 c 0
 601 28 522 0 361 0 c 2
 20 0 l 1
 20 82 l 1
 40 84 l 2
 96 90 108 104 108 168 c 2
 108 321 l 1
283 408 m 1
 436 408 l 1
 436 321 l 1
 283 321 l 1
 283 162 l 2
 283 113 283 110 292 103 c 0
 303 95 324 90 350 90 c 0
 475 90 556 190 556 344 c 0
 556 496 479 590 354 590 c 0
 298 590 283 579 283 537 c 2
 283 408 l 1
EndSplineSet
EndChar
StartChar: Dcroat
Encoding: 390 272 284
Width: 780
Flags: W
HStem: 0 90<336 363> 321 87<20 108 283 436> 590 91<20 373>
VStem: 108 175<143 321 408 537> 556 192<319 353>
Fore
108 321 m 1
 20 321 l 1
 20 408 l 1
 108 408 l 1
 108 511 l 2
 108 576 96 591 40 596 c 2
 20 598 l 1
 20 681 l 1
 338 681 l 2
 507 681 562 666 636 602 c 0
 709 538 748 446 748 337 c 0
 748 248 721 168 669 108 c 0
 601 28 522 0 361 0 c 2
 20 0 l 1
 20 82 l 1
 40 84 l 2
 96 90 108 104 108 168 c 2
 108 321 l 1
283 408 m 1
 436 408 l 1
 436 321 l 1
 283 321 l 1
 283 162 l 2
 283 113 283 110 292 103 c 0
 303 95 324 90 350 90 c 0
 475 90 556 190 556 344 c 0
 556 496 479 590 354 590 c 0
 298 590 283 579 283 537 c 2
 283 408 l 1
EndSplineSet
EndChar
StartChar: Thorn
Encoding: 391 222 285
Width: 660
Flags: W
HStem: 0 21G<20 371> 147 89<283 378> 449 232<20 322>
VStem: 108 176<143 168 168 449> 466 192<343 353>
Fore
371 82 m 1
 371 0 l 1
 20 0 l 1
 20 82 l 1
 40 84 l 2
 96 90 108 104 108 168 c 2
 108 514 l 2
 108 578 96 592 40 598 c 2
 20 600 l 1
 20 681 l 1
 376 681 l 1
 376 600 l 1
 352 598 l 2
 303 593 287 579 287 542 c 1
 379 542 l 2
 482 542 535 531 580 500 c 0
 631 465 658 411 658 343 c 0
 658 213 564 147 378 147 c 2
 284 147 l 1
 284 104 298 91 351 84 c 2
 371 82 l 1
283 236 m 1
 322 236 l 2
 418 236 466 272 466 343 c 0
 466 414 418 449 322 449 c 2
 283 449 l 1
 283 236 l 1
EndSplineSet
EndChar
StartChar: dcroat
Encoding: 392 273 286
Width: 640
Flags: W
HStem: -9 102<260 287> 381 108<268 302> 526 48<233 383 545 622>
VStem: 31 170<236 248> 383 162<140 348 460 526>
Fore
545 526 m 1
 545 164 l 2
 545 106 551 96 589 88 c 2
 622 81 l 1
 622 0 l 1
 398 0 l 1
 398 38 l 1
 361 6 318 -9 260 -9 c 0
 204 -9 163 4 127 34 c 0
 68 82 31 159 31 236 c 0
 31 313 73 399 131 443 c 0
 169 472 221 489 268 489 c 0
 309 489 349 479 383 460 c 1
 383 526 l 1
 233 526 l 1
 233 574 l 1
 380 574 l 1
 377 600 359 612 324 612 c 2
 310 612 l 1
 310 681 l 1
 360 685 433 702 492 724 c 1
 545 724 l 1
 545 574 l 1
 622 574 l 1
 622 526 l 1
 545 526 l 1
383 141 m 1
 383 348 l 1
 359 370 333 381 302 381 c 0
 282 381 265 375 252 365 c 0
 222 339 201 287 201 236 c 0
 201 155 238 93 287 93 c 0
 321 93 361 113 383 141 c 1
EndSplineSet
EndChar
StartChar: eth
Encoding: 393 240 287
Width: 620
Flags: W
HStem: -9 97<302 320> 409 102<283 309>
VStem: 31 182<230 264> 403 182<242 264>
DStem: 134 642 204 614 49 585 83 534 327 779 362 724 208 701 292 679
Fore
327 779 m 1
 362 724 l 1
 292 679 l 1
 367 647 416 616 457 577 c 0
 535 500 585 378 585 260 c 0
 585 91 481 -9 308 -9 c 0
 140 -9 31 94 31 254 c 0
 31 340 62 407 124 455 c 0
 171 491 227 511 283 511 c 0
 302 511 320 509 339 505 c 1
 294 560 255 592 204 614 c 1
 83 534 l 1
 49 585 l 1
 134 642 l 1
 109 649 78 657 31 666 c 1
 57 720 l 1
 110 719 161 712 208 701 c 1
 327 779 l 1
309 409 m 0
 245 409 213 354 213 246 c 0
 213 142 246 88 309 88 c 0
 370 88 403 142 403 244 c 0
 403 354 372 409 309 409 c 0
EndSplineSet
EndChar
